# LOD generated from left_leg.obj by tools/generate_lods.py
v -0.32506 0.48425 -0.38492
v -0.17348 0.76044 -0.51745
v 0.16082 0.28512 -0.68513
v 0.17685 0.18411 -0.53989
v 0.34852 1.03640 -0.45382
v 0.28763 0.51387 -0.69788
v 0.48503 0.43273 -0.50119
v 0.38184 0.50701 -0.62498
v 0.14781 0.84821 -0.55711
v 0.23658 1.18357 -0.48766
v 0.55961 0.35674 -0.28328
v 0.48269 0.53928 -0.36953
v -0.03881 0.93780 -0.53117
v 0.50257 0.78279 -0.24923
v 0.46854 0.97446 -0.23943
v 0.11778 4.21083 -0.50588
v 0.31927 4.09809 -0.41905
v -0.42441 0.19803 1.38586
v -0.95914 0.27946 1.53020
v -0.89395 0.18347 1.27435
v -0.94210 0.17759 1.35857
v -0.87221 0.12248 1.39598
v -0.79018 0.16228 1.39670
v -1.13485 0.13025 0.96944
v -1.02924 0.11460 1.00370
v -1.00177 0.13878 1.06090
v -0.87799 0.30810 1.46338
v -0.88302 0.25855 1.57168
v -0.83101 0.29365 1.46768
v -1.22562 0.34175 1.23070
v -1.27527 0.29787 1.23656
v -1.22476 0.30759 1.19334
v -1.18767 0.31846 1.16420
v -1.24421 0.31917 1.21522
v -1.18975 0.30466 1.18305
v -1.22910 0.31534 1.22703
v -0.89091 0.29864 1.50760
v -1.20859 0.32159 1.20868
v -1.19367 0.30563 1.20744
v -1.21976 0.30326 1.20639
v -1.23313 0.31276 1.35265
v -1.19988 0.33264 1.34814
v -1.13780 0.30341 1.41438
v -1.12311 0.31593 1.36433
v -1.13160 0.32895 1.38881
v -1.16112 0.32355 1.36423
v -1.11750 0.32639 1.38606
v -1.10418 0.33246 1.38009
v -1.07638 0.32240 1.37828
v -0.99976 0.34201 1.33347
v -1.07814 0.33975 1.38198
v -1.05103 0.30795 1.36413
v -1.07477 0.32054 1.34315
v -1.02772 0.33238 1.34108
v -1.00407 0.33448 1.30158
v -1.02015 0.32918 1.29777
v 0.04408 1.73969 -0.56401
v -0.11412 1.83395 -0.56531
v 0.47190 1.70052 -0.28469
v 0.29422 1.78139 -0.49874
v -0.28884 0.16525 1.50971
v -0.38932 0.21290 1.63859
v 0.00111 4.12329 0.56436
v -0.43103 4.24993 0.44151
v -0.33703 4.24262 0.51060
v -0.23343 4.70116 0.60931
v 0.52957 4.18747 -0.01028
v 0.45757 4.55728 0.41298
v 0.58668 4.59945 -0.01302
v -0.23188 3.91246 0.45505
v -0.42075 3.87562 -0.20283
v 0.51657 4.56827 0.20052
v -0.44461 4.05072 -0.22947
v -0.44438 3.88440 0.23435
v -0.01183 3.86208 0.47338
v -0.39021 3.77261 0.04344
v -0.51154 4.22096 -0.00005
v -0.24333 3.74597 -0.45598
v -0.41866 3.62023 0.01831
v -0.67826 5.44037 -0.29619
v -0.50738 4.23719 0.26046
v -0.32042 3.70457 0.19040
v -0.24258 3.70717 0.27372
v -0.06818 3.71319 0.38446
v -0.34434 3.87563 0.36831
v 0.48354 3.53262 0.15049
v 0.11325 3.92191 0.46746
v 0.40102 3.94961 0.25983
v 0.39238 4.19300 0.33329
v 0.30286 4.05659 0.39391
v 0.37233 4.44633 0.45799
v 0.07643 4.55438 0.63613
v 0.32823 4.70333 0.60053
v 0.20119 4.48334 0.59127
v -0.12603 4.29652 0.60143
v 0.40188 0.89607 -0.39346
v -0.09960 0.38830 -0.64105
v 0.23624 4.60355 -0.47970
v -0.21252 4.44471 -0.46175
v -0.48602 3.97227 0.08475
v -0.54964 4.56271 0.26242
v -0.51702 5.47913 -0.47185
v -0.64570 4.72409 0.02676
v -0.86384 0.13549 1.35134
v -0.64330 0.26628 1.61979
v -0.60935 0.23470 1.64722
v -0.70747 0.27102 1.59868
v -0.64011 0.31332 1.57445
v -0.68067 0.32754 1.47504
v -0.71952 0.25486 1.58532
v -0.56708 0.31531 1.54764
v -0.91339 0.21631 1.60343
v -0.92661 0.12181 1.42552
v -0.83465 0.12454 1.47108
v -1.00413 0.20751 1.55868
v -0.94204 0.27389 1.35287
v -1.02379 0.30231 1.41225
v -0.49733 0.53417 0.10212
v -0.94389 0.35117 1.15897
v -1.09541 0.33212 1.17369
v -0.84555 0.34891 1.32976
v -0.17288 0.12363 1.56460
v -0.70011 0.18229 0.35570
v -0.79889 0.23312 0.41653
v -0.01277 0.51504 -0.66862
v -0.68389 0.31729 1.51579
v 0.46463 4.00041 -0.17980
v -0.60493 0.34570 1.51107
v -0.40216 0.36421 1.26676
v -0.45731 0.43747 1.07552
v -0.53324 0.31423 1.50041
v -0.37008 0.55386 0.83742
v -0.36808 0.41192 1.13647
v -0.26453 0.14532 1.20644
v -1.26717 0.22697 1.15457
v -1.24929 0.31781 1.31478
v -1.01156 0.34990 1.28416
v -0.60726 0.32053 0.18844
v -1.13504 0.33226 1.13524
v -0.45705 0.06836 0.82101
v -1.20394 0.31743 1.18254
v -0.76468 0.32758 1.31425
v -1.08391 0.33568 1.38466
v -0.91835 0.33221 1.22022
v -0.98613 0.26942 1.42286
v -0.97286 0.29208 1.47933
v -0.76972 0.20949 1.39985
v -0.75869 0.05370 0.64931
v -0.96397 0.13852 1.53759
v -1.01424 0.23039 1.47190
v -0.41057 0.15734 1.17877
v -0.50853 0.14852 1.17948
v -0.62664 0.20455 1.19938
v -0.50995 0.16257 1.37441
v -0.64360 0.18422 1.16422
v -0.79337 0.14573 1.32541
v -0.73524 0.18767 1.29131
v -0.90312 0.16105 1.58338
v -0.69574 0.18599 1.36519
v -0.47458 0.51366 0.81711
v -0.74461 0.44595 0.86054
v -0.15301 0.50269 0.98632
v -0.50650 0.43713 1.04031
v -0.73356 0.38611 1.13270
v -0.56820 0.41312 0.99544
v -0.75164 0.25294 1.54086
v -0.73105 0.14467 1.11634
v -0.64479 0.31000 1.19036
v -0.64230 0.32208 1.23920
v -0.63990 0.38091 1.11473
v -1.25986 0.11822 1.23995
v -1.03521 0.16432 1.39606
v -0.99877 0.26445 1.43238
v -1.15087 0.11347 1.34141
v -0.85849 0.34736 1.17814
v -0.97269 0.37711 0.89680
v -1.11131 0.31099 1.01222
v -1.15202 0.13453 1.02316
v -1.25053 0.19398 1.35690
v -1.18095 0.16297 1.03192
v -1.28023 0.16216 1.20600
v -1.18370 0.21786 1.40971
v -0.73900 0.18157 1.45722
v -1.29815 0.24154 1.30355
v -0.83934 0.14491 1.24394
v -0.96546 0.09991 0.86940
v -0.76735 0.07772 0.94666
v -0.90339 0.12227 0.97770
v -0.84810 0.07567 0.64080
v -1.01151 0.23133 0.66626
v -1.19303 0.23892 1.06800
v -1.06527 0.08061 1.19639
v -0.50830 0.62955 0.27047
v -0.85413 0.33220 1.13622
v -0.83357 0.35087 0.48972
v -0.62413 0.54049 0.35993
v -0.80622 0.43692 0.54296
v -0.21541 0.21718 -0.52578
v 0.19132 0.18985 0.78981
v 0.12560 0.14535 0.99831
v -0.93658 0.22020 0.54638
v -0.51468 5.01941 -0.36879
v -0.52580 0.06651 0.71965
v -0.08520 0.11509 1.13406
v -0.86681 0.24329 1.59118
v -0.08201 0.14973 1.26875
v 0.06550 0.10962 0.93595
v 0.42482 0.25822 0.07031
v -0.37638 0.30954 -0.24090
v 0.29133 0.26091 0.33436
v -0.37255 0.16098 0.22945
v -0.86915 0.13863 0.55691
v -0.97454 0.31751 0.62838
v -0.53264 0.23317 0.11610
v -0.76286 0.13603 1.03153
v -0.20328 0.07462 1.00404
v -0.50754 0.20145 0.21299
v -0.98211 0.37127 0.75151
v -1.03885 0.16478 0.76889
v -0.29867 0.16457 1.39088
v -0.82033 0.44016 0.68789
v -0.63272 0.55169 0.62541
v -0.39847 0.08652 0.95335
v 0.37033 0.24548 -0.57385
v -0.09118 0.15735 -0.44024
v 0.51540 0.27721 -0.40220
v 0.39922 0.31067 -0.60321
v 0.59434 2.23783 -0.33746
v -0.32577 2.13693 -0.45636
v -0.25518 2.44064 -0.65105
v 0.41239 2.06316 0.11882
v -0.41857 2.57541 -0.49136
v -0.41828 3.04386 -0.48883
v -0.49809 2.90627 -0.25306
v 0.66420 2.47597 -0.16570
v 0.27956 3.45702 -0.53538
v 0.66285 2.92112 -0.30804
v 0.27503 2.99398 -0.70615
v 0.46654 2.70894 -0.62660
v 0.24498 2.72342 -0.75075
v -0.12581 2.54356 -0.73113
v -0.21540 2.78111 -0.71680
v 0.62891 2.63712 -0.42811
v 0.07401 2.18876 -0.70875
v 0.36147 2.22057 -0.58939
v -0.08646 1.36403 -0.50217
v -0.00082 3.58491 -0.58400
v -0.11532 3.78823 -0.50678
v 0.46491 3.49796 -0.34914
v -0.03595 4.48389 -0.51358
v -0.18207 4.02817 -0.43842
v 0.51334 4.00527 -0.00631
v 0.61369 3.25875 -0.04615
v -0.07234 3.12439 -0.71410
v 0.22478 3.79592 -0.50259
v 0.44605 1.00004 -0.02248
v -0.04166 0.63039 0.70920
v 0.48577 0.73893 0.04994
v -0.39010 0.47670 -0.21834
v 0.18047 0.66691 0.42267
v -0.36117 0.80673 0.14124
v 0.27908 0.69546 0.23878
v -0.22649 4.90680 -0.56934
v -0.94691 0.29422 1.43243
v -0.99840 0.33730 1.23564
v 0.45985 1.30613 -0.22588
v 0.52695 5.50007 -0.42261
v 0.58261 4.80846 -0.15554
v 0.38105 5.89065 -0.59573
v -0.15167 1.23815 0.11735
v -0.02933 5.82370 -0.69526
v -0.37903 5.96042 0.91395
v 0.00490 4.01042 -0.50031
v 0.22768 7.23258 0.91648
v -0.75041 7.20197 0.67712
v -0.74024 7.47221 0.39028
v -0.83480 7.25700 0.41876
v 0.22352 3.50443 0.36898
v -0.65301 7.35958 0.77577
v -0.27987 7.39181 0.97592
v -0.02071 7.09195 1.02387
v -0.34227 7.53188 0.82536
v -0.42028 6.39872 0.98933
v 0.17884 2.71422 0.38802
v -0.24020 1.74052 -0.45070
v 0.60294 2.54045 0.05070
v -0.44557 3.21786 0.04044
v 0.14676 2.03092 0.25543
v 0.30291 1.53974 0.11191
v -0.34868 3.78066 -0.35699
v -0.44666 3.61250 -0.19014
v -0.15791 5.41044 -0.64150
v 0.51830 4.33921 -0.17220
v 0.62466 7.01882 0.11645
v -0.27749 3.98205 -0.42815
v -0.19523 6.92035 -0.56120
v 0.68222 2.82160 -0.12212
v -0.74243 5.24235 0.31422
v -0.99808 0.27055 1.49405
v -0.71708 5.79396 0.60635
v 0.35753 2.63997 0.31480
v 0.48801 3.76577 0.09765
v 0.62504 2.91837 0.05988
v -0.38223 2.14894 -0.23770
v 0.65862 6.80437 0.23017
v 0.48433 4.39340 0.11735
v -0.05635 2.58894 0.37071
v -0.40449 4.34150 -0.39763
v -0.10691 2.97017 0.37628
v -0.39686 2.67523 0.13783
v 0.48456 4.71339 -0.27971
v -0.29397 3.00682 0.26412
v 0.01170 4.82450 0.71025
v -0.18390 7.63688 0.65365
v -0.15196 5.16223 0.77902
v 0.40474 0.70646 -0.53741
v 0.13995 4.98963 -0.58379
v -0.00580 5.11061 -0.62096
v 0.08391 0.35767 -0.71150
v -0.51904 4.49784 -0.26982
v 0.17745 0.53575 -0.69007
v -0.30246 1.56590 -0.26051
v -0.05012 1.54253 0.16522
v -0.35449 4.88891 0.57654
v -0.46995 4.69090 0.41593
v -0.44683 2.47961 -0.29570
v 0.51417 7.08335 -0.06032
v 0.64525 4.81866 0.02353
v 0.67529 6.72802 -0.09698
v -0.31977 4.55815 -0.47343
v -0.20224 1.95927 0.14581
v -0.72525 6.56788 0.78053
v -0.48744 3.24001 -0.19652
v -0.61754 7.58022 0.38087
v -0.32167 6.76878 -0.59069
v -0.46749 2.64632 -0.04003
v 0.11565 3.52636 0.38619
v -0.17021 0.15073 1.35410
v 0.47162 2.86362 0.24954
v 0.23799 5.05739 0.75001
v 0.04741 5.39893 0.86623
v 0.21083 6.05523 0.94244
v 0.72126 6.03566 0.17186
v -0.71897 5.20241 -0.14328
v -0.44899 5.17965 -0.46175
v -0.61542 5.17182 -0.23760
v 0.51522 5.04978 0.51471
v 0.62401 4.83275 0.26132
v 0.65197 5.25096 0.34302
v 0.69669 5.10580 0.16386
v 0.67876 5.94897 -0.22863
v -0.00330 0.20744 1.25412
v -0.65090 6.19071 -0.36552
v 0.01942 7.59976 0.76002
v 0.52214 5.94110 0.65525
v 0.69389 6.01362 0.31435
v -0.72724 5.02265 0.01115
v 0.37540 5.53136 0.73376
v -0.53392 6.48759 -0.45642
v 0.17256 3.99725 -0.48415
v -0.61010 7.37862 0.05500
v 0.33951 3.98230 -0.38285
v 0.38002 7.15993 0.80494
v 0.56693 7.00393 0.51167
v 0.58141 6.46189 0.48509
v 0.53981 6.85225 0.62251
v 0.69467 6.40152 0.13242
v -0.07534 1.02240 0.26494
v -0.78098 5.92931 -0.12281
v -0.37567 7.15100 -0.31991
v 0.40963 3.29509 0.29652
v 0.22255 7.53468 0.67783
v -0.86430 6.95718 0.19481
v -0.82847 6.04861 0.52240
v -0.84637 6.73912 0.54523
v -0.75517 6.48301 -0.09685
v 0.09556 6.68230 1.01415
v -0.07883 6.50412 1.05252
v -0.78510 6.91832 -0.07456
v -0.07275 2.04502 0.24253
v 0.28667 3.60554 0.36550
v 0.45056 7.26190 0.49929
v -0.79343 7.11860 0.05273
v -0.21430 2.52330 0.29276
v -0.17100 3.33779 0.30455
v 0.49754 3.71473 -0.18330
v 0.51952 0.73368 -0.03048
v -0.57960 7.53772 0.66655
v -0.15915 7.08742 -0.40278
v -0.34598 5.89894 -0.62499
v -0.86888 0.29761 1.13473
v 0.37906 4.40402 -0.35600
v -0.04102 1.21120 0.19082
v 0.56772 3.06681 -0.45010
v 0.62300 6.24783 -0.34204
v 0.46536 0.31588 0.00743
v 0.54309 6.88413 -0.27586
v 0.16210 7.45274 0.85374
v 0.42666 1.76357 -0.39388
v 0.51712 1.86654 -0.18868
v 0.44844 0.23271 -0.08223
v 0.27497 6.84872 -0.50708
v -0.50499 0.62992 0.46716
v 0.34010 6.51170 0.86520
v -0.86791 6.47683 0.29218
v 0.09706 0.74981 0.44870
v -0.73177 0.13833 1.49723
v 0.34246 5.43927 -0.58116
v -0.09452 5.83828 0.97107
v -0.79574 0.27970 1.46821
v 0.36123 6.57721 -0.56602
v 0.26234 0.90219 -0.55568
v -0.38829 0.75319 -0.24438
v 0.05458 2.75066 -0.76676
v 0.17760 5.98341 -0.69020
v 0.35755 7.16654 -0.06759
v -0.60093 4.55838 0.13068
v -0.52767 6.99834 -0.38487
v -0.34428 7.01717 1.02430
v 0.09967 7.58400 0.54421
v 0.07734 6.64089 -0.69671
v -0.50981 5.28209 0.62987
v -0.85802 5.93526 0.16768
v -0.23731 0.84983 0.33567
v -0.37649 0.67831 -0.34465
v -0.18425 1.57289 0.08209
v -0.29595 3.34037 -0.55898
v -0.44522 7.63499 0.45130
v -0.53685 6.93148 0.93137
v -0.64144 6.03266 0.78761
v 0.56066 6.68846 -0.36051
v -0.08790 7.45578 0.95447
v 0.32787 0.23374 0.16720
v -0.83761 0.27392 1.54251
v -0.38879 7.45297 0.08305
v -0.14341 6.36216 -0.68933
v -0.44005 0.29400 1.44398
v -0.41042 0.13643 1.63841
v -0.50443 0.14887 1.57557
v -0.44870 0.20322 1.64294
v 0.07031 0.35575 1.18447
v -0.46855 0.24615 1.58530
v -0.40088 0.29511 1.56608
v -0.29256 0.44647 1.10676
v -0.07018 0.23956 -0.61452
v -0.58274 0.14641 1.08592
v 0.14830 0.47515 0.85179
v -0.12921 0.11399 1.46558
v -0.24972 0.21403 1.35364
v -0.27910 0.20888 1.43155
v -0.30937 0.14704 1.47506
v -0.26096 0.28371 1.40447
v -0.34623 0.12981 1.41806
v -0.05833 0.32113 1.37805
v -0.37842 0.36991 1.40126
v -0.45130 0.11149 1.58672
v -0.40932 0.12983 1.42123
v -0.35432 0.11567 1.52753
v -0.97338 0.24699 1.55505
v -0.37143 0.15598 1.38235
v -0.22895 0.18257 1.32392
v -0.39517 0.19412 1.24489
v -0.42473 0.23951 1.27573
v -0.42105 0.32045 1.28773
v -0.64046 0.12717 0.95181
v 0.05110 1.18906 -0.50564
v -0.38632 0.68133 -0.07645
v -0.31778 0.73533 -0.41885
v -0.26050 1.23827 -0.15277
v -0.23257 1.30886 -0.34798
v 0.10921 1.18341 0.19484
v -0.22449 0.05802 0.87090
v -0.15295 1.46368 -0.48494
v -0.27251 1.50544 -0.05094
v -0.22365 1.24091 0.01492
v 0.22861 0.28548 0.65462
v -0.36199 2.13953 -0.05268
v -0.32073 1.76612 -0.12743
v -0.46733 0.07823 0.63739
v -0.26767 1.07431 -0.31112
v -0.31750 0.33820 -0.41790
v 0.51905 0.58093 -0.21100
v 0.47938 0.95703 -0.11271
v 0.42799 1.23931 -0.05366
v 0.43126 1.26127 -0.32806
v 0.36975 1.31396 -0.40941
v -0.35875 0.05667 0.72047
v 0.48147 0.19105 -0.29595
v 0.14119 0.95956 0.28482
v 0.26538 1.17594 0.13064
v 0.20238 0.43139 0.75020
v 0.27713 0.39936 0.45390
v -1.15790 0.31890 1.16121
v -1.22769 0.30449 1.15742
v -0.51385 0.19629 1.55680
v -0.33893 0.17709 1.61027
v -0.29262 0.38672 1.35301
v -0.29389 0.31734 1.45005
v -0.74246 0.15253 1.57291
v -0.69875 0.17296 1.62327
v -0.69876 0.23540 1.63066
v -0.74395 0.23070 1.59903
v -0.56156 0.14632 1.55912
v -0.60407 0.18669 1.64487
v -0.64669 0.13560 1.61093
v -0.53519 0.20478 1.57442
v -0.10349 0.37802 1.33854
v -0.12549 0.18296 1.56769
v -0.44744 0.22171 1.62401
v -0.45482 0.26747 1.57861
v -0.47141 0.26284 1.53368
v -0.44358 0.28906 1.53042
v -0.78607 0.17958 1.46818
v -0.38663 0.26246 1.60755
v -0.82030 0.20558 1.57167
v -0.36283 0.25286 1.59920
v -0.34948 0.30243 1.55082
v -0.22651 0.27678 1.56369
v -0.20436 0.30889 1.53003
v -0.15282 0.25903 1.57677
v -0.19923 0.28937 1.54389
v -0.26717 0.27363 1.51289
v -0.28797 0.24652 1.53035
v -0.26284 0.19624 1.58595
v -0.20818 0.21756 1.60171
v -0.09648 0.31461 1.45052
v -0.21926 0.09874 1.45498
v -0.95794 0.16275 1.29947
v -0.90843 0.18898 1.14318
v -0.98645 0.17505 1.41871
v -0.86938 0.20801 1.19855
v -1.14713 0.20120 0.92622
v -0.50534 0.17766 1.47085
v -0.61529 0.11644 1.46528
v -0.07638 0.18798 1.37994
v -0.45295 0.15804 1.44651
v -0.24575 0.11372 1.53940
v -0.08435 0.19310 1.47372
v -0.26571 0.07167 0.65221
v 0.02840 0.13972 -0.15082
v -0.15612 1.07837 -0.44243
v -0.50367 0.58604 0.65114
v -0.27785 0.72114 0.53479
v -0.52678 0.14291 1.39288
v -0.58220 0.15398 1.32670
v -0.57808 0.14727 1.29179
v -0.66140 0.16986 1.32758
v -0.66097 0.13278 1.38644
v -0.49251 0.18516 1.40095
v -0.60839 0.13671 1.34361
v -0.67176 0.18348 1.30693
v -0.58348 0.39185 1.20552
v -0.24080 0.58794 0.80702
v -0.42840 0.39510 1.23002
v -0.22110 0.33880 1.39072
v -0.23491 0.38501 1.32538
v -0.06639 0.45921 1.06540
v 0.02765 0.47845 0.96771
v -0.28378 1.00250 0.03992
v -0.06913 0.82989 0.43235
v -0.18196 1.02558 0.18709
v -0.29921 2.00379 0.03217
v 0.50298 1.95720 -0.04769
v 0.27503 2.06046 0.21229
v 0.12550 1.48980 0.18365
v 0.41732 1.50579 -0.00539
v 0.18384 0.33916 0.89651
v 0.18308 0.19027 0.47451
v 0.17640 0.19988 0.55155
v 0.32639 0.43079 0.28629
v 0.35520 0.30209 0.23326
v 0.38458 0.20193 0.00080
v 0.54566 0.27733 -0.19574
v 0.30043 0.20786 0.15382
v -0.44198 0.17815 0.11708
v -0.68660 4.79879 0.12014
v -0.44221 0.34263 -0.14318
v -0.52513 0.34175 0.05433
v -0.40904 0.21476 0.01708
v -0.40792 0.21706 -0.11853
v -0.24970 0.16367 0.06317
v -0.33252 0.23261 -0.29469
v -0.27110 0.16654 -0.18613
v 0.49880 0.22199 -0.15238
v 0.38663 0.53524 0.09608
v 0.47718 0.53432 -0.08215
v -0.31167 0.12073 0.43801
v -0.36853 0.11383 0.50372
v -0.59059 0.10979 0.44538
v -0.08541 0.07475 0.67067
v 0.03689 0.13894 0.53731
v 0.13492 0.14569 0.70649
v 0.02586 0.16311 0.22622
v -0.14385 0.14851 0.37118
v -0.87400 0.20078 1.07952
v -0.26107 0.17037 0.24544
v 0.15725 0.17803 0.23327
v -0.07864 0.16011 -0.04618
v -0.27489 0.15568 -0.07412
v -0.09576 0.15835 0.04875
v 0.24746 0.14689 -0.18316
v 0.17949 0.14811 -0.39821
vn -0.7877 0.0085 -0.6160
vn -0.5736 0.1458 -0.8061
vn 0.1644 -0.5355 -0.8284
vn 0.0991 -0.9165 -0.3876
vn 0.6877 0.1712 -0.7055
vn 0.3541 0.1105 -0.9287
vn 0.9038 0.1043 -0.4151
vn 0.7231 0.1035 -0.6830
vn -0.0750 0.2739 -0.9588
vn 0.3026 0.0057 -0.9531
vn 0.9792 0.1143 -0.1679
vn 0.9368 0.2006 -0.2866
vn -0.2374 0.2446 -0.9401
vn 0.9551 0.1314 -0.2655
vn 0.9686 0.0865 -0.2332
vn 0.2042 -0.0184 -0.9788
vn 0.6062 -0.0326 -0.7946
vn -0.9041 -0.2437 -0.3510
vn -0.2478 0.8237 0.5100
vn -0.6646 -0.6183 -0.4195
vn -0.8250 -0.3310 -0.4581
vn -0.1502 -0.9418 -0.3007
vn 0.6494 -0.7537 0.1007
vn -0.4802 -0.8354 -0.2674
vn 0.0146 -0.9745 0.2239
vn 0.2715 -0.9552 -0.1177
vn -0.0044 0.9723 0.2336
vn -0.0786 0.7876 0.6112
vn 0.2882 0.9238 0.2520
vn -0.1453 0.9880 -0.0523
vn -0.9139 0.3608 -0.1863
vn -0.6752 -0.3763 -0.6345
vn -0.1595 0.8938 -0.4191
vn -0.5051 0.7967 -0.3319
vn 0.0000 -0.0000 0.0000
vn 0.1591 -0.8070 0.5687
vn 0.0159 0.9318 0.3626
vn 0.0235 0.9988 0.0426
vn 0.5087 -0.8316 0.2228
vn 0.0000 0.0000 0.0000
vn -0.6150 0.2977 0.7302
vn -0.2273 0.9338 0.2764
vn -0.2311 0.3543 0.9061
vn 0.2433 -0.8969 -0.3692
vn -0.1586 0.8865 0.4347
vn -0.1918 0.9268 0.3230
vn -0.1519 -0.2626 0.9529
vn 0.0533 0.7546 -0.6541
vn -0.4200 -0.8386 0.3469
vn 0.3280 0.9069 0.2644
vn -0.0004 0.9798 0.2000
vn 0.4804 -0.7689 0.4220
vn -0.5900 -0.1068 -0.8003
vn -0.0850 0.9912 -0.1013
vn 0.6743 0.6300 0.3853
vn -0.5805 -0.7172 -0.3855
vn 0.0912 -0.1631 -0.9824
vn -0.3585 -0.2123 -0.9091
vn 0.9223 -0.1340 -0.3624
vn 0.4197 -0.1673 -0.8921
vn -0.9291 -0.3481 -0.1249
vn 0.2829 0.2290 0.9314
vn 0.1637 -0.2378 0.9574
vn -0.7730 -0.1204 0.6228
vn -0.4529 -0.1920 0.8707
vn -0.4156 -0.1105 0.9028
vn 0.9832 -0.1198 0.1378
vn 0.8255 -0.2569 0.5026
vn 0.9762 -0.2124 -0.0434
vn -0.2953 -0.3534 0.8876
vn -0.9946 -0.0046 -0.1033
vn 0.9291 -0.2731 0.2495
vn -0.9445 -0.2056 -0.2564
vn -0.8802 -0.3469 0.3239
vn -0.1017 -0.3304 0.9383
vn -0.9795 -0.1914 0.0626
vn -0.9757 -0.2141 -0.0463
vn -0.4959 0.1889 -0.8476
vn -0.9515 0.0934 0.2931
vn -0.7822 -0.0770 -0.6182
vn -0.9609 -0.1742 0.2154
vn -0.8390 -0.2072 0.5032
vn -0.6329 -0.1708 0.7551
vn -0.3512 -0.3148 0.8818
vn -0.5864 -0.4492 0.6741
vn 0.8276 0.0706 0.5569
vn 0.3769 -0.2124 0.9016
vn 0.9126 -0.0507 0.4056
vn 0.8498 -0.2014 0.4872
vn 0.6433 -0.1155 0.7569
vn 0.5953 -0.2648 0.7586
vn -0.0001 -0.2160 0.9764
vn 0.6120 -0.2309 0.7564
vn 0.3513 -0.2569 0.9003
vn -0.1434 -0.1921 0.9708
vn 0.9031 0.1323 -0.4085
vn -0.6322 0.0347 -0.7740
vn 0.4751 -0.1118 -0.8728
vn -0.1669 -0.1081 -0.9800
vn -0.9687 -0.2413 -0.0583
vn -0.8312 -0.2240 0.5088
vn -0.5388 -0.0956 -0.8370
vn -0.9301 -0.2024 -0.3066
vn 0.0067 -0.9912 -0.1325
vn -0.0352 0.6745 0.7374
vn 0.3403 0.3178 0.8850
vn -0.4549 0.7164 0.5290
vn -0.1052 0.8760 0.4708
vn -0.4991 0.8661 0.0273
vn -0.5679 0.6897 0.4492
vn 0.4328 0.6719 0.6010
vn -0.1269 0.0272 0.9915
vn -0.3259 -0.9350 -0.1402
vn 0.3461 -0.9110 0.2242
vn -0.8387 -0.2613 0.4779
vn -0.8709 0.3986 -0.2875
vn 0.4255 0.6735 0.6045
vn -0.8426 0.3461 -0.4127
vn -0.1532 0.9872 0.0451
vn -0.0245 0.9818 -0.1882
vn -0.1710 0.9735 0.1518
vn 0.1880 -0.7528 0.6308
vn -0.4213 -0.7032 -0.5728
vn -0.7151 -0.1513 -0.6824
vn -0.2453 0.2622 -0.9333
vn -0.4051 0.8551 0.3236
vn 0.9082 -0.0228 -0.4179
vn 0.0181 0.9650 0.2616
vn -0.4933 0.8554 0.1580
vn -0.0990 0.9645 0.2447
vn 0.8042 0.3942 0.4448
vn -0.2516 0.8876 0.3858
vn -0.1536 0.9204 0.3595
vn -0.0711 -0.9697 0.2338
vn -0.8653 0.1368 -0.4823
vn -0.6841 0.7068 0.1803
vn 0.0069 0.9994 -0.0346
vn -0.7288 -0.3057 -0.6127
vn -0.2870 0.9400 -0.1843
vn -0.1145 -0.9874 0.1094
vn -0.3626 0.7530 -0.5492
vn 0.7105 0.5389 0.4525
vn 0.0100 0.8963 0.4433
vn 0.1726 0.9330 0.3158
vn -0.8138 0.4108 -0.4111
vn -0.2619 0.9581 0.1163
vn 0.9657 0.0257 0.2584
vn -0.0372 -0.9980 -0.0518
vn -0.4103 -0.8832 0.2273
vn -0.9905 -0.0126 -0.1370
vn 0.0348 -0.9440 0.3282
vn -0.1045 -0.9852 0.1357
vn -0.7011 -0.7086 -0.0802
vn 0.4716 -0.8689 0.1503
vn 0.4783 -0.7290 0.4898
vn 0.3204 -0.9373 0.1368
vn 0.8378 -0.1332 0.5295
vn 0.0794 -0.7095 0.7002
vn -0.9348 0.0423 -0.3527
vn -0.3169 0.8701 0.3776
vn -0.2196 0.9444 0.2449
vn 0.0535 0.9196 0.3892
vn -0.3470 0.9159 0.2019
vn 0.0334 0.9632 0.2668
vn -0.1902 0.9344 0.3012
vn -0.9453 0.2793 -0.1684
vn 0.1201 -0.9827 0.1409
vn 0.5307 0.3825 0.7564
vn -0.9266 0.3190 -0.1992
vn -0.2939 0.8924 0.3424
vn -0.4827 -0.8757 0.0113
vn 0.3160 -0.7896 0.5260
vn 0.5840 -0.1365 0.8002
vn -0.1346 -0.8012 0.5831
vn -0.4680 0.8816 0.0621
vn -0.2942 0.9499 0.1052
vn -0.6131 0.7716 -0.1695
vn -0.1856 -0.9641 -0.1898
vn -0.6122 -0.5307 0.5862
vn -0.8388 -0.3030 -0.4523
vn -0.9316 -0.2177 -0.2910
vn -0.3219 -0.2103 0.9231
vn -0.8910 -0.2943 -0.3456
vn -0.9341 0.0172 0.3566
vn -0.3869 -0.9151 -0.1137
vn -0.2438 -0.9698 -0.0093
vn 0.0129 -0.9755 0.2198
vn 0.0186 -0.9092 0.4160
vn -0.3899 -0.8641 -0.3182
vn -0.8700 -0.0810 -0.4863
vn -0.7514 0.4628 -0.4702
vn 0.1818 -0.9833 0.0069
vn -0.8019 0.5715 -0.1740
vn -0.9421 0.2552 -0.2174
vn -0.7726 0.2822 -0.5688
vn -0.6331 0.7568 -0.1626
vn -0.6423 0.7193 -0.2647
vn -0.5884 -0.6232 -0.5151
vn 0.8731 -0.4770 0.1006
vn 0.7985 -0.4759 0.3686
vn -0.7534 -0.1616 -0.6374
vn -0.8235 -0.1009 -0.5582
vn 0.0658 -0.9898 0.1267
vn 0.0981 -0.9743 0.2027
vn 0.1611 0.5370 0.8280
vn 0.4091 -0.8570 0.3134
vn 0.2714 -0.9606 0.0594
vn 0.7433 -0.5712 0.3483
vn -0.8860 -0.2328 -0.4011
vn 0.7637 -0.6066 0.2211
vn -0.0482 -0.9806 -0.1901
vn -0.4725 -0.7251 -0.5010
vn -0.7908 0.4525 -0.4122
vn -0.6988 -0.5670 -0.4361
vn -0.1539 -0.9468 0.2827
vn -0.0719 -0.9640 0.2561
vn -0.3798 -0.8285 -0.4114
vn -0.5680 0.8086 -0.1534
vn -0.6239 -0.6862 -0.3740
vn 0.4790 -0.8695 0.1205
vn -0.4108 0.9107 0.0435
vn -0.4689 0.8806 0.0690
vn -0.1090 -0.9735 0.2010
vn 0.3652 -0.8065 -0.4649
vn -0.0983 -0.9796 -0.1754
vn 0.8510 -0.3751 -0.3675
vn 0.6043 -0.2267 -0.7639
vn 0.8748 -0.2076 -0.4379
vn -0.9196 -0.1856 -0.3463
vn -0.6345 -0.1830 -0.7509
vn 0.6943 -0.1883 0.6946
vn -0.8714 -0.0864 -0.4829
vn -0.8619 0.0943 -0.4983
vn -0.9974 -0.0186 -0.0693
vn 0.9833 -0.1649 0.0771
vn 0.5239 0.2436 -0.8162
vn 0.9499 0.1868 -0.2505
vn 0.3568 0.2386 -0.9032
vn 0.6416 -0.0141 -0.7669
vn 0.3382 -0.0987 -0.9359
vn -0.2666 -0.1573 -0.9509
vn -0.5407 0.0524 -0.8396
vn 0.8755 -0.0904 -0.4747
vn 0.1191 -0.2190 -0.9684
vn 0.5826 -0.2080 -0.7857
vn -0.3325 -0.1205 -0.9354
vn 0.1236 0.2389 -0.9632
vn -0.3265 0.2387 -0.9146
vn 0.7919 0.2368 -0.5628
vn -0.0574 -0.1197 -0.9912
vn -0.2266 -0.0035 -0.9740
vn 0.9914 -0.0370 0.1258
vn 0.9768 0.1825 0.1123
vn -0.1483 0.2153 -0.9652
vn 0.3588 0.1583 -0.9199
vn 0.7343 0.2028 0.6479
vn 0.1462 0.8548 0.4979
vn 0.7743 0.0014 0.6328
vn -0.9552 0.0699 -0.2875
vn 0.8515 0.3964 0.3432
vn -0.7935 0.6055 0.0618
vn 0.7411 0.2269 0.6319
vn -0.2750 -0.1364 -0.9517
vn -0.3869 0.9214 0.0376
vn 0.0155 0.9990 0.0410
vn 0.9986 -0.0290 0.0442
vn 0.7905 -0.0960 -0.6049
vn 0.8962 -0.1278 -0.4249
vn 0.6237 -0.0002 -0.7817
vn -0.6687 0.1204 0.7337
vn -0.0884 -0.0558 -0.9945
vn -0.4015 -0.2421 0.8833
vn -0.1354 0.0654 -0.9886
vn 0.4699 0.1288 0.8733
vn -0.8807 0.1027 0.4623
vn -0.8310 0.5504 -0.0801
vn -0.9689 0.2205 0.1122
vn 0.0683 -0.0026 0.9977
vn -0.6688 0.2855 0.6865
vn -0.2580 0.3004 0.9182
vn 0.1294 0.1104 0.9854
vn -0.2402 0.7685 0.5931
vn -0.3732 -0.0905 0.9233
vn 0.1605 -0.0587 0.9853
vn -0.7607 -0.1794 -0.6239
vn 0.8221 -0.1568 0.5473
vn -0.8969 0.0368 0.4407
vn 0.0894 -0.1845 0.9788
vn 0.5925 -0.0961 0.7998
vn -0.8240 0.0145 -0.5664
vn -0.9684 0.1314 -0.2119
vn -0.3086 -0.0984 -0.9461
vn 0.8915 -0.0873 -0.4446
vn 0.9028 0.4244 -0.0694
vn -0.4068 -0.0716 -0.9107
vn -0.0328 0.5632 -0.8257
vn 0.9965 0.0087 0.0835
vn -0.9110 -0.2167 0.3508
vn -0.7742 0.6130 0.1573
vn -0.7813 -0.2442 0.5744
vn 0.5200 -0.1451 0.8417
vn 0.9717 0.1109 0.2085
vn 0.8663 0.0559 0.4963
vn -0.9794 -0.1971 -0.0433
vn 0.9823 0.0939 0.1622
vn 0.9386 -0.1281 0.3204
vn -0.1376 -0.1587 0.9777
vn -0.7249 -0.1150 -0.6792
vn -0.2300 0.0355 0.9725
vn -0.8169 -0.1130 0.5656
vn 0.7453 -0.1402 -0.6519
vn -0.6741 0.0405 0.7375
vn -0.1445 -0.2708 0.9517
vn -0.0589 0.9812 0.1840
vn -0.3317 -0.2783 0.9014
vn 0.7940 0.2633 -0.5480
vn 0.1798 -0.1501 -0.9722
vn 0.0392 -0.1268 -0.9912
vn -0.1612 -0.0807 -0.9836
vn -0.9065 -0.1236 -0.4038
vn -0.1039 0.3152 -0.9433
vn -0.9769 -0.1289 -0.1701
vn -0.3120 -0.0884 0.9460
vn -0.4575 -0.2829 0.8430
vn -0.6862 -0.1673 0.7079
vn -0.9789 -0.1678 -0.1170
vn 0.5930 0.7367 -0.3251
vn 0.9722 -0.1272 -0.1965
vn 0.9732 0.1237 -0.1936
vn -0.4121 -0.1247 -0.9025
vn -0.6783 -0.1819 0.7119
vn -0.7581 -0.0213 0.6518
vn -0.9939 0.0793 -0.0773
vn -0.3769 0.8795 -0.2906
vn -0.4117 0.1569 -0.8977
vn -0.9724 -0.1177 0.2014
vn -0.0740 -0.2498 0.9655
vn 0.0530 -0.9915 -0.1186
vn 0.7134 -0.0451 0.6994
vn 0.4116 -0.2001 0.8891
vn 0.1011 -0.2188 0.9705
vn 0.4355 -0.1078 0.8937
vn 0.9997 -0.0066 0.0242
vn -0.9319 -0.1408 -0.3344
vn -0.6659 -0.1532 -0.7301
vn -0.7887 -0.2434 -0.5645
vn 0.7472 -0.1504 0.6474
vn 0.9070 -0.2492 0.3395
vn 0.9102 -0.0678 0.4086
vn 0.9980 -0.0621 -0.0124
vn 0.9639 -0.0377 -0.2635
vn 0.8092 -0.3326 0.4844
vn -0.7816 0.0191 -0.6235
vn 0.1537 0.8914 0.4263
vn 0.8034 -0.0361 0.5943
vn 0.9301 0.0250 0.3664
vn -0.9860 -0.1561 -0.0581
vn 0.6439 -0.1261 0.7547
vn -0.6850 0.0621 -0.7259
vn 0.2725 0.0926 -0.9577
vn -0.5066 0.6593 -0.5556
vn 0.7623 0.0865 -0.6414
vn 0.7882 0.2422 0.5658
vn 0.9226 0.2809 0.2644
vn 0.8955 0.0336 0.4437
vn 0.8924 0.0025 0.4512
vn 0.9966 0.0514 0.0651
vn -0.2206 0.5442 0.8094
vn -0.9358 -0.0098 -0.3523
vn -0.1934 0.7254 -0.6606
vn 0.5857 0.0366 0.8097
vn 0.7049 0.7065 0.0630
vn -0.9948 0.0540 -0.0867
vn -0.9448 -0.1035 0.3109
vn -0.9662 0.0190 0.2573
vn -0.9273 0.0356 -0.3726
vn 0.4049 0.0125 0.9143
vn 0.0195 -0.0533 0.9984
vn -0.8886 0.0438 -0.4565
vn -0.2771 -0.1992 0.9399
vn 0.5852 -0.0345 0.8102
vn 0.8153 0.5724 0.0872
vn -0.8168 0.3957 -0.4198
vn -0.5653 -0.1391 0.8131
vn -0.4702 0.0158 0.8824
vn 0.9532 0.1829 -0.2407
vn 0.9918 0.0692 0.1075
vn -0.4495 0.8164 0.3626
vn 0.1872 0.7825 -0.5938
vn -0.5134 -0.0189 -0.8580
vn 0.8752 -0.1370 0.4640
vn 0.7205 -0.0367 -0.6925
vn -0.1571 0.1993 0.9673
vn 0.7168 0.2274 -0.6591
vn 0.8575 0.0306 -0.5136
vn 0.9176 0.0242 0.3969
vn 0.7020 0.4520 -0.5504
vn 0.5258 0.5365 0.6601
vn 0.7333 -0.1703 -0.6582
vn 0.9790 -0.1823 0.0908
vn 0.5132 -0.8334 0.2052
vn 0.3382 0.6286 -0.7003
vn -0.5458 0.8202 0.1713
vn 0.7052 -0.0008 0.7090
vn -0.9948 -0.0147 -0.1011
vn 0.5512 0.6374 0.5384
vn -0.5467 -0.8361 -0.0454
vn 0.5327 -0.1398 -0.8347
vn -0.0678 -0.1795 0.9814
vn 0.7618 0.5417 0.3553
vn 0.5670 0.1310 -0.8132
vn 0.2344 0.2939 -0.9266
vn -0.9778 0.2088 -0.0172
vn -0.0256 0.0237 -0.9994
vn 0.2293 -0.0337 -0.9728
vn 0.2648 0.8149 -0.5156
vn -0.9599 -0.2549 0.1170
vn -0.6313 0.3592 -0.6873
vn -0.2555 0.0775 0.9637
vn 0.2854 0.8835 -0.3714
vn 0.1335 0.2075 -0.9691
vn -0.6141 -0.2779 0.7387
vn -0.9940 -0.0670 -0.0866
vn -0.5295 0.7261 0.4386
vn -0.9215 0.0864 -0.3786
vn -0.6883 -0.0767 0.7213
vn -0.6461 0.2008 -0.7364
vn 0.0002 0.9754 -0.2204
vn -0.5738 0.0428 0.8179
vn -0.6396 -0.1850 0.7461
vn 0.7955 0.1607 -0.5843
vn 0.1508 0.4869 0.8603
vn 0.6247 -0.7046 0.3364
vn 0.4667 0.7359 0.4906
vn 0.1247 0.8529 -0.5069
vn -0.2717 0.0335 -0.9618
vn -0.9649 0.1529 -0.2135
vn 0.0913 -0.6363 0.7661
vn -0.7827 -0.6054 0.1445
vn -0.5780 0.0500 0.8145
vn 0.8225 0.3229 0.4681
vn -0.7435 0.5054 0.4379
vn -0.2019 0.8505 0.4857
vn -0.1642 0.9305 0.3274
vn -0.1929 -0.6986 -0.6890
vn -0.1229 -0.9631 0.2396
vn 0.5871 0.6982 0.4096
vn 0.5722 -0.8200 -0.0130
vn -0.9594 -0.2663 -0.0927
vn 0.9389 -0.1302 0.3186
vn 0.8101 -0.5696 0.1390
vn -0.6385 0.4502 0.6242
vn 0.2602 -0.9303 -0.2586
vn 0.8673 0.1258 0.4815
vn -0.2898 0.9253 0.2448
vn -0.2071 -0.9779 0.0287
vn -0.3286 -0.8915 -0.3119
vn 0.3226 -0.9392 0.1175
vn -0.3925 0.6135 0.6852
vn -0.2811 -0.9387 -0.1995
vn -0.3140 -0.9494 -0.0052
vn -0.5043 -0.8631 0.0269
vn -0.1520 -0.8229 0.5475
vn 0.7612 0.2571 0.5953
vn -0.0045 -0.9688 0.2479
vn -0.0799 0.0247 -0.9965
vn -0.9405 0.3129 -0.1323
vn -0.6965 0.1650 -0.6983
vn -0.9951 0.0956 0.0258
vn -0.8732 -0.0820 -0.4804
vn 0.2582 0.1387 0.9561
vn 0.0777 -0.9953 0.0582
vn -0.6470 -0.1624 -0.7450
vn -0.9126 -0.1051 0.3951
vn -0.9045 0.1313 0.4057
vn 0.9592 -0.2197 0.1777
vn -0.9632 -0.1804 0.1993
vn -0.9897 -0.1351 0.0477
vn 0.0333 -0.9832 -0.1793
vn -0.8828 0.2334 -0.4077
vn -0.8282 -0.0536 -0.5579
vn 0.9930 0.0681 0.0968
vn 0.9850 0.1255 0.1181
vn 0.8876 0.0505 0.4578
vn 0.8898 0.0011 -0.4564
vn 0.6858 -0.0329 -0.7271
vn -0.0432 -0.9991 0.0014
vn 0.3546 -0.9223 -0.1534
vn 0.4863 0.3551 0.7983
vn 0.6439 0.0701 0.7619
vn 0.9030 0.3483 0.2516
vn 0.9513 0.1628 0.2617
vn -0.2129 0.9740 0.0771
vn -0.5781 0.6376 -0.5092
vn -0.9706 0.1609 -0.1789
vn 0.8757 -0.0851 0.4753
vn -0.0315 0.9511 0.3072
vn 0.7829 0.3429 0.5192
vn -0.7994 -0.5330 0.2772
vn -0.3634 -0.3013 0.8816
vn -0.3487 0.3188 0.8813
vn -0.8214 0.0716 0.5659
vn 0.5146 -0.8079 0.2872
vn 0.3809 -0.4323 0.8173
vn -0.0231 -0.9449 0.3266
vn 0.8638 0.0600 0.5002
vn 0.2312 0.8978 0.3747
vn 0.7984 -0.1241 0.5893
vn -0.2289 0.6508 0.7239
vn -0.4279 0.7744 0.4661
vn -0.7454 0.6607 0.0881
vn -0.7200 0.6826 0.1252
vn 0.9276 -0.2512 0.2764
vn -0.0225 0.6595 0.7514
vn 0.7487 -0.2407 0.6176
vn 0.5415 0.4834 0.6878
vn 0.4403 0.7291 0.5239
vn -0.3610 0.6150 0.7011
vn -0.0427 0.9152 0.4008
vn 0.4858 0.5214 0.7016
vn -0.2297 0.7753 0.5884
vn -0.6460 0.7040 0.2951
vn -0.9911 0.1242 -0.0471
vn -0.6016 -0.1018 0.7923
vn 0.0647 0.0031 0.9979
vn 0.6790 0.5405 0.4968
vn -0.3085 -0.9240 -0.2261
vn 0.7833 -0.5330 0.3200
vn 0.6097 -0.7711 0.1835
vn -0.8516 -0.4591 -0.2530
vn -0.9582 -0.1964 -0.2079
vn -0.8989 0.1727 -0.4027
vn 0.9273 -0.1630 0.3369
vn 0.0566 -0.9982 0.0179
vn 0.8014 -0.5661 0.1931
vn -0.8133 -0.3791 -0.4413
vn -0.4756 -0.7740 0.4180
vn 0.9466 -0.1332 0.2936
vn 0.0157 -0.9846 -0.1743
vn -0.0100 -0.9996 0.0259
vn -0.5705 0.1358 -0.8100
vn -0.2833 0.8942 0.3465
vn -0.2293 0.8656 0.4452
vn 0.4199 -0.9075 -0.0123
vn 0.0124 -0.9812 -0.1928
vn -0.2328 -0.9609 -0.1498
vn -0.5166 -0.7672 -0.3801
vn -0.4380 -0.8490 -0.2955
vn 0.8957 -0.3647 0.2544
vn 0.0653 -0.9425 -0.3279
vn -0.8310 -0.3708 -0.4146
vn -0.4426 0.8920 0.0922
vn -0.0573 0.9013 0.4294
vn 0.3458 0.8649 0.3639
vn -0.2287 0.8851 0.4053
vn 0.0909 0.9116 0.4009
vn 0.1142 0.9384 0.3260
vn 0.3090 0.8651 0.3951
vn -0.9182 0.3295 0.2200
vn 0.0060 0.7460 0.6660
vn -0.6926 0.4340 0.5762
vn -0.8730 -0.1756 0.4550
vn 0.8735 -0.1924 0.4472
vn 0.4524 -0.1717 0.8751
vn 0.1649 -0.0738 0.9835
vn 0.8826 -0.0894 0.4616
vn 0.9540 0.0445 0.2966
vn 0.4397 -0.8973 0.0394
vn 0.6565 -0.7515 -0.0646
vn 0.8930 0.2060 0.4002
vn 0.8943 -0.1893 0.4055
vn 0.3865 -0.9097 0.1518
vn 0.9681 -0.1350 0.2113
vn 0.2985 -0.9364 0.1843
vn -0.2652 -0.9429 -0.2013
vn -0.9491 -0.2531 0.1875
vn -0.9140 0.0293 -0.4046
vn -0.8638 -0.0208 -0.5033
vn -0.5070 -0.8305 -0.2307
vn -0.6973 -0.6552 -0.2907
vn -0.0987 -0.9947 -0.0303
vn -0.7840 -0.5635 -0.2603
vn -0.4476 -0.8679 -0.2156
vn 0.4738 -0.8374 0.2725
vn 0.8690 0.0201 0.4944
vn 0.9156 -0.1153 0.3852
vn 0.0436 -0.9761 -0.2131
vn 0.0120 -0.9798 -0.1995
vn -0.0922 -0.9433 -0.3190
vn 0.1664 -0.9772 -0.1322
vn 0.2337 -0.9628 -0.1358
vn 0.4145 -0.9057 -0.0888
vn 0.0772 -0.9959 -0.0465
vn 0.0645 -0.9791 -0.1928
vn -0.4389 -0.8594 0.2624
vn 0.0148 -0.9975 -0.0695
vn 0.1638 -0.9825 0.0887
vn -0.0343 -0.9968 0.0717
vn -0.1354 -0.9908 0.0027
vn -0.0054 -0.9991 0.0431
vn 0.1684 -0.9827 0.0767
vn 0.0717 -0.9916 -0.1078
f 468//468 425//425 480//480
f 1//1 425//425 468//468
f 3//3 4//4 445//445
f 445//445 97//97 319//319
f 4//4 3//3 224//224
f 573//573 488//488 226//226
f 227//227 226//226 224//224
f 224//224 226//226 488//488
f 226//226 227//227 7//7
f 6//6 227//227 3//3
f 6//6 319//319 321//321
f 7//7 12//12 11//11
f 266//266 15//15 485//485
f 485//485 96//96 5//5
f 482//482 11//11 12//12
f 466//466 412//412 9//9
f 14//14 96//96 15//15
f 586//586 482//482 387//387
f 6//6 412//412 316//316
f 5//5 486//486 485//485
f 483//483 15//15 266//266
f 316//316 12//12 7//7
f 9//9 412//412 321//321
f 8//8 6//6 316//316
f 387//387 14//14 15//15
f 77//77 73//73 100//100
f 12//12 96//96 14//14
f 9//9 321//321 125//125
f 290//290 71//71 73//73
f 9//9 125//125 13//13
f 291//291 71//71 290//290
f 541//541 466//466 13//13
f 73//73 76//76 100//100
f 71//71 76//76 73//73
f 251//251 330//330 99//99
f 96//96 316//316 5//5
f 295//295 290//290 308//308
f 13//13 466//466 9//9
f 198//198 97//97 445//445
f 412//412 466//466 10//10
f 125//125 97//97 2//2
f 251//251 78//78 295//295
f 321//321 319//319 125//125
f 486//486 5//5 10//10
f 3//3 227//227 224//224
f 488//488 4//4 224//224
f 227//227 6//6 8//8
f 6//6 3//3 319//319
f 13//13 2//2 541//541
f 445//445 319//319 3//3
f 7//7 8//8 316//316
f 412//412 5//5 316//316
f 368//368 560//560 489//489
f 480//480 541//541 468//468
f 97//97 125//125 319//319
f 412//412 10//10 5//5
f 96//96 12//12 316//316
f 226//226 7//7 11//11
f 480//480 425//425 413//413
f 1//1 468//468 2//2
f 12//12 14//14 482//482
f 96//96 485//485 15//15
f 412//412 6//6 321//321
f 7//7 227//227 8//8
f 573//573 226//226 11//11
f 482//482 396//396 573//573
f 602//602 488//488 601//601
f 396//396 584//584 573//573
f 601//601 584//584 401//401
f 208//208 401//401 396//396
f 488//488 573//573 584//584
f 225//225 599//599 583//583
f 209//209 583//583 580//580
f 583//583 209//209 582//582
f 1//1 481//481 209//209
f 317//317 98//98 250//250
f 482//482 14//14 387//387
f 482//482 573//573 11//11
f 417//417 101//101 576//576
f 217//217 575//575 211//211
f 217//217 123//123 138//138
f 214//214 217//217 138//138
f 589//589 217//217 211//211
f 214//214 575//575 217//217
f 492//492 571//571 570//570
f 492//492 570//570 260//260
f 475//475 469//469 559//559
f 208//208 396//396 571//571
f 571//571 210//210 433//433
f 572//572 401//401 208//208
f 571//571 433//433 208//208
f 433//433 572//572 208//208
f 572//572 433//433 574//574
f 396//396 401//401 584//584
f 572//572 574//574 601//601
f 570//570 396//396 585//585
f 210//210 568//568 597//597
f 491//491 476//476 492//492
f 396//396 570//570 571//571
f 574//574 210//210 597//597
f 492//492 210//210 571//571
f 210//210 492//492 476//476
f 209//209 481//481 582//582
f 2//2 468//468 541//541
f 564//564 288//288 565//565
f 331//331 310//310 562//562
f 424//424 560//560 368//368
f 393//393 270//270 368//368
f 323//323 426//426 270//270
f 475//475 559//559 561//561
f 489//489 393//393 368//368
f 162//162 558//558 257//257
f 445//445 225//225 198//198
f 557//557 507//507 558//558
f 507//507 557//557 556//556
f 554//554 133//133 130//130
f 133//133 132//132 130//130
f 133//133 444//444 553//553
f 133//133 497//497 444//444
f 555//555 507//507 556//556
f 170//170 552//552 165//165
f 162//162 497//497 557//557
f 554//554 129//129 133//133
f 557//557 497//497 556//556
f 132//132 133//133 553//553
f 159//159 551//551 547//547
f 487//487 472//472 223//223
f 547//547 545//545 550//550
f 550//550 545//545 154//154
f 544//544 550//550 154//154
f 183//183 159//159 547//547
f 547//547 548//548 183//183
f 548//548 534//534 407//407
f 1//1 97//97 481//481
f 550//550 548//548 547//547
f 551//551 546//546 547//547
f 97//97 198//198 481//481
f 546//546 545//545 547//547
f 534//534 550//550 544//544
f 586//586 585//585 396//396
f 575//575 581//581 211//211
f 544//544 154//154 533//533
f 154//154 463//463 549//549
f 558//558 441//441 447//447
f 542//542 165//165 160//160
f 165//165 161//161 164//164
f 552//552 163//163 165//165
f 222//222 161//161 542//542
f 445//445 4//4 225//225
f 601//601 574//574 597//597
f 487//487 223//223 140//140
f 543//543 132//132 553//553
f 542//542 543//543 403//403
f 451//451 220//220 450//450
f 222//222 221//221 161//161
f 543//543 257//257 560//560
f 165//165 132//132 160//160
f 26//26 25//25 529//529
f 565//565 323//323 393//393
f 564//564 565//565 289//289
f 270//270 393//393 323//323
f 368//368 561//561 424//424
f 561//561 559//559 424//424
f 220//220 453//453 460//460
f 539//539 590//590 472//472
f 565//565 393//393 471//471
f 29//29 434//434 410//410
f 559//559 261//261 424//424
f 270//270 475//475 561//561
f 476//476 491//491 567//567
f 136//136 30//30 31//31
f 259//259 209//209 577//577
f 289//289 566//566 563//563
f 231//231 289//289 563//563
f 424//424 261//261 403//403
f 38//38 34//34 36//36
f 31//31 34//34 494//494
f 472//472 590//590 207//207
f 393//393 489//489 471//471
f 30//30 33//33 141//141
f 141//141 35//35 33//33
f 34//34 32//32 36//36
f 40//40 38//38 32//32
f 30//30 32//32 34//34
f 38//38 494//494 34//34
f 32//32 38//38 40//40
f 368//368 270//270 561//561
f 39//39 141//141 38//38
f 31//31 30//30 34//34
f 35//35 141//141 33//33
f 141//141 39//39 32//32
f 36//36 32//32 38//38
f 32//32 30//30 141//141
f 38//38 32//32 39//39
f 426//426 331//331 474//474
f 451//451 453//453 220//220
f 533//533 154//154 549//549
f 140//140 479//479 487//487
f 140//140 465//465 203//203
f 579//579 581//581 575//575
f 583//583 599//599 580//580
f 407//407 183//183 548//548
f 601//601 488//488 584//584
f 601//601 401//401 572//572
f 140//140 203//203 479//479
f 491//491 447//447 567//567
f 577//577 578//578 118//118
f 569//569 568//568 476//476
f 546//546 154//154 545//545
f 210//210 574//574 433//433
f 581//581 579//579 599//599
f 465//465 215//215 187//187
f 43//43 45//45 42//42
f 199//199 592//592 569//569
f 472//472 487//487 539//539
f 567//567 199//199 476//476
f 323//323 565//565 288//288
f 590//590 591//591 592//592
f 472//472 204//204 216//216
f 580//580 578//578 577//577
f 46//46 42//42 45//45
f 217//217 589//589 123//123
f 51//51 42//42 46//46
f 47//47 51//51 46//46
f 46//46 44//44 47//47
f 471//471 289//289 565//565
f 460//460 453//453 457//457
f 203//203 465//465 187//187
f 465//465 140//140 223//223
f 576//576 103//103 417//417
f 18//18 460//460 457//457
f 539//539 587//587 590//590
f 2//2 97//97 1//1
f 43//43 143//143 45//45
f 132//132 165//165 163//163
f 48//48 46//46 45//45
f 44//44 46//46 48//48
f 47//47 44//44 48//48
f 141//141 33//33 494//494
f 143//143 53//53 49//49
f 48//48 49//49 47//47
f 47//47 49//49 51//51
f 124//124 138//138 123//123
f 38//38 141//141 494//494
f 53//53 52//52 49//49
f 117//117 50//50 143//143
f 51//51 49//49 52//52
f 49//49 48//48 143//143
f 143//143 54//54 53//53
f 54//54 51//51 52//52
f 143//143 50//50 54//54
f 53//53 54//54 52//52
f 557//557 558//558 162//162
f 132//132 542//542 160//160
f 55//55 51//51 54//54
f 130//130 132//132 163//163
f 170//170 165//165 164//164
f 54//54 50//50 137//137
f 223//223 446//446 465//465
f 51//51 55//55 137//137
f 55//55 56//56 137//137
f 54//54 56//56 55//55
f 486//486 10//10 60//60
f 57//57 58//58 244//244
f 486//486 60//60 399//399
f 457//457 456//456 439//439
f 457//457 453//453 458//458
f 458//458 456//456 457//457
f 178//178 180//180 24//24
f 24//24 25//25 178//178
f 26//26 178//178 25//25
f 588//588 587//587 539//539
f 198//198 583//583 582//582
f 215//215 188//188 187//187
f 578//578 214//214 138//138
f 188//188 215//215 595//595
f 529//529 188//188 595//595
f 531//531 595//595 185//185
f 529//529 391//391 528//528
f 529//529 25//25 188//188
f 531//531 391//391 595//595
f 391//391 529//529 595//595
f 579//579 575//575 214//214
f 580//580 579//579 578//578
f 19//19 37//37 146//146
f 520//520 518//518 525//525
f 525//525 518//518 524//524
f 518//518 522//522 524//524
f 523//523 524//524 522//522
f 452//452 523//523 522//522
f 522//522 521//521 519//519
f 215//215 465//465 167//167
f 522//522 518//518 521//521
f 520//520 519//519 521//521
f 518//518 520//520 521//521
f 27//27 37//37 29//29
f 443//443 514//514 516//516
f 443//443 516//516 517//517
f 442//442 510//510 511//511
f 440//440 509//509 442//442
f 509//509 62//62 514//514
f 509//509 440//440 62//62
f 534//534 548//548 550//550
f 512//512 511//511 443//443
f 105//105 110//110 501//501
f 442//442 511//511 495//495
f 308//308 290//290 73//73
f 103//103 320//320 73//73
f 103//103 77//77 417//417
f 576//576 298//298 357//357
f 308//308 73//73 320//320
f 263//263 250//250 330//330
f 202//202 308//308 320//320
f 250//250 251//251 99//99
f 76//76 71//71 291//291
f 311//311 69//69 293//293
f 93//93 91//91 68//68
f 68//68 91//91 89//89
f 93//93 94//94 91//91
f 346//346 202//202 103//103
f 89//89 91//91 90//90
f 90//90 88//88 89//89
f 292//292 271//271 318//318
f 87//87 381//381 90//90
f 85//85 83//83 84//84
f 80//80 102//102 345//345
f 82//82 85//85 74//74
f 85//85 65//65 64//64
f 72//72 348//348 68//68
f 79//79 82//82 76//76
f 84//84 70//70 85//85
f 76//76 74//74 100//100
f 291//291 79//79 76//76
f 348//348 69//69 328//328
f 81//81 417//417 77//77
f 74//74 76//76 82//82
f 64//64 74//74 85//85
f 70//70 75//75 95//95
f 65//65 85//85 70//70
f 328//328 350//350 348//348
f 69//69 67//67 293//293
f 252//252 306//306 88//88
f 67//67 306//306 252//252
f 69//69 306//306 67//67
f 66//66 95//95 92//92
f 66//66 324//324 325//325
f 64//64 65//65 66//66
f 408//408 415//415 269//269
f 16//16 250//250 98//98
f 411//411 431//431 395//395
f 92//92 313//313 66//66
f 92//92 95//95 94//94
f 95//95 65//65 70//70
f 75//75 87//87 63//63
f 94//94 63//63 87//87
f 75//75 70//70 84//84
f 81//81 74//74 64//64
f 417//417 81//81 101//101
f 100//100 81//81 77//77
f 510//510 442//442 509//509
f 510//510 509//509 443//443
f 495//495 440//440 442//442
f 496//496 517//517 516//516
f 410//410 513//513 147//147
f 131//131 128//128 111//111
f 105//105 111//111 108//108
f 108//108 107//107 105//105
f 62//62 516//516 514//514
f 126//126 109//109 166//166
f 126//126 107//107 108//108
f 501//501 110//110 502//502
f 443//443 511//511 510//510
f 502//502 110//110 166//166
f 551//551 169//169 153//153
f 112//112 515//515 205//205
f 158//158 112//112 115//115
f 149//149 158//158 115//115
f 515//515 434//434 205//205
f 43//43 117//117 143//143
f 42//42 51//51 30//30
f 48//48 45//45 143//143
f 464//464 554//554 131//131
f 105//105 106//106 111//111
f 136//136 184//184 41//41
f 136//136 41//41 42//42
f 554//554 130//130 128//128
f 183//183 407//407 166//166
f 152//152 154//154 546//546
f 43//43 42//42 41//41
f 166//166 110//110 126//126
f 549//549 464//464 533//533
f 131//131 533//533 464//464
f 181//181 31//31 135//135
f 135//135 31//31 494//494
f 110//110 107//107 126//126
f 152//152 546//546 153//153
f 182//182 43//43 41//41
f 30//30 136//136 42//42
f 166//166 407//407 499//499
f 56//56 54//54 137//137
f 184//184 136//136 31//31
f 197//197 118//118 195//195
f 41//41 184//184 182//182
f 512//512 437//437 511//511
f 137//137 30//30 51//51
f 117//117 144//144 50//50
f 169//169 159//159 166//166
f 159//159 169//169 551//551
f 531//531 185//185 20//20
f 446//446 223//223 152//152
f 411//411 402//402 397//397
f 168//168 155//155 153//153
f 152//152 153//153 446//446
f 153//153 155//155 446//446
f 551//551 153//153 546//546
f 167//167 446//446 155//155
f 296//296 402//402 421//421
f 168//168 142//142 157//157
f 157//157 155//155 168//168
f 185//185 156//156 104//104
f 421//421 436//436 335//335
f 27//27 146//146 37//37
f 128//128 131//131 554//554
f 346//346 345//345 202//202
f 170//170 169//169 552//552
f 552//552 130//130 163//163
f 552//552 109//109 130//130
f 80//80 346//346 344//344
f 109//109 128//128 130//130
f 152//152 223//223 151//151
f 116//116 194//194 21//21
f 168//168 170//170 164//164
f 169//169 170//170 168//168
f 155//155 157//157 156//156
f 153//153 169//169 168//168
f 66//66 325//325 64//64
f 94//94 95//95 63//63
f 345//345 346//346 80//80
f 157//157 142//142 147//147
f 184//184 31//31 181//181
f 167//167 155//155 156//156
f 72//72 69//69 348//348
f 27//27 264//264 146//146
f 494//494 191//191 135//135
f 173//173 117//117 43//43
f 447//447 406//406 257//257
f 491//491 406//406 447//447
f 406//406 560//560 257//257
f 582//582 481//481 198//198
f 543//543 560//560 424//424
f 68//68 89//89 72//72
f 301//301 284//284 288//288
f 282//282 388//388 279//279
f 278//278 87//87 337//337
f 86//86 88//88 90//90
f 428//428 334//334 388//388
f 528//528 192//192 529//529
f 103//103 344//344 346//346
f 388//388 334//334 276//276
f 384//384 331//331 380//380
f 197//197 196//196 118//118
f 166//166 159//159 183//183
f 216//216 151//151 223//223
f 20//20 185//185 21//21
f 190//190 213//213 201//201
f 472//472 216//216 223//223
f 411//411 397//397 431//431
f 402//402 411//411 421//421
f 152//152 151//151 154//154
f 119//119 177//177 139//139
f 95//95 75//75 63//63
f 87//87 90//90 91//91
f 101//101 81//81 64//64
f 311//311 392//392 98//98
f 124//124 201//201 195//195
f 345//345 102//102 263//263
f 177//177 191//191 139//139
f 139//139 191//191 494//494
f 110//110 105//105 107//107
f 24//24 532//532 219//219
f 185//185 595//595 215//215
f 394//394 238//238 236//236
f 238//238 247//247 236//236
f 421//421 335//335 296//296
f 239//239 238//238 394//394
f 247//247 238//238 254//254
f 238//238 240//240 414//414
f 254//254 238//238 414//414
f 239//239 240//240 238//238
f 243//243 239//239 394//394
f 244//244 414//414 240//240
f 244//244 241//241 414//414
f 243//243 245//245 239//239
f 451//451 458//458 453//453
f 132//132 543//543 542//542
f 245//245 240//240 239//239
f 244//244 240//240 245//245
f 242//242 414//414 241//241
f 254//254 414//414 242//242
f 235//235 243//243 297//297
f 394//394 237//237 243//243
f 403//403 222//222 542//542
f 411//411 395//395 269//269
f 255//255 247//247 360//360
f 362//362 236//236 255//255
f 249//249 236//236 362//362
f 249//249 362//362 386//386
f 248//248 78//78 251//251
f 330//330 251//251 295//295
f 202//202 320//320 103//103
f 317//317 408//408 98//98
f 392//392 17//17 98//98
f 250//250 273//273 251//251
f 295//295 78//78 290//290
f 88//88 86//86 302//302
f 392//392 293//293 17//17
f 386//386 127//127 252//252
f 311//311 293//293 392//392
f 16//16 17//17 360//360
f 252//252 88//88 302//302
f 247//247 254//254 248//248
f 248//248 427//427 78//78
f 427//427 248//248 254//254
f 427//427 254//254 242//242
f 386//386 237//237 249//249
f 237//237 253//253 297//297
f 394//394 249//249 237//237
f 167//167 185//185 215//215
f 233//233 427//427 242//242
f 243//243 237//237 297//297
f 230//230 242//242 241//241
f 386//386 362//362 127//127
f 85//85 82//82 83//83
f 344//344 103//103 357//357
f 253//253 86//86 303//303
f 286//286 303//303 339//339
f 229//229 232//232 230//230
f 400//400 228//228 235//235
f 400//400 235//235 563//563
f 228//228 243//243 235//235
f 58//58 230//230 241//241
f 58//58 241//241 244//244
f 403//403 261//261 193//193
f 95//95 66//66 65//65
f 488//488 602//602 4//4
f 93//93 340//340 94//94
f 161//161 165//165 542//542
f 250//250 263//263 317//317
f 330//330 250//250 99//99
f 87//87 278//278 381//381
f 195//195 578//578 138//138
f 269//269 415//415 411//411
f 195//195 138//138 124//124
f 314//314 354//354 420//420
f 388//388 276//276 279//279
f 195//195 118//118 578//578
f 400//400 563//563 566//566
f 325//325 101//101 64//64
f 91//91 94//94 87//87
f 124//124 212//212 201//201
f 411//411 415//415 421//421
f 230//230 232//232 242//242
f 539//539 487//487 479//479
f 569//569 476//476 199//199
f 212//212 219//219 201//201
f 532//532 213//213 190//190
f 81//81 100//100 74//74
f 193//193 118//118 196//196
f 235//235 297//297 286//286
f 26//26 192//192 178//178
f 75//75 84//84 337//337
f 210//210 476//476 568//568
f 308//308 202//202 330//330
f 214//214 578//578 579//579
f 218//218 197//197 213//213
f 447//447 441//441 567//567
f 209//209 580//580 577//577
f 394//394 236//236 249//249
f 301//301 231//231 286//286
f 86//86 253//253 302//302
f 234//234 232//232 326//326
f 177//177 218//218 213//213
f 309//309 384//384 307//307
f 427//427 291//291 290//290
f 287//287 310//310 312//312
f 287//287 82//82 79//79
f 77//77 103//103 73//73
f 177//177 213//213 532//532
f 336//336 562//562 310//310
f 197//197 195//195 213//213
f 467//467 118//118 193//193
f 72//72 306//306 69//69
f 263//263 102//102 292//292
f 306//306 72//72 88//88
f 532//532 24//24 180//180
f 371//371 86//86 381//381
f 231//231 564//564 289//289
f 180//180 135//135 191//191
f 284//284 309//309 307//307
f 180//180 181//181 135//135
f 88//88 72//72 89//89
f 333//333 234//234 287//287
f 69//69 268//268 328//328
f 148//148 189//189 589//589
f 171//171 184//184 181//181
f 381//381 278//278 371//371
f 304//304 477//477 336//336
f 576//576 357//357 103//103
f 171//171 180//180 178//178
f 187//187 186//186 148//148
f 173//173 528//528 391//391
f 309//309 312//312 384//384
f 252//252 293//293 67//67
f 186//186 24//24 219//219
f 75//75 337//337 87//87
f 171//171 179//179 184//184
f 82//82 287//287 83//83
f 59//59 399//399 228//228
f 219//219 190//190 201//201
f 543//543 424//424 403//403
f 156//156 185//185 167//167
f 386//386 253//253 237//237
f 446//446 167//167 465//465
f 192//192 171//171 178//178
f 340//340 341//341 313//313
f 180//180 171//171 181//181
f 278//278 309//309 284//284
f 287//287 385//385 83//83
f 278//278 284//284 371//371
f 188//188 25//25 186//186
f 180//180 191//191 532//532
f 532//532 190//190 219//219
f 10//10 57//57 60//60
f 288//288 307//307 380//380
f 278//278 337//337 385//385
f 385//385 287//287 312//312
f 197//197 222//222 196//196
f 231//231 301//301 564//564
f 213//213 195//195 201//201
f 196//196 222//222 403//403
f 222//222 197//197 221//221
f 221//221 197//197 218//218
f 59//59 228//228 400//400
f 371//371 303//303 86//86
f 199//199 200//200 207//207
f 212//212 589//589 189//189
f 381//381 86//86 90//90
f 309//309 278//278 385//385
f 563//563 286//286 231//231
f 326//326 336//336 234//234
f 589//589 212//212 123//123
f 288//288 564//564 301//301
f 212//212 124//124 123//123
f 204//204 134//134 216//216
f 145//145 121//121 116//116
f 148//148 186//186 189//189
f 200//200 199//199 567//567
f 204//204 472//472 207//207
f 204//204 200//200 206//206
f 200//200 204//204 207//207
f 212//212 189//189 219//219
f 186//186 219//219 189//189
f 427//427 290//290 78//78
f 203//203 187//187 148//148
f 221//221 176//176 161//161
f 380//380 307//307 384//384
f 333//333 287//287 291//291
f 177//177 119//119 176//176
f 176//176 119//119 144//144
f 177//177 176//176 218//218
f 161//161 176//176 144//144
f 384//384 310//310 331//331
f 391//391 194//194 144//144
f 161//161 144//144 194//194
f 194//194 175//175 161//161
f 261//261 467//467 193//193
f 196//196 403//403 193//193
f 513//513 114//114 23//23
f 218//218 176//176 221//221
f 177//177 532//532 191//191
f 253//253 386//386 302//302
f 182//182 174//174 173//173
f 43//43 182//182 173//173
f 331//331 426//426 323//323
f 528//528 173//173 172//172
f 174//174 172//172 173//173
f 288//288 284//284 307//307
f 174//174 182//182 179//179
f 171//171 174//174 179//179
f 528//528 172//172 192//192
f 192//192 172//172 174//174
f 192//192 26//26 529//529
f 386//386 252//252 302//302
f 184//184 179//179 182//182
f 174//174 171//171 192//192
f 339//339 303//303 371//371
f 233//233 333//333 291//291
f 530//530 149//149 115//115
f 354//354 372//372 420//420
f 286//286 297//297 303//303
f 301//301 286//286 339//339
f 422//422 298//298 101//101
f 333//333 233//233 234//234
f 422//422 325//325 324//324
f 324//324 315//315 422//422
f 360//360 17//17 362//362
f 308//308 330//330 295//295
f 498//498 452//452 555//555
f 441//441 507//507 454//454
f 23//23 104//104 156//156
f 168//168 164//164 142//142
f 567//567 441//441 200//200
f 236//236 247//247 255//255
f 441//441 352//352 200//200
f 233//233 242//242 232//232
f 232//232 234//234 233//233
f 552//552 169//169 109//109
f 589//589 479//479 148//148
f 293//293 252//252 127//127
f 301//301 339//339 371//371
f 385//385 312//312 309//309
f 286//286 563//563 235//235
f 303//303 297//297 253//253
f 314//314 388//388 282//282
f 352//352 206//206 200//200
f 543//543 553//553 257//257
f 406//406 262//262 489//489
f 312//312 310//310 384//384
f 279//279 280//280 282//282
f 428//428 388//388 314//314
f 385//385 337//337 84//84
f 419//419 279//279 429//429
f 380//380 331//331 323//323
f 304//304 336//336 326//326
f 84//84 83//83 385//385
f 19//19 299//299 459//459
f 280//280 419//419 281//281
f 287//287 336//336 310//310
f 280//280 279//279 419//419
f 282//282 354//354 314//314
f 301//301 371//371 284//284
f 272//272 422//422 315//315
f 515//515 114//114 513//513
f 166//166 109//109 169//169
f 186//186 25//25 24//24
f 315//315 324//324 313//313
f 148//148 479//479 203//203
f 298//298 300//300 374//374
f 104//104 23//23 114//114
f 336//336 477//477 562//562
f 314//314 420//420 428//428
f 287//287 234//234 336//336
f 434//434 515//515 410//410
f 291//291 287//287 79//79
f 410//410 515//515 513//513
f 378//378 377//377 281//281
f 380//380 323//323 288//288
f 405//405 423//423 374//374
f 423//423 298//298 374//374
f 432//432 282//282 280//280
f 432//432 354//354 282//282
f 560//560 406//406 489//489
f 259//259 425//425 1//1
f 198//198 225//225 583//583
f 157//157 23//23 156//156
f 326//326 232//232 229//229
f 329//329 367//367 395//395
f 329//329 395//395 431//431
f 390//390 292//292 102//102
f 367//367 329//329 305//305
f 361//361 334//334 435//435
f 436//436 359//359 335//335
f 335//335 359//359 418//418
f 367//367 351//351 395//395
f 351//351 367//367 343//343
f 317//317 318//318 415//415
f 16//16 360//360 273//273
f 279//279 277//277 275//275
f 188//188 186//186 187//187
f 421//421 415//415 436//436
f 391//391 531//531 194//194
f 335//335 418//418 296//296
f 292//292 390//390 271//271
f 389//389 402//402 296//296
f 436//436 271//271 390//390
f 267//267 351//351 268//268
f 363//363 382//382 372//372
f 348//348 349//349 347//347
f 370//370 389//389 296//296
f 69//69 311//311 268//268
f 283//283 429//429 332//332
f 311//311 267//267 268//268
f 360//360 362//362 255//255
f 351//351 350//350 328//328
f 327//327 416//416 420//420
f 102//102 80//80 390//390
f 398//398 354//354 432//432
f 372//372 354//354 398//398
f 395//395 351//351 267//267
f 350//350 351//351 343//343
f 362//362 293//293 127//127
f 269//269 267//267 408//408
f 419//419 283//283 378//378
f 418//418 361//361 370//370
f 283//283 409//409 378//378
f 271//271 415//415 318//318
f 361//361 276//276 334//334
f 361//361 418//418 383//383
f 317//317 415//415 408//408
f 418//418 370//370 296//296
f 359//359 353//353 376//376
f 274//274 432//432 281//281
f 279//279 275//275 332//332
f 280//280 281//281 432//432
f 269//269 395//395 267//267
f 17//17 293//293 362//362
f 372//372 398//398 363//363
f 379//379 418//418 359//359
f 431//431 397//397 329//329
f 273//273 247//247 248//248
f 418//418 379//379 383//383
f 372//372 382//382 327//327
f 435//435 389//389 370//370
f 366//366 365//365 367//367
f 436//436 415//415 271//271
f 390//390 80//80 353//353
f 397//397 402//402 327//327
f 276//276 361//361 383//383
f 383//383 277//277 276//276
f 327//327 402//402 416//416
f 294//294 305//305 329//329
f 390//390 353//353 359//359
f 344//344 369//369 80//80
f 305//305 364//364 366//366
f 68//68 347//347 93//93
f 329//329 397//397 294//294
f 390//390 359//359 436//436
f 263//263 292//292 318//318
f 347//347 349//349 355//355
f 408//408 311//311 98//98
f 358//358 340//340 347//347
f 397//397 327//327 294//294
f 364//364 305//305 294//294
f 294//294 382//382 364//364
f 345//345 263//263 330//330
f 361//361 435//435 370//370
f 382//382 294//294 327//327
f 327//327 420//420 372//372
f 37//37 434//434 29//29
f 328//328 268//268 351//351
f 349//349 356//356 355//355
f 422//422 101//101 325//325
f 570//570 585//585 262//262
f 434//434 28//28 205//205
f 317//317 263//263 318//318
f 66//66 313//313 324//324
f 348//348 347//347 68//68
f 377//377 378//378 342//342
f 356//356 367//367 365//365
f 365//365 355//355 356//356
f 350//350 343//343 349//349
f 313//313 92//92 340//340
f 94//94 340//340 92//92
f 311//311 408//408 267//267
f 298//298 576//576 101//101
f 369//369 353//353 80//80
f 377//377 404//404 274//274
f 344//344 423//423 369//369
f 375//375 374//374 332//332
f 247//247 273//273 360//360
f 367//367 305//305 366//366
f 251//251 273//273 248//248
f 473//473 58//58 246//246
f 298//298 423//423 357//357
f 340//340 93//93 347//347
f 430//430 272//272 283//283
f 118//118 467//467 259//259
f 358//358 347//347 355//355
f 291//291 427//427 233//233
f 376//376 405//405 379//379
f 342//342 378//378 409//409
f 422//422 300//300 298//298
f 274//274 398//398 432//432
f 272//272 430//430 422//422
f 283//283 332//332 430//430
f 363//363 398//398 274//274
f 344//344 357//357 423//423
f 277//277 373//373 375//375
f 279//279 276//276 277//277
f 419//419 378//378 281//281
f 405//405 376//376 423//423
f 341//341 342//342 409//409
f 275//275 277//277 375//375
f 348//348 350//350 349//349
f 341//341 315//315 313//313
f 429//429 283//283 419//419
f 409//409 272//272 315//315
f 300//300 430//430 374//374
f 17//17 16//16 98//98
f 377//377 274//274 281//281
f 377//377 342//342 404//404
f 430//430 300//300 422//422
f 355//355 365//365 404//404
f 364//364 382//382 363//363
f 363//363 404//404 366//366
f 409//409 283//283 272//272
f 315//315 341//341 409//409
f 274//274 404//404 363//363
f 373//373 379//379 405//405
f 375//375 405//405 374//374
f 363//363 366//366 364//364
f 358//358 342//342 340//340
f 373//373 405//405 375//375
f 342//342 341//341 340//340
f 345//345 330//330 202//202
f 356//356 349//349 343//343
f 28//28 434//434 37//37
f 332//332 374//374 430//430
f 379//379 373//373 383//383
f 520//520 525//525 508//508
f 343//343 367//367 356//356
f 355//355 342//342 358//358
f 353//353 369//369 376//376
f 365//365 366//366 404//404
f 342//342 355//355 404//404
f 145//145 299//299 264//264
f 23//23 157//157 147//147
f 273//273 250//250 16//16
f 423//423 376//376 369//369
f 375//375 332//332 275//275
f 277//277 383//383 373//373
f 113//113 114//114 149//149
f 466//466 541//541 246//246
f 416//416 389//389 435//435
f 332//332 429//429 279//279
f 149//149 530//530 113//113
f 359//359 376//376 379//379
f 526//526 519//519 520//520
f 435//435 420//420 416//416
f 435//435 428//428 420//420
f 435//435 334//334 428//428
f 469//469 480//480 413//413
f 402//402 389//389 416//416
f 166//166 499//499 502//502
f 496//496 438//438 458//458
f 461//461 61//61 449//449
f 352//352 454//454 535//535
f 462//462 18//18 463//463
f 121//121 175//175 116//116
f 162//162 257//257 553//553
f 455//455 129//129 512//512
f 534//534 503//503 505//505
f 133//133 129//129 497//497
f 503//503 534//534 544//544
f 220//220 449//449 450//450
f 549//549 463//463 464//464
f 338//338 535//535 448//448
f 499//499 407//407 505//505
f 450//450 449//449 452//452
f 534//534 505//505 407//407
f 206//206 535//535 338//338
f 455//455 497//497 129//129
f 524//524 523//523 61//61
f 463//463 151//151 462//462
f 457//457 536//536 18//18
f 439//439 495//495 536//536
f 444//444 162//162 553//553
f 122//122 508//508 525//525
f 512//512 129//129 464//464
f 463//463 437//437 464//464
f 158//158 114//114 515//515
f 121//121 164//164 175//175
f 537//537 122//122 524//524
f 538//538 526//526 508//508
f 122//122 537//537 527//527
f 523//523 452//452 449//449
f 531//531 20//20 21//21
f 448//448 538//538 508//508
f 129//129 554//554 464//464
f 448//448 535//535 538//538
f 61//61 527//527 537//537
f 461//461 338//338 527//527
f 537//537 524//524 61//61
f 496//496 451//451 450//450
f 524//524 122//122 525//525
f 142//142 121//121 410//410
f 285//285 230//230 58//58
f 245//245 60//60 244//244
f 399//399 60//60 245//245
f 245//245 228//228 399//399
f 243//243 228//228 245//245
f 162//162 444//444 497//497
f 503//503 544//544 533//533
f 452//452 498//498 450//450
f 448//448 122//122 527//527
f 18//18 437//437 463//463
f 536//536 457//457 439//439
f 512//512 464//464 437//437
f 509//509 514//514 443//443
f 458//458 438//438 456//456
f 440//440 439//439 438//438
f 456//456 438//438 439//439
f 451//451 496//496 458//458
f 21//21 145//145 116//116
f 112//112 158//158 515//515
f 23//23 147//147 513//513
f 535//535 206//206 352//352
f 22//22 21//21 104//104
f 536//536 495//495 18//18
f 299//299 146//146 264//264
f 437//437 18//18 495//495
f 21//21 22//22 113//113
f 449//449 61//61 523//523
f 61//61 461//461 527//527
f 460//460 134//134 220//220
f 462//462 134//134 460//460
f 508//508 122//122 448//448
f 449//449 220//220 461//461
f 220//220 134//134 461//461
f 204//204 206//206 338//338
f 18//18 462//462 460//460
f 145//145 264//264 121//121
f 463//463 154//154 151//151
f 120//120 139//139 493//493
f 144//144 173//173 391//391
f 204//204 461//461 134//134
f 151//151 216//216 134//134
f 461//461 204//204 338//338
f 134//134 462//462 151//151
f 469//469 413//413 559//559
f 467//467 559//559 413//413
f 467//467 261//261 559//559
f 118//118 259//259 577//577
f 259//259 467//467 413//413
f 209//209 259//259 1//1
f 469//469 470//470 480//480
f 425//425 259//259 413//413
f 480//480 470//470 541//541
f 541//541 470//470 246//246
f 322//322 470//470 469//469
f 21//21 530//530 145//145
f 438//438 62//62 440//440
f 495//495 511//511 437//437
f 27//27 410//410 121//121
f 602//602 225//225 4//4
f 194//194 116//116 175//175
f 164//164 121//121 142//142
f 137//137 265//265 120//120
f 58//58 57//57 246//246
f 246//246 57//57 466//466
f 478//478 229//229 322//322
f 285//285 473//473 470//470
f 478//478 322//322 474//474
f 285//285 322//322 229//229
f 322//322 285//285 470//470
f 531//531 21//21 194//194
f 530//530 150//150 145//145
f 147//147 142//142 410//410
f 285//285 58//58 473//473
f 410//410 27//27 29//29
f 474//474 322//322 469//469
f 475//475 474//474 469//469
f 470//470 473//473 246//246
f 229//229 230//230 285//285
f 478//478 304//304 229//229
f 244//244 60//60 57//57
f 229//229 304//304 326//326
f 149//149 114//114 158//158
f 185//185 104//104 21//21
f 562//562 474//474 331//331
f 175//175 164//164 161//161
f 264//264 27//27 121//121
f 145//145 150//150 299//299
f 459//459 28//28 19//19
f 562//562 478//478 474//474
f 562//562 477//477 478//478
f 477//477 304//304 478//478
f 270//270 426//426 474//474
f 474//474 475//475 270//270
f 299//299 150//150 115//115
f 106//106 105//105 501//501
f 579//579 580//580 599//599
f 139//139 265//265 119//119
f 262//262 585//585 258//258
f 566//566 490//490 484//484
f 490//490 256//256 484//484
f 258//258 586//586 387//387
f 484//484 483//483 266//266
f 258//258 387//387 256//256
f 21//21 113//113 530//530
f 483//483 256//256 387//387
f 258//258 256//256 262//262
f 585//585 586//586 258//258
f 586//586 396//396 482//482
f 256//256 483//483 484//484
f 15//15 483//483 387//387
f 262//262 256//256 489//489
f 260//260 570//570 262//262
f 489//489 256//256 490//490
f 490//490 289//289 471//471
f 266//266 485//485 59//59
f 59//59 486//486 399//399
f 485//485 486//486 59//59
f 400//400 266//266 59//59
f 115//115 112//112 459//459
f 10//10 466//466 57//57
f 566//566 266//266 400//400
f 484//484 266//266 566//566
f 109//109 126//126 128//128
f 566//566 289//289 490//490
f 535//535 454//454 538//538
f 406//406 260//260 262//262
f 126//126 108//108 111//111
f 489//489 490//490 471//471
f 260//260 406//406 491//491
f 491//491 492//492 260//260
f 265//265 139//139 120//120
f 28//28 37//37 19//19
f 493//493 139//139 494//494
f 120//120 493//493 33//33
f 120//120 33//33 30//30
f 30//30 137//137 120//120
f 33//33 493//493 494//494
f 50//50 144//144 265//265
f 265//265 144//144 119//119
f 265//265 137//137 50//50
f 117//117 173//173 144//144
f 495//495 439//439 440//440
f 115//115 150//150 530//530
f 498//498 496//496 450//450
f 111//111 128//128 126//126
f 498//498 556//556 497//497
f 517//517 497//497 455//455
f 22//22 104//104 114//114
f 504//504 106//106 500//500
f 500//500 499//499 505//505
f 501//501 500//500 106//106
f 500//500 505//505 504//504
f 496//496 62//62 438//438
f 517//517 496//496 498//498
f 496//496 516//516 62//62
f 455//455 443//443 517//517
f 498//498 497//497 517//517
f 512//512 443//443 455//455
f 503//503 533//533 506//506
f 500//500 502//502 499//499
f 501//501 502//502 500//500
f 506//506 111//111 106//106
f 503//503 506//506 504//504
f 504//504 505//505 503//503
f 111//111 506//506 131//131
f 504//504 506//506 106//106
f 558//558 447//447 257//257
f 558//558 507//507 441//441
f 131//131 506//506 533//533
f 519//519 526//526 507//507
f 507//507 555//555 519//519
f 507//507 526//526 454//454
f 441//441 454//454 352//352
f 538//538 454//454 526//526
f 508//508 526//526 520//520
f 555//555 452//452 522//522
f 519//519 555//555 522//522
f 448//448 527//527 338//338
f 205//205 28//28 459//459
f 19//19 146//146 299//299
f 299//299 115//115 459//459
f 459//459 112//112 205//205
f 114//114 113//113 22//22
f 591//591 593//593 568//568
f 597//597 568//568 593//593
f 568//568 569//569 591//591
f 2//2 13//13 125//125
f 581//581 596//596 211//211
f 211//211 596//596 587//587
f 555//555 556//556 498//498
f 593//593 591//591 594//594
f 587//587 594//594 590//590
f 591//591 590//590 594//594
f 596//596 594//594 587//587
f 591//591 569//569 592//592
f 207//207 590//590 592//592
f 207//207 592//592 199//199
f 211//211 587//587 589//589
f 539//539 479//479 588//588
f 589//589 588//588 479//479
f 589//589 587//587 588//588
f 593//593 594//594 596//596
f 600//600 581//581 599//599
f 600//600 599//599 598//598
f 596//596 600//600 593//593
f 600//600 596//596 581//581
f 600//600 540//540 597//597
f 540//540 600//600 598//598
f 597//597 593//593 600//600
f 598//598 599//599 540//540
f 601//601 597//597 540//540
f 540//540 602//602 601//601
f 599//599 225//225 540//540
f 540//540 225//225 602//602
