# LOD generated from left_arm.obj by tools/generate_lods.py
v 3.65784 3.55652 19.70260
v 7.29750 19.40306 6.57291
v 2.28908 23.17446 0.00722
v 8.24583 10.95780 16.01393
v 3.30107 25.42208 2.97773
v 5.09529 14.12317 9.62236
v 4.18792 22.72228 0.36512
v 0.06472 22.29915 3.24945
v 5.50765 23.32890 1.56111
v 4.91687 10.55612 17.46537
v 4.22697 23.66087 6.31689
v 2.21724 24.06350 0.13351
v 5.95576 23.58356 3.26062
v 4.97370 24.62639 1.78741
v 6.54095 13.37694 9.70022
v 7.91608 3.07838 22.68214
v 9.08010 2.29999 23.70927
v 4.53043 3.11920 26.06113
v -0.02561 23.32484 2.48857
v 9.05267 13.86458 12.85317
v 5.67638 3.45934 24.18579
v 3.88662 25.29906 2.00057
v 5.00455 6.21394 17.54918
v 6.14387 21.96671 5.01394
v 2.59061 3.62740 19.66760
v 3.93817 3.78912 20.40507
v 4.58298 -0.03919 26.46635
v 5.41993 10.37765 13.26835
v 4.95055 3.02618 26.14091
v 4.70456 2.44614 25.00663
v 0.58015 22.60462 4.93913
v 2.91703 3.63309 24.28831
v 9.42960 15.35890 11.77585
v 5.74248 22.75884 6.26410
v 4.94192 1.50290 25.46194
v 4.40661 24.85501 1.43473
v 2.40014 4.74026 19.59159
v 7.19467 6.66254 21.56443
v 1.93857 21.97192 0.48604
v 0.89085 23.53300 4.75630
v 4.49501 4.66585 18.07530
v 0.18501 23.03852 3.91963
v 7.42975 0.31383 25.86578
v 6.61028 2.26132 24.68482
v 3.80660 5.35561 18.30467
v 3.43413 5.34404 22.51904
v 5.20242 15.04697 13.36247
v 7.38312 7.73080 19.47853
v 3.84683 16.36367 6.90424
v 8.63858 17.08512 10.19684
v 7.76997 11.53905 16.62041
v 4.73410 3.43791 22.36297
v 3.75229 4.46723 23.73209
v 4.26532 3.87932 19.20014
v 3.04017 2.28035 24.10749
v 8.16124 17.89609 10.56757
v 6.74312 4.40230 19.26827
v 9.31854 13.75394 11.57775
v 8.51877 3.86640 22.10606
v 5.92350 8.64207 14.31118
v 0.61211 21.95152 1.55153
v 7.69510 6.91289 18.57351
v 0.96313 3.15095 20.93446
v 4.05101 5.78928 22.81897
v 7.73017 19.03788 8.38923
v 6.55670 7.93315 20.17552
v 7.80723 3.45504 23.38106
v 1.56189 21.21312 1.37436
v 1.54227 25.04829 2.91066
v 7.20301 0.77097 26.31456
v 6.03792 4.29508 24.14647
v 1.63972 21.34258 6.72059
v 2.96134 22.97175 6.81493
v 5.49913 15.41937 13.67320
v 1.94964 24.82025 3.95155
v 3.81099 21.01184 1.07880
v 0.32296 24.06246 3.02497
v 9.07733 0.90807 24.75317
v 2.75082 20.64743 1.47866
v 5.14331 1.96502 25.30820
v 4.91901 0.63914 25.96677
v 4.31245 4.47678 23.80427
v 3.80290 3.46349 22.77015
v 2.99494 4.08065 23.01607
v 3.23239 5.92527 19.84991
v 8.03999 9.13393 15.44565
v 5.46843 6.05310 17.42539
v 2.66554 21.08928 8.16006
v 7.54945 0.90214 26.23028
v 0.32465 21.94163 4.26599
v 7.43908 3.26614 21.89990
v 8.22560 2.68042 23.28721
v 8.14295 3.98425 21.10754
v 2.51834 0.36237 24.88602
v 6.68264 3.23903 23.20255
v 9.10427 1.79025 24.01396
v 7.58017 7.44822 17.73676
v 4.88106 23.35414 0.84544
v 3.16919 5.49727 21.42206
v 7.58889 2.57117 25.16186
v 9.41338 14.45139 12.08430
v 6.20390 5.93222 17.55983
v 2.65869 0.68803 24.48274
v 7.47169 15.90648 14.01303
v 2.12512 0.71751 25.23462
v 4.85183 6.63318 17.44046
v 2.86833 21.59312 0.56121
v 4.37456 25.25430 2.88334
v 4.23499 2.87132 25.47623
v 8.66060 13.60259 10.42873
v 4.53519 12.18092 15.60255
v 7.70078 13.10486 10.14486
v 4.12373 7.25684 19.31383
v 7.26708 3.41236 22.99005
v 2.25195 0.30873 24.75591
v 5.21471 13.85204 10.64988
v 1.02885 2.79216 20.37568
v 2.96667 23.00922 -0.00774
v 8.68013 2.17827 23.48613
v 2.78894 18.44838 4.79614
v 2.66548 3.42653 20.28239
v 5.21756 2.49148 25.11019
v 8.72137 1.13391 24.88556
v 1.26288 22.91371 5.67415
v 0.71154 24.24753 3.50896
v 8.70852 15.25065 9.64195
v 5.74391 3.89554 24.40911
v 0.27925 23.32636 1.25632
v 0.73978 24.64502 2.53496
v 7.49881 3.04002 24.38210
v 8.25265 6.18129 20.10769
v 6.88018 1.16213 25.54723
v 7.40938 9.62836 13.66482
v 2.89358 17.02320 8.73862
v 2.32559 2.28289 24.08407
v 2.14496 4.27774 20.72596
v 6.10894 3.37342 23.73437
v 3.80350 5.81060 22.58437
v 4.28033 24.02893 0.65511
v 7.50721 3.76244 23.38333
v 2.15286 2.39120 24.55235
v 8.94971 1.33876 24.95650
v 7.50210 1.36512 25.23367
v 5.21561 3.02916 25.90160
v 5.79960 23.66358 2.44090
v 4.16544 3.79890 19.92450
v 2.22439 0.42300 25.17201
v 0.83580 2.67867 20.85222
v 4.77217 8.17468 19.81515
v 4.25123 3.59070 23.26761
v 0.90731 2.99340 20.55660
v 7.34330 1.83377 24.74947
v 8.35839 5.12123 21.92829
v 3.46947 25.16650 3.98831
v 5.04645 14.30255 11.43889
v 3.44860 4.06588 20.87084
v 5.96990 22.70920 2.42009
v 7.39513 3.99566 20.35446
v 4.80268 1.12926 25.79414
v 7.67992 4.23272 23.29317
v 3.07742 4.76853 21.02820
v 0.37596 21.57571 2.85307
v 1.70680 3.79479 21.03075
v 4.31009 17.86917 11.24629
v 1.53590 19.93544 6.11262
v 4.70199 9.37080 14.87484
v 7.04336 1.58584 24.81269
v 7.19815 0.51096 25.58348
v 4.12614 4.92105 18.12260
v 1.99718 4.32895 20.26767
v 4.35006 4.02156 23.96844
v 4.24986 19.46542 10.38662
v 6.16032 11.13899 17.74598
v 7.77065 4.56667 19.56461
v 6.47914 8.98514 19.24678
v 2.72734 2.24268 23.91308
v 1.83238 3.15532 20.00874
v 7.34745 8.60298 14.86071
v 8.11414 5.03582 22.43197
v 2.83729 1.42633 24.80529
v 9.50497 14.58341 11.15571
v 8.29001 5.75321 19.70214
v 8.45139 1.53200 24.22517
v 7.08099 8.40486 19.17267
v 4.60921 0.65035 26.83224
v 6.51718 8.65876 14.26973
v 3.33529 4.76670 21.48551
v 4.96183 12.94842 15.74914
v 2.71050 0.70081 24.96091
v 4.92863 4.37719 18.33832
v 4.83511 0.09241 26.63137
v 6.37957 5.84960 23.02105
v 4.73016 8.98528 18.49194
v 8.85229 12.85655 12.60117
v 5.71818 7.00159 21.61111
v 4.45435 3.68338 23.89407
v 5.00174 14.53264 13.47715
v 5.51943 12.84280 11.17592
v 5.89835 3.64634 24.05909
v 4.51444 9.38549 17.21809
v 1.18710 2.44044 21.03629
v 4.71836 13.11826 13.31046
v 9.24939 1.22846 24.91402
v 5.11579 1.17363 26.05547
v 2.75590 2.65437 23.60733
v 4.15591 3.78382 21.30694
v 2.55449 3.38367 23.92737
v 1.24460 3.07670 21.30254
v 5.34253 5.40142 17.78751
v 1.00580 21.18650 2.07893
v 4.37004 16.04873 11.60985
v 1.53250 20.50795 6.50032
v 4.49737 8.70124 16.09949
v 4.33693 0.10277 26.49803
v 3.38270 3.44453 24.29664
v 2.01586 3.44792 21.22369
v 5.30367 5.13839 23.83342
v 8.65789 15.67389 13.33804
v 6.08208 3.33180 23.34733
v 5.44095 4.34014 24.57408
v 6.86803 16.73442 13.40839
v 5.70408 7.01498 16.43899
v 5.54287 11.07648 17.64000
v 3.07304 4.18036 18.85219
v 5.72435 23.39596 4.76512
v 7.68392 3.66171 23.32584
v 0.45291 24.44299 1.63483
v 2.86968 3.67209 20.66575
v 8.14858 2.76564 24.12040
v 4.96787 0.24656 26.28766
v 4.49587 7.20068 18.03588
v 9.05429 2.82543 23.70760
v 5.03402 3.24942 23.67875
v 4.42863 3.93232 24.51881
v 2.85882 2.48309 24.90739
v 7.27198 6.45571 17.99319
v 7.71873 0.66018 26.03224
v 7.69183 7.33618 19.26447
v 4.02906 17.44151 5.30461
v 7.81190 8.85238 15.21359
v 9.40353 15.65078 11.19498
v 2.53209 4.58544 20.82006
v 8.73717 1.72184 23.91652
v 4.64128 0.23647 26.85676
v 1.58288 2.67442 21.21064
v 7.14001 4.63398 18.95488
v 4.93392 0.50359 26.68616
v 2.71234 1.26888 24.40024
v 9.17884 15.21047 12.69799
v 4.61599 4.96557 23.64533
v 2.39218 18.17828 8.25753
v 4.74998 3.44168 23.37297
v 6.79350 10.21349 18.23884
v 6.79642 3.43309 22.24736
v 4.54159 22.43395 7.92765
v 4.93415 15.32889 12.37800
v 7.81739 3.16918 23.26951
v 3.32907 5.10310 22.13469
v 5.26220 15.97356 13.02632
v 2.34146 2.73248 24.84861
v 6.04289 3.82564 21.22764
v 6.52482 2.45645 25.07062
v 3.32850 24.28596 5.54612
v 4.35583 3.13668 25.84321
v 7.84163 6.69691 20.63109
v 5.05459 13.78978 12.38270
v 4.44211 7.97738 18.44186
v 4.23134 4.21694 18.55687
v 6.23553 14.10841 15.56545
v 4.69404 18.04285 4.52521
v 3.01649 19.14061 9.44778
v 8.40162 4.03932 23.12447
v 1.94953 0.52936 24.97504
v 5.44970 18.31396 4.46283
v 3.93659 3.69136 23.74637
v 1.13329 2.71722 21.24184
v 6.82052 2.33792 24.46159
v 8.45483 5.09290 21.41406
v 5.48006 3.25744 22.93278
v 4.36579 0.33162 26.81321
v 1.75524 3.90031 20.06018
v 8.29850 16.80581 12.64352
v 7.06421 2.67229 23.89393
v 5.83612 8.67837 19.71461
v 5.10799 9.03163 14.50129
v 2.42956 25.18372 1.62827
v 9.19613 16.16670 11.75718
v 1.58232 2.52519 20.53511
v 4.09866 4.14891 23.75601
v 2.18095 25.28347 2.22838
v 4.96470 20.32941 2.32217
v 3.79320 17.10061 10.67707
v 6.70167 5.13931 23.51049
v 7.51844 0.63011 25.57224
v 4.42981 6.83116 21.47159
v 7.64474 7.96407 17.89308
v 4.96119 12.42268 12.56514
v 8.54399 14.18894 14.12412
v 3.27135 3.74248 22.78529
v 4.57095 6.40346 18.07912
v 2.01973 24.76434 0.83096
v 7.15761 2.86042 25.37806
v 8.74994 2.82993 23.22975
v 5.37304 2.73510 24.71712
v 3.48361 6.31933 20.49665
v 6.03713 15.81158 13.87795
v 5.48620 13.79031 15.55947
v 2.59008 18.44780 8.85106
v 8.33358 12.94473 14.95601
v 2.68478 5.15922 20.78694
v 4.33114 11.42661 15.38398
v 2.34795 25.30814 2.97036
v 4.41493 7.88323 19.10781
v 2.80327 3.54328 19.85187
v 7.01701 0.66180 26.07450
v 5.24195 13.17637 11.72643
v 2.76416 17.06053 7.93433
v 3.75441 22.00244 8.25460
v 6.79696 2.72974 25.38133
v 6.48396 3.13813 23.43645
v 8.25269 15.88293 13.59085
v 8.08908 3.84116 23.38694
v 7.22079 2.47952 24.37722
v 7.25573 19.66309 9.08313
v 7.40165 0.47011 26.27659
v 5.31980 3.97895 20.62211
v 8.49484 3.04754 24.15864
v 1.52880 2.41040 20.84679
v 4.24583 0.49428 26.43804
v 9.14649 13.97058 10.71564
v 5.16974 23.76401 5.50532
v 1.26686 2.53558 20.42362
v 5.42212 8.52373 14.64919
v 2.44510 0.64754 25.21330
v 5.72650 20.69220 2.87956
v 8.36510 2.06270 23.69498
v 7.48140 8.24672 18.45961
v 1.68114 19.49028 5.52572
v 2.60655 2.67875 24.99302
v 0.82303 22.69876 0.74253
v 3.76939 4.12962 21.37978
v 1.43400 23.37331 0.21383
v 7.29847 3.52113 23.41217
v 4.43285 10.26013 14.93113
v 6.88634 20.46325 7.20752
v 5.07693 15.00957 12.83137
v 3.61303 6.20765 21.40957
v 4.23155 6.80458 18.66034
v 7.59923 3.54955 21.20435
v 6.45225 4.46350 24.11469
v 3.11827 4.77869 18.82163
v 4.07510 3.47836 22.20486
v 6.40744 15.88928 14.01535
v 2.75140 5.61353 20.58804
v 8.85958 2.96738 24.09477
v 7.05872 3.32363 23.25772
v 8.31846 3.27918 22.36622
v 4.42567 2.56049 25.15733
v 5.35419 2.58148 25.40479
v 2.11717 3.11925 21.10574
v 4.27752 1.65158 26.21934
v 0.27231 24.00990 1.44026
v 4.25884 15.07509 9.74267
v 9.33152 1.16240 24.63015
v 3.54852 3.33852 22.99362
v 5.05054 8.87096 19.21818
v 5.25832 22.74208 1.12864
v 5.65702 13.26145 10.40966
v 5.74681 6.01002 23.00606
v 6.80573 18.99420 5.28168
v 7.10725 0.36395 25.90190
v 6.29866 21.18881 8.03525
v 3.39308 24.07323 0.24931
v 5.21057 2.22879 26.06032
v 7.23067 19.05883 6.11939
v 7.85427 16.68717 13.16044
v 1.09662 24.87199 1.71483
v 3.96963 3.50652 23.36831
v 5.58851 22.04091 1.73661
v 4.91401 7.63134 16.16461
v 4.48242 3.73003 21.21510
v 4.00145 15.70846 10.28584
v 8.86977 16.12767 10.02453
v 6.08876 3.58174 24.05907
v 4.04347 21.73324 0.61220
v 6.19440 3.88662 24.19538
v 2.88230 24.70819 0.71927
v 8.71448 1.03340 24.41978
v 7.68812 0.52158 25.96366
v 3.15157 4.55208 23.41508
v 7.26078 1.15615 25.26813
v 2.51434 3.98459 20.93144
v 2.07014 19.02640 5.03691
v 2.04665 23.72596 5.64125
v 7.13975 19.10848 10.40106
v 8.66090 16.89425 11.85245
v 5.35106 8.82995 19.49780
v 8.73428 12.79132 13.63624
v 3.16371 2.43856 24.42284
v 3.35799 4.53308 21.96830
v 9.18857 14.60644 10.43052
v 5.37180 24.33241 4.23919
v 4.56731 0.39617 25.96849
v 6.56653 2.58182 24.06568
v 5.96102 4.43887 18.80003
v 2.37158 0.54982 24.42990
v 7.24394 4.47872 23.60715
v 6.59613 6.99162 16.80966
v 5.80193 11.85335 11.69015
v 6.16280 13.19389 10.03872
v 2.09931 2.84746 20.69363
v 5.81844 4.92256 24.01768
v 2.02876 22.30397 6.72057
v 3.20785 5.36886 19.03635
v 2.37141 1.32945 24.24967
v 4.24737 24.61817 5.01456
v 4.78248 5.88071 17.84541
v 3.11643 2.62856 23.58751
v 5.24963 24.66953 3.32226
v 8.14135 5.39627 19.40185
v 7.40744 9.32778 18.10306
v 9.17725 1.05410 24.97488
v 4.18926 3.79837 23.61820
v 8.72965 12.64394 11.93962
v 8.34876 10.19499 15.41767
v 9.37154 15.17079 10.68977
v 0.92709 24.48648 0.89366
v 0.07956 22.65401 2.07523
v 3.33514 21.75735 8.24201
v 2.92911 16.99285 7.16780
v 6.61439 10.93281 12.15679
v 9.08279 1.16730 24.17673
v 6.31344 18.78987 4.75569
v 0.78600 23.85917 0.61755
v 7.42512 3.86610 23.64663
v 8.62986 3.97651 22.74768
v 2.79175 1.69826 24.08337
v 3.57804 3.83732 18.95667
v 4.72755 1.78627 25.24771
v 4.93602 2.72566 24.44203
v 2.29016 4.03932 19.52290
v 4.74280 24.64781 4.62792
v 2.53551 3.55773 20.87531
v 4.78563 21.57594 1.08450
v 7.40927 2.82321 25.25038
v 4.38946 1.16088 25.81647
v 6.21858 21.22464 3.87236
v 7.28945 7.22542 17.19234
v 5.42803 3.26489 23.80792
v 5.18331 22.87845 7.10923
v 7.53484 5.02148 18.89243
v 2.04296 0.56352 24.64596
vn 0.1686 -0.9822 -0.0831
vn 0.9394 0.3015 -0.1632
vn -0.1744 -0.1410 -0.9745
vn 0.9357 0.0785 0.3440
vn 0.0191 0.9987 0.0475
vn -0.6659 -0.7081 -0.2351
vn 0.4345 -0.0496 -0.8993
vn -0.9818 -0.1786 0.0650
vn 0.8208 0.2632 -0.5069
vn -0.7939 0.3786 0.4759
vn 0.0625 0.7929 0.6061
vn -0.1270 0.4298 -0.8939
vn 0.9506 0.3073 0.0430
vn 0.7112 0.5865 -0.3875
vn -0.0759 -0.7522 -0.6546
vn -0.2429 -0.9619 -0.1252
vn 0.8088 -0.1735 -0.5620
vn -0.4372 0.5820 0.6856
vn -0.9864 0.1642 0.0024
vn 0.9531 -0.1733 0.2480
vn 0.8778 -0.4774 0.0396
vn 0.1095 0.9509 -0.2896
vn -0.5881 -0.4775 -0.6528
vn 0.9540 0.2993 -0.0176
vn 0.0499 -0.7803 -0.6235
vn 0.0191 -0.9724 0.2326
vn -0.0427 -0.9900 -0.1341
vn -0.6027 -0.4928 -0.6277
vn 0.3230 0.4607 0.8267
vn -0.0272 -0.5955 -0.8029
vn -0.8615 0.0927 0.4992
vn -0.1790 0.6176 0.7659
vn 0.9758 0.1396 0.1685
vn 0.8400 0.5137 0.1745
vn 0.4711 -0.5789 -0.6655
vn 0.3641 0.7631 -0.5340
vn -0.7812 0.4938 -0.3820
vn 0.4565 0.7042 0.5438
vn -0.2854 -0.4827 -0.8280
vn -0.6414 0.5843 0.4972
vn -0.1341 -0.3718 -0.9186
vn -0.9268 0.2105 0.3110
vn 0.2848 -0.9373 -0.2007
vn -0.8113 -0.4777 -0.3370
vn -0.6423 0.2446 -0.7264
vn -0.8885 0.4377 0.1380
vn -0.9073 0.2659 0.3256
vn 0.6505 0.6465 0.3986
vn -0.4265 -0.7635 -0.4849
vn 0.9139 0.3935 -0.1000
vn 0.7379 0.3122 0.5983
vn -0.0730 -0.9849 -0.1571
vn -0.0452 0.5020 0.8637
vn 0.2395 -0.9473 -0.2129
vn 0.6532 -0.6588 -0.3732
vn 0.8145 0.5619 0.1444
vn 0.0355 -0.9542 -0.2970
vn 0.9345 -0.3559 0.0045
vn 0.9229 -0.2413 -0.3000
vn -0.2806 -0.6524 -0.7041
vn -0.7351 -0.5043 -0.4532
vn 0.9497 0.0088 -0.3129
vn -0.7626 0.6061 0.2258
vn -0.2415 0.7000 0.6721
vn 0.9128 0.4043 -0.0581
vn 0.3865 0.7069 0.5924
vn -0.7445 -0.2002 0.6369
vn -0.4260 -0.7283 -0.5368
vn -0.4316 0.8799 0.1989
vn -0.4671 0.2520 0.8475
vn 0.3881 0.1417 0.9107
vn -0.8219 0.1519 0.5491
vn -0.3019 0.6812 0.6670
vn -0.7857 0.4765 0.3945
vn -0.3637 0.8099 0.4602
vn 0.1731 -0.6985 -0.6943
vn -0.8463 0.4769 0.2374
vn 0.1168 -0.9918 -0.0517
vn -0.1381 -0.7587 -0.6366
vn 0.6752 -0.3803 -0.6321
vn 0.5698 -0.3172 -0.7581
vn -0.5793 0.3289 0.7458
vn -0.1845 -0.9712 -0.1505
vn -0.9097 -0.0292 -0.4142
vn -0.7943 0.5644 -0.2247
vn 0.9166 -0.3705 -0.1502
vn -0.1975 -0.6424 -0.7405
vn -0.6544 0.3652 0.6621
vn 0.5460 0.3482 0.7620
vn -0.9312 -0.2630 0.2522
vn -0.0740 -0.9546 -0.2885
vn -0.3246 -0.6808 -0.6566
vn 0.6360 -0.6464 -0.4214
vn 0.6099 -0.7902 0.0607
vn 0.0527 -0.9658 -0.2539
vn 0.5877 -0.3650 -0.7220
vn 0.9360 -0.3275 -0.1293
vn 0.6449 0.2666 -0.7163
vn -0.8935 0.1999 0.4022
vn 0.9513 0.2298 0.2055
vn 0.9697 -0.0844 0.2291
vn 0.3344 -0.5812 -0.7418
vn 0.8006 -0.3268 -0.5022
vn 0.2564 0.5718 0.7793
vn -0.4557 0.1414 0.8788
vn -0.8916 -0.3226 -0.3178
vn -0.0261 -0.5291 -0.8482
vn 0.3832 0.9220 0.0557
vn -0.9927 -0.0199 -0.1190
vn 0.6247 -0.5141 -0.5878
vn -0.9003 0.3153 0.3002
vn 0.2789 -0.6681 -0.6899
vn -0.8801 0.4467 -0.1609
vn -0.0739 -0.9692 0.2351
vn -0.2777 -0.9383 -0.2062
vn -0.8639 -0.4975 -0.0780
vn -0.5159 -0.2228 -0.8272
vn 0.0986 -0.1630 -0.9817
vn 0.1171 -0.5535 -0.8246
vn -0.5350 -0.7340 -0.4183
vn 0.4612 -0.8846 0.0692
vn 0.4308 -0.7221 -0.5413
vn -0.8679 -0.2310 0.4398
vn -0.6653 0.3864 0.6388
vn -0.5622 0.7257 0.3965
vn 0.8272 -0.1778 -0.5330
vn 0.9371 -0.0265 0.3480
vn -0.8929 -0.0709 -0.4447
vn -0.5996 0.7866 0.1473
vn 0.9516 -0.1292 -0.2788
vn 0.9325 0.3610 0.0065
vn -0.8410 -0.4345 -0.3224
vn 0.4421 -0.6637 -0.6034
vn -0.8880 -0.3388 0.3110
vn -0.7896 -0.0559 -0.6111
vn -0.5362 0.5232 0.6624
vn -0.8351 -0.5466 -0.0615
vn -0.6231 0.6788 0.3885
vn 0.5133 0.3725 -0.7731
vn 0.6872 -0.2401 0.6856
vn -0.9804 0.1592 -0.1157
vn -0.0889 0.3698 0.9248
vn 0.7947 -0.2833 -0.5369
vn 0.8171 0.2696 0.5096
vn 0.8689 0.4291 -0.2466
vn 0.2261 -0.9740 -0.0115
vn -0.1274 -0.7682 0.6275
vn -0.9221 -0.3564 0.1504
vn -0.7306 0.6194 0.2871
vn -0.0494 -0.9829 0.1776
vn -0.8071 0.4173 -0.4177
vn 0.5644 -0.4194 -0.7110
vn 0.7553 0.5373 0.3753
vn -0.0187 0.9282 0.3716
vn -0.9312 -0.3384 0.1359
vn -0.2323 -0.6592 0.7152
vn 0.9771 0.0420 -0.2086
vn 0.0240 -0.9158 -0.4010
vn 0.1649 -0.4623 -0.8713
vn 0.4734 0.4494 0.7576
vn -0.4812 -0.2912 0.8269
vn -0.8439 -0.5315 -0.0727
vn -0.4185 0.6583 0.6257
vn -0.7129 0.2452 0.6570
vn -0.9244 -0.3565 0.1357
vn -0.8178 -0.3460 -0.4599
vn -0.3119 -0.6030 -0.7342
vn -0.3728 -0.5424 -0.7529
vn -0.4079 -0.2130 -0.8878
vn -0.7814 0.6086 0.1379
vn -0.9231 -0.1239 0.3641
vn -0.5124 0.4517 0.7304
vn -0.0284 0.6134 0.7893
vn 0.6510 -0.6149 -0.4450
vn 0.2583 0.5749 0.7764
vn 0.0278 -0.4447 -0.8952
vn -0.0925 -0.4975 -0.8625
vn 0.4774 -0.7317 -0.4865
vn 0.5661 0.5684 0.5971
vn 0.9042 -0.1437 0.4023
vn 0.9899 -0.0904 -0.1094
vn 0.9800 0.0224 -0.1976
vn -0.8110 -0.5259 -0.2564
vn 0.6902 0.4474 0.5687
vn -0.1744 0.2571 0.9505
vn 0.1976 -0.7563 -0.6237
vn -0.9294 -0.3278 0.1694
vn -0.7149 0.4677 0.5198
vn 0.9307 -0.2595 0.2577
vn 0.2172 -0.7157 -0.6638
vn 0.6945 -0.6061 0.3878
vn 0.2572 0.7377 0.6243
vn -0.8974 0.3460 0.2738
vn 0.9700 -0.2428 0.0079
vn 0.0551 0.7777 0.6262
vn -0.8830 -0.4191 -0.2112
vn -0.9626 0.2657 0.0531
vn -0.8148 -0.3440 -0.4667
vn 0.3502 -0.7004 0.6219
vn -0.9742 0.1273 0.1864
vn -0.2844 -0.9211 0.2657
vn -0.9798 0.0598 -0.1910
vn 0.7908 0.3697 0.4878
vn 0.9674 -0.2265 -0.1137
vn -0.4133 -0.4347 -0.8001
vn -0.5147 -0.8248 -0.2341
vn -0.9369 0.3338 -0.1040
vn -0.3305 0.2449 0.9115
vn 0.1196 -0.5282 -0.8407
vn -0.6364 -0.6991 -0.3261
vn -0.8899 -0.1647 0.4253
vn -0.9175 -0.0933 0.3867
vn -0.9818 -0.1483 -0.1184
vn -0.8160 -0.5282 -0.2350
vn 0.5826 0.1621 0.7964
vn 0.2114 0.1171 0.9703
vn -0.1122 0.7461 0.6563
vn 0.7706 0.3900 0.5041
vn 0.0120 -0.9847 0.1737
vn 0.5263 0.5081 0.6818
vn 0.0080 0.6831 0.7303
vn -0.0391 -0.7682 -0.6390
vn -0.4126 0.5666 0.7132
vn -0.4131 -0.4119 -0.8122
vn 0.8895 0.4093 0.2033
vn -0.1973 -0.1031 0.9749
vn -0.7964 0.6017 -0.0611
vn 0.2249 -0.5894 0.7759
vn -0.7178 0.1662 0.6762
vn 0.8340 -0.4740 -0.2825
vn -0.9681 -0.1060 -0.2270
vn 0.9800 0.1938 -0.0459
vn -0.3270 -0.8743 -0.3587
vn -0.9326 0.3059 0.1913
vn 0.6624 0.0098 0.7491
vn 0.6697 -0.3889 -0.6326
vn 0.9970 -0.0327 -0.0698
vn 0.9259 0.3721 0.0648
vn -0.2470 -0.7776 -0.5782
vn 0.7272 -0.5632 -0.3924
vn 0.9505 0.2845 -0.1249
vn -0.3826 0.1673 0.9087
vn -0.1088 -0.5608 -0.8208
vn 0.1698 -0.3944 0.9031
vn 0.3728 -0.4818 0.7930
vn 0.2855 -0.6784 -0.6769
vn 0.7854 0.0449 0.6173
vn 0.7517 -0.3257 -0.5735
vn 0.9114 0.1075 0.3971
vn -0.3780 0.6591 0.6502
vn -0.9460 -0.2371 0.2209
vn -0.4500 -0.8884 0.0902
vn 0.5382 0.4506 0.7123
vn -0.0716 -0.9692 -0.2358
vn 0.1307 0.7299 0.6710
vn -0.8979 -0.2745 0.3443
vn -0.9404 -0.3359 0.0527
vn -0.9981 0.0574 -0.0230
vn -0.8147 0.1433 0.5619
vn -0.7807 0.4115 0.4704
vn -0.0501 -0.9441 -0.3258
vn -0.9446 -0.1146 0.3075
vn -0.1735 0.7994 0.5752
vn -0.8963 0.3017 0.3249
vn 0.7598 0.5705 0.3117
vn -0.9902 0.0430 -0.1327
vn -0.9946 0.1034 -0.0064
vn -0.1022 -0.6910 -0.7156
vn -0.0238 0.6122 0.7903
vn 0.0590 -0.7377 -0.6726
vn -0.7580 0.2006 0.6207
vn 0.4568 0.6445 0.6131
vn -0.9730 0.0258 0.2296
vn 0.4006 -0.6002 -0.6922
vn 0.7870 -0.2780 0.5509
vn -0.4113 -0.3200 0.8535
vn -0.1102 -0.7224 -0.6826
vn 0.9767 0.2112 0.0368
vn -0.0159 -0.9917 -0.1277
vn -0.7383 -0.0209 0.6742
vn -0.8052 0.4130 -0.4256
vn 0.6240 0.6299 0.4624
vn 0.4263 -0.7014 -0.5712
vn 0.1418 0.6724 0.7265
vn -0.6379 -0.4806 -0.6018
vn -0.1077 0.9268 -0.3597
vn 0.8599 0.4683 0.2034
vn 0.3819 -0.7796 -0.4963
vn 0.1419 0.0048 0.9899
vn -0.1649 0.9809 -0.1030
vn 0.5141 -0.5536 -0.6552
vn -0.8624 -0.0692 0.5015
vn 0.4615 0.5998 0.6537
vn 0.5944 -0.4106 -0.6915
vn -0.3127 0.7697 0.5565
vn 0.9809 -0.0335 0.1915
vn -0.9351 -0.1105 -0.3367
vn 0.8586 0.1661 0.4849
vn -0.6027 -0.5809 -0.5471
vn -0.7652 0.0734 -0.6396
vn -0.1427 0.8016 -0.5805
vn 0.1093 0.5434 0.8323
vn 0.4931 -0.5506 -0.6735
vn 0.7399 -0.6276 -0.2422
vn -0.7833 0.6182 0.0655
vn -0.5437 0.4834 0.6861
vn -0.4777 0.5882 0.6526
vn -0.8879 -0.0429 0.4581
vn 0.9291 0.1191 0.3502
vn -0.7512 0.2200 0.6224
vn -0.9973 0.0728 0.0042
vn -0.2139 0.9462 0.2430
vn -0.9049 0.3940 0.1609
vn 0.0629 -0.9892 -0.1324
vn -0.9140 -0.1738 0.3667
vn -0.9621 -0.1264 -0.2415
vn -0.8627 -0.5056 -0.0077
vn -0.1906 0.6607 0.7260
vn -0.5679 0.3327 0.7529
vn -0.3835 -0.7808 -0.4932
vn 0.5681 0.4476 0.6906
vn -0.2408 0.5067 0.8278
vn 0.4114 -0.5179 -0.7500
vn 0.7865 0.5903 0.1813
vn 0.0971 -0.6119 0.7849
vn 0.1593 -0.9683 -0.1922
vn -0.0573 0.5479 0.8346
vn 0.3716 -0.9208 0.1182
vn -0.9794 -0.1144 -0.1665
vn 0.7866 -0.4142 -0.4579
vn 0.5739 0.7059 0.4152
vn -0.2315 -0.7912 -0.5661
vn -0.4030 -0.6932 -0.5975
vn 0.5089 -0.0315 0.8602
vn 0.8136 -0.2613 -0.5194
vn -0.5332 -0.5956 -0.6009
vn 0.9009 0.3191 0.2943
vn -0.8707 -0.4902 -0.0404
vn 0.2148 0.2501 0.9441
vn -0.6345 -0.3578 -0.6851
vn -0.7878 -0.6073 -0.1024
vn -0.3807 -0.1016 -0.9191
vn 0.8502 -0.4464 -0.2792
vn -0.9474 -0.1389 -0.2885
vn 0.8809 0.4727 0.0233
vn -0.9951 0.0296 0.0941
vn -0.7002 0.6410 0.3144
vn -0.7917 0.3193 -0.5208
vn 0.0924 -0.9086 -0.4073
vn -0.1095 0.5322 0.8395
vn -0.6752 0.1401 -0.7242
vn -0.1524 -0.9609 -0.2313
vn -0.2664 0.6046 0.7507
vn -0.8085 0.5867 0.0461
vn 0.6245 0.5440 0.5605
vn 0.4951 -0.7234 -0.4812
vn 0.4467 -0.7694 -0.4567
vn -0.7379 -0.4312 -0.5193
vn 0.9662 -0.2556 -0.0349
vn 0.6405 -0.4563 0.6177
vn -0.8459 0.1681 0.5061
vn -0.8918 0.2795 -0.3559
vn -0.8190 -0.5699 0.0667
vn 0.9824 -0.0927 -0.1619
vn 0.2784 -0.7427 -0.6090
vn -0.6497 0.5369 0.5382
vn 0.7284 -0.0920 -0.6789
vn -0.6866 -0.5954 -0.4172
vn -0.1065 0.7601 0.6411
vn 0.8314 -0.1922 -0.5213
vn -0.7601 -0.6495 -0.0212
vn 0.7606 0.6002 0.2475
vn 0.2687 0.4063 -0.8733
vn 0.9203 0.0053 0.3912
vn 0.9219 0.0166 -0.3872
vn 0.3271 0.7181 0.6142
vn -0.3777 0.9127 -0.1560
vn 0.7192 -0.6942 -0.0290
vn 0.8524 -0.2344 -0.4674
vn -0.6505 -0.5553 -0.5181
vn 0.0487 -0.9718 -0.2307
vn -0.8819 -0.3606 0.3038
vn 0.9437 0.1645 -0.2871
vn -0.9155 -0.1735 0.3629
vn 0.2196 -0.4044 -0.8878
vn -0.6945 0.2036 0.6901
vn 0.1002 0.7980 -0.5943
vn -0.5019 -0.7492 -0.4322
vn 0.7716 -0.6359 -0.0165
vn -0.6961 0.6061 0.3848
vn -0.0424 -0.5777 -0.8151
vn 0.0881 0.1359 0.9868
vn -0.7296 -0.6447 -0.2283
vn -0.4205 0.6734 0.6080
vn 0.6304 0.6765 0.3808
vn 0.7187 0.6340 0.2854
vn -0.2457 0.6948 0.6759
vn 0.9693 -0.0132 0.2454
vn 0.9077 -0.3633 0.2101
vn -0.9355 -0.1943 -0.2951
vn 0.8274 -0.1667 -0.5363
vn 0.7737 0.5823 0.2496
vn -0.3112 -0.4807 -0.8198
vn -0.6284 -0.6880 -0.3630
vn 0.2089 -0.9501 -0.2316
vn -0.0488 -0.5159 -0.8553
vn 0.8133 0.4263 0.3960
vn 0.3745 -0.7417 -0.5565
vn -0.4613 -0.5955 -0.6577
vn -0.3892 -0.7273 -0.5653
vn 0.6786 -0.7340 0.0270
vn 0.2016 0.6029 0.7719
vn -0.5808 0.4708 0.6641
vn -0.7708 0.4367 -0.4638
vn -0.1932 -0.2477 -0.9494
vn 0.1152 0.8508 0.5127
vn -0.4057 -0.0557 -0.9123
vn 0.1480 -0.7499 -0.6448
vn 0.7049 0.7093 -0.0025
vn 0.8480 -0.2590 -0.4623
vn 0.8310 0.2224 0.5100
vn 0.2581 -0.5117 0.8195
vn -0.1733 -0.8348 0.5225
vn 0.8646 -0.4465 -0.2306
vn 0.9856 -0.1391 0.0959
vn 0.9147 0.0998 -0.3917
vn -0.3922 0.7319 -0.5572
vn -0.9172 -0.2765 -0.2867
vn -0.4915 0.5316 0.6898
vn -0.7095 -0.6543 -0.2619
vn -0.0256 -0.6958 -0.7177
vn 0.3499 -0.5936 -0.7247
vn 0.6515 -0.4158 -0.6345
vn -0.6017 0.1856 -0.7769
vn 0.9979 0.0480 0.0431
vn 0.9201 0.3638 0.1451
vn 0.5861 -0.4246 -0.6901
vn -0.0524 -0.8457 -0.5311
vn -0.2459 -0.4563 -0.8552
vn -0.0503 -0.8499 -0.5246
vn -0.5654 -0.1020 -0.8185
vn 0.3979 0.8431 0.3617
vn 0.7091 -0.4403 0.5507
vn 0.5751 -0.4294 -0.6963
vn 0.6196 0.5273 0.5815
vn -0.7410 -0.2861 -0.6075
vn 0.9625 0.0742 -0.2608
vn 0.7106 -0.6027 -0.3631
vn 0.3783 -0.9245 -0.0469
vn 0.4608 0.7300 0.5047
vn 0.5698 -0.4160 -0.7087
vn -0.8540 -0.0969 -0.5112
f 421//421 296//296 4//4
f 293//293 179//179 38//38
f 209//209 246//246 190//190
f 70//70 319//319 262//262
f 111//111 197//197 311//311
f 58//58 194//194 424//424
f 398//398 309//309 4//4
f 402//402 225//225 13//13
f 88//88 413//413 72//72
f 92//92 336//336 257//257
f 61//61 210//210 162//162
f 54//54 326//326 381//381
f 52//52 254//254 279//279
f 157//157 447//447 379//379
f 383//383 50//50 426//426
f 401//401 126//126 426//426
f 67//67 114//114 16//16
f 354//354 85//85 37//37
f 72//72 413//413 124//124
f 26//26 228//228 121//121
f 399//399 55//55 378//378
f 267//267 213//213 231//231
f 151//151 441//441 117//117
f 424//424 330//330 58//58
f 380//380 23//23 106//106
f 149//149 366//366 193//193
f 258//258 400//400 84//84
f 263//263 73//73 11//11
f 433//433 335//335 370//370
f 162//162 210//210 393//393
f 102//102 246//246 209//209
f 182//182 278//278 59//59
f 50//50 241//241 426//426
f 216//216 392//392 163//163
f 27//27 280//280 214//214
f 430//430 49//49 6//6
f 108//108 154//154 442//442
f 169//169 417//417 41//41
f 103//103 180//180 189//189
f 119//119 243//243 183//183
f 287//287 56//56 396//396
f 293//293 192//192 412//412
f 245//245 411//411 360//360
f 292//292 308//308 134//134
f 251//251 134//134 308//308
f 127//127 144//144 374//374
f 427//427 227//227 377//377
f 56//56 324//324 395//395
f 194//194 425//425 86//86
f 206//206 381//381 352//352
f 382//382 256//256 211//211
f 303//303 59//59 232//232
f 202//202 266//266 316//316
f 286//286 377//377 290//290
f 263//263 11//11 416//416
f 37//37 351//351 281//281
f 213//213 200//200 311//311
f 167//167 152//152 391//391
f 245//245 201//201 328//328
f 241//241 33//33 181//181
f 177//177 25//25 288//288
f 59//59 436//436 232//232
f 264//264 109//109 361//361
f 415//415 103//103 406//406
f 350//350 293//293 412//412
f 223//223 188//188 10//10
f 55//55 176//176 205//205
f 192//192 38//38 195//195
f 79//79 270//270 239//239
f 375//375 447//447 2//2
f 379//379 447//447 335//335
f 330//330 110//110 126//126
f 130//130 100//100 237//237
f 287//287 249//249 33//33
f 68//68 79//79 239//239
f 108//108 419//419 14//14
f 227//227 129//129 377//377
f 117//117 441//441 177//177
f 376//376 282//282 395//395
f 120//120 239//239 49//49
f 120//120 68//68 239//239
f 414//414 348//348 45//45
f 16//16 92//92 257//257
f 117//117 177//177 332//332
f 123//123 183//183 388//388
f 335//335 447//447 375//375
f 66//66 184//184 175//175
f 13//13 145//145 419//419
f 13//13 419//419 402//402
f 240//240 110//110 86//86
f 268//268 190//190 54//54
f 365//365 205//205 299//299
f 429//429 318//318 73//73
f 375//375 383//383 126//126
f 41//41 190//190 268//268
f 319//319 350//350 386//386
f 190//190 246//246 405//405
f 316//316 198//198 297//297
f 429//429 73//73 413//413
f 73//73 394//394 413//413
f 426//426 241//241 181//181
f 12//12 387//387 373//373
f 369//369 192//192 195//195
f 355//355 327//327 142//142
f 76//76 444//444 291//291
f 372//372 34//34 450//450
f 225//225 34//34 24//24
f 407//407 100//100 130//130
f 320//320 95//95 283//283
f 107//107 76//76 79//79
f 181//181 58//58 330//330
f 76//76 291//291 274//274
f 198//198 409//409 28//28
f 321//321 51//51 298//298
f 73//73 318//318 11//11
f 387//387 12//12 301//301
f 393//393 210//210 120//120
f 72//72 124//124 31//31
f 187//187 341//341 400//400
f 174//174 93//93 349//349
f 212//212 31//31 90//90
f 331//331 402//402 442//442
f 128//128 340//340 428//428
f 3//3 342//342 12//12
f 32//32 215//215 53//53
f 395//395 324//324 372//372
f 239//239 15//15 49//49
f 394//394 73//73 263//263
f 123//123 78//78 422//422
f 207//207 135//135 141//141
f 19//19 128//128 428//428
f 77//77 125//125 129//129
f 101//101 20//20 58//58
f 431//431 112//112 133//133
f 414//414 45//45 351//351
f 102//102 451//451 246//246
f 295//295 195//195 397//397
f 133//133 186//186 431//431
f 39//39 118//118 107//107
f 1//1 26//26 314//314
f 36//36 387//387 22//22
f 388//388 183//183 243//243
f 439//439 35//35 159//159
f 377//377 129//129 69//69
f 269//269 353//353 306//306
f 253//253 104//104 175//175
f 151//151 281//281 441//441
f 269//269 104//104 221//221
f 305//305 354//354 347//347
f 218//218 298//298 249//249
f 188//188 74//74 111//111
f 36//36 108//108 14//14
f 353//353 172//172 306//306
f 210//210 68//68 120//120
f 340//340 434//434 342//342
f 42//42 19//19 8//8
f 36//36 22//22 108//108
f 380//380 222//222 87//87
f 442//442 402//402 419//419
f 18//18 29//29 217//217
f 230//230 27//27 403//403
f 340//340 342//342 39//39
f 418//418 365//365 55//55
f 103//103 248//248 180//180
f 300//300 23//23 417//417
f 46//46 138//138 347//347
f 340//340 61//61 428//428
f 373//373 139//139 7//7
f 373//373 7//7 118//118
f 422//422 364//364 203//203
f 383//383 2//2 65//65
f 186//186 178//178 408//408
f 348//348 300//300 45//45
f 387//387 301//301 286//286
f 254//254 16//16 114//114
f 428//428 61//61 162//162
f 14//14 139//139 36//36
f 301//301 427//427 286//286
f 439//439 358//358 30//30
f 175//175 184//184 253//253
f 40//40 42//42 31//31
f 341//341 161//161 156//156
f 441//441 281//281 351//351
f 220//220 127//127 71//71
f 96//96 432//432 243//243
f 410//410 49//49 15//15
f 426//426 330//330 401//401
f 330//330 426//426 181//181
f 98//98 7//7 139//139
f 437//437 55//55 399//399
f 98//98 14//14 9//9
f 244//244 280//280 27//27
f 131//131 62//62 238//238
f 77//77 227//227 19//19
f 227//227 362//362 19//19
f 342//342 434//434 12//12
f 161//161 242//242 392//392
f 108//108 22//22 5//5
f 342//342 3//3 39//39
f 179//179 436//436 153//153
f 22//22 290//290 5//5
f 175//175 269//269 173//173
f 142//142 229//229 123//123
f 309//309 51//51 4//4
f 345//345 24//24 34//34
f 375//375 2//2 383//383
f 140//140 343//343 114//114
f 68//68 340//340 39//39
f 68//68 61//61 340//340
f 428//428 8//8 19//19
f 135//135 205//205 176//176
f 128//128 362//362 434//434
f 242//242 310//310 136//136
f 221//221 376//376 255//255
f 104//104 376//376 221//221
f 292//292 134//134 382//382
f 77//77 19//19 42//42
f 428//428 162//162 8//8
f 444//444 7//7 367//367
f 302//302 319//319 70//70
f 77//77 129//129 227//227
f 146//146 54//54 381//381
f 118//118 385//385 107//107
f 278//278 436//436 59//59
f 385//385 76//76 107//107
f 139//139 373//373 36//36
f 44//44 404//404 277//277
f 216//216 208//208 245//245
f 169//169 45//45 417//417
f 362//362 427//427 434//434
f 15//15 112//112 431//431
f 52//52 279//279 233//233
f 3//3 118//118 39//39
f 209//209 23//23 87//87
f 98//98 139//139 14//14
f 12//12 118//118 3//3
f 191//191 27//27 230//230
f 292//292 271//271 308//308
f 368//368 409//409 198//198
f 334//334 189//189 180//180
f 254//254 114//114 95//95
f 57//57 246//246 158//158
f 367//367 98//98 9//9
f 9//9 14//14 145//145
f 283//283 356//356 343//343
f 339//339 260//260 105//105
f 147//147 105//105 273//273
f 317//317 134//134 251//251
f 79//79 68//68 39//39
f 132//132 44//44 167//167
f 448//448 62//62 236//236
f 410//410 15//15 431//431
f 20//20 398//398 194//194
f 369//369 195//195 295//295
f 249//249 101//101 33//33
f 187//187 258//258 99//99
f 349//349 357//357 91//91
f 8//8 90//90 42//42
f 18//18 217//217 250//250
f 272//272 179//179 160//160
f 247//247 29//29 185//185
f 290//290 69//69 312//312
f 327//327 322//322 229//229
f 35//35 80//80 204//204
f 40//40 77//77 42//42
f 40//40 125//125 77//77
f 112//112 110//110 133//133
f 57//57 158//158 261//261
f 444//444 367//367 379//379
f 390//390 46//46 207//207
f 124//124 40//40 31//31
f 298//298 398//398 249//249
f 262//262 132//132 315//315
f 100//100 445//445 89//89
f 274//274 433//433 110//110
f 99//99 354//354 310//310
f 17//17 364//364 96//96
f 91//91 357//357 16//16
f 385//385 7//7 444//444
f 204//204 247//247 230//230
f 168//168 43//43 371//371
f 36//36 373//373 387//387
f 31//31 42//42 90//90
f 385//385 118//118 7//7
f 83//83 206//206 352//352
f 94//94 406//406 103//103
f 115//115 406//406 94//94
f 404//404 283//283 277//277
f 407//407 140//140 160//160
f 395//395 282//282 396//396
f 45//45 300//300 417//417
f 39//39 107//107 79//79
f 194//194 398//398 425//425
f 384//384 199//199 137//137
f 90//90 165//165 212//212
f 37//37 414//414 351//351
f 379//379 367//367 157//157
f 9//9 157//157 367//367
f 204//204 230//230 81//81
f 25//25 441//441 224//224
f 404//404 320//320 283//283
f 145//145 14//14 419//419
f 90//90 162//162 165//165
f 279//279 219//219 449//449
f 381//381 261//261 254//254
f 356//356 114//114 343//343
f 392//392 443//443 228//228
f 246//246 451//451 174//174
f 87//87 102//102 209//209
f 19//19 362//362 128//128
f 9//9 145//145 157//157
f 280//280 361//361 329//329
f 86//86 110//110 424//424
f 153//153 278//278 265//265
f 185//185 280//280 244//244
f 192//192 293//293 38//38
f 385//385 444//444 76//76
f 307//307 306//306 74//74
f 404//404 44//44 262//262
f 333//333 60//60 222//222
f 85//85 354//354 305//305
f 265//265 238//238 48//48
f 391//391 294//294 168//168
f 255//255 450//450 11//11
f 299//299 206//206 83//83
f 281//281 354//354 37//37
f 168//168 132//132 391//391
f 41//41 209//209 190//190
f 386//386 199//199 384//384
f 227//227 427//427 362//362
f 282//282 321//321 218//218
f 176//176 55//55 437//437
f 10//10 188//188 111//111
f 318//318 255//255 11//11
f 132//132 371//371 315//315
f 232//232 17//17 303//303
f 361//361 185//185 18//18
f 223//223 307//307 188//188
f 397//397 366//366 149//149
f 158//158 349//349 261//261
f 440//440 122//122 30//30
f 242//242 136//136 392//392
f 361//361 109//109 329//329
f 306//306 172//172 164//164
f 321//321 104//104 253//253
f 381//381 254//254 52//52
f 62//62 131//131 182//182
f 158//158 174//174 349//349
f 363//363 382//382 134//134
f 69//69 75//75 312//312
f 438//438 54//54 1//1
f 217//217 412//412 369//369
f 109//109 446//446 329//329
f 234//234 250//250 82//82
f 234//234 82//82 171//171
f 368//368 198//198 116//116
f 170//170 63//63 163//163
f 325//325 315//315 371//371
f 325//325 70//70 315//315
f 313//313 113//113 149//149
f 322//322 272//272 160//160
f 302//302 293//293 350//350
f 124//124 394//394 40//40
f 21//21 127//127 304//304
f 359//359 304//304 127//127
f 32//32 64//64 390//390
f 381//381 52//52 352//352
f 224//224 351//351 169//169
f 60//60 186//186 222//222
f 218//218 287//287 282//282
f 13//13 24//24 157//157
f 200//200 10//10 111//111
f 452//452 415//415 406//406
f 162//162 338//338 165//165
f 171//171 289//289 196//196
f 253//253 51//51 321//321
f 390//390 260//260 32//32
f 274//274 110//110 112//112
f 127//127 199//199 71//71
f 357//357 303//303 16//16
f 421//421 184//184 337//337
f 193//193 267//267 313//313
f 156//156 161//161 228//228
f 20//20 249//249 398//398
f 271//271 172//172 88//88
f 162//162 90//90 8//8
f 46//46 258//258 84//84
f 207//207 46//46 84//84
f 11//11 450//450 331//331
f 280//280 329//329 214//214
f 23//23 380//380 87//87
f 450//450 34//34 331//331
f 396//396 56//56 395//395
f 440//440 304//304 122//122
f 414//414 37//37 85//85
f 446//446 439//439 159//159
f 324//324 56//56 65//65
f 66//66 38//38 48//48
f 449//449 199//199 21//21
f 449//449 219//219 199//199
f 119//119 96//96 243//243
f 389//389 325//325 43//43
f 29//29 247//247 374//374
f 320//320 219//219 95//95
f 155//155 116//116 316//316
f 248//248 437//437 180//180
f 306//306 259//259 74//74
f 80//80 122//122 359//359
f 369//369 64//64 250//250
f 216//216 360//360 443//443
f 233//233 449//449 304//304
f 56//56 50//50 65//65
f 142//142 123//123 422//422
f 345//345 34//34 372//372
f 216//216 163//163 208//208
f 198//198 344//344 297//297
f 265//265 38//38 153//153
f 61//61 68//68 210//210
f 84//84 341//341 299//299
f 355//355 232//232 436//436
f 441//441 351//351 224//224
f 332//332 328//328 201//201
f 50//50 287//287 241//241
f 246//246 57//57 405//405
f 307//307 74//74 188//188
f 344//344 311//311 202//202
f 161//161 341//341 187//187
f 293//293 407//407 160//160
f 421//421 337//337 296//296
f 245//245 360//360 216//216
f 268//268 224//224 169//169
f 363//363 317//317 6//6
f 289//289 215//215 275//275
f 248//248 103//103 415//415
f 2//2 447//447 24//24
f 165//165 251//251 212//212
f 62//62 97//97 296//296
f 280//280 185//185 361//361
f 338//338 162//162 393//393
f 343//343 130//130 283//283
f 167//167 323//323 152//152
f 197//197 266//266 202//202
f 382//382 363//363 155//155
f 34//34 225//225 331//331
f 277//277 167//167 44//44
f 92//92 119//119 336//336
f 305//305 113//113 85//85
f 381//381 326//326 261//261
f 285//285 60//60 333//333
f 173//173 223//223 397//397
f 215//215 399//399 275//275
f 335//335 444//444 379//379
f 359//359 374//374 204//204
f 60//60 285//285 28//28
f 2//2 345//345 65//65
f 109//109 358//358 446//446
f 407//407 445//445 100//100
f 141//141 135//135 452//452
f 26//26 146//146 381//381
f 205//205 418//418 55//55
f 182//182 131//131 278//278
f 86//86 448//448 240//240
f 219//219 137//137 199//199
f 452//452 115//115 273//273
f 178//178 240//240 448//448
f 132//132 167//167 391//391
f 137//137 404//404 262//262
f 440//440 233//233 304//304
f 136//136 310//310 170//170
f 64//64 369//369 295//295
f 354//354 170//170 310//310
f 446//446 159//159 403//403
f 443//443 392//392 216//216
f 52//52 252//252 150//150
f 58//58 20//20 194//194
f 52//52 233//233 252//252
f 226//226 114//114 67//67
f 12//12 427//427 301//301
f 10//10 200//200 193//193
f 392//392 136//136 163//163
f 202//202 316//316 297//297
f 408//408 448//448 236//236
f 234//234 18//18 250//250
f 290//290 312//312 5//5
f 13//13 225//225 24//24
f 321//321 376//376 104//104
f 420//420 62//62 182//182
f 25//25 314//314 121//121
f 388//388 432//432 78//78
f 311//311 344//344 213//213
f 51//51 421//421 4//4
f 99//99 161//161 187//187
f 238//238 265//265 131//131
f 232//232 203//203 364//364
f 193//193 366//366 10//10
f 57//57 261//261 326//326
f 343//343 435//435 130//130
f 197//197 346//346 266//266
f 119//119 17//17 96//96
f 43//43 294//294 389//389
f 176//176 437//437 135//135
f 449//449 21//21 304//304
f 322//322 327//327 272//272
f 186//186 408//408 222//222
f 22//22 387//387 286//286
f 22//22 286//286 290//290
f 207//207 260//260 390//390
f 259//259 346//346 47//47
f 203//203 142//142 422//422
f 59//59 420//420 182//182
f 435//435 343//343 140//140
f 223//223 269//269 307//307
f 323//323 130//130 152//152
f 363//363 6//6 116//116
f 222//222 102//102 87//87
f 433//433 126//126 110//110
f 437//437 399//399 180//180
f 113//113 348//348 414//414
f 4//4 425//425 398//398
f 170//170 281//281 151//151
f 291//291 444//444 335//335
f 195//195 284//284 397//397
f 306//306 307//307 269//269
f 181//181 33//33 101//101
f 293//293 445//445 407//407
f 282//282 287//287 396//396
f 439//439 30//30 80//80
f 109//109 264//264 234//234
f 221//221 353//353 269//269
f 272//272 355//355 436//436
f 137//137 219//219 320//320
f 260//260 273//273 105//105
f 380//380 106//106 213//213
f 306//306 164//164 259//259
f 66//66 48//48 184//184
f 91//91 16//16 254//254
f 308//308 72//72 212//212
f 138//138 295//295 347//347
f 24//24 345//345 2//2
f 205//205 84//84 299//299
f 353//353 318//318 172//172
f 279//279 95//95 219//219
f 259//259 164//164 292//292
f 204//204 81//81 159//159
f 283//283 323//323 277//277
f 339//339 215//215 32//32
f 208//208 276//276 245//245
f 398//398 298//298 309//309
f 393//393 120//120 430//430
f 143//143 294//294 391//391
f 212//212 251//251 308//308
f 300//300 231//231 106//106
f 244//244 27//27 191//191
f 299//299 83//83 365//365
f 144//144 127//127 220//220
f 338//338 317//317 165//165
f 95//95 114//114 356//356
f 209//209 41//41 417//417
f 234//234 196//196 109//109
f 302//302 350//350 319//319
f 108//108 5//5 154//154
f 442//442 416//416 11//11
f 352//352 52//52 83//83
f 80//80 35//35 439//439
f 101//101 249//249 20//20
f 137//137 320//320 404//404
f 170//170 151//151 63//63
f 123//123 257//257 183//183
f 368//368 410//410 409//409
f 246//246 174//174 158//158
f 273//273 260//260 141//141
f 325//325 371//371 43//43
f 287//287 218//218 249//249
f 155//155 256//256 382//382
f 360//360 411//411 443//443
f 329//329 446//446 403//403
f 359//359 204//204 80//80
f 376//376 450//450 255//255
f 60//60 431//431 186//186
f 179//179 272//272 436//436
f 78//78 123//123 388//388
f 56//56 287//287 50//50
f 361//361 18//18 264//264
f 47//47 74//74 259//259
f 95//95 356//356 283//283
f 94//94 147//147 115//115
f 289//289 423//423 196//196
f 432//432 388//388 243//243
f 425//425 4//4 296//296
f 355//355 203//203 232//232
f 86//86 424//424 194//194
f 120//120 49//49 430//430
f 160//160 226//226 322//322
f 262//262 386//386 384//384
f 325//325 89//89 70//70
f 104//104 269//269 175//175
f 415//415 135//135 437//437
f 85//85 113//113 414//414
f 38//38 265//265 48//48
f 268//268 54//54 438//438
f 47//47 346//346 197//197
f 314//314 26//26 121//121
f 411//411 25//25 121//121
f 164//164 271//271 292//292
f 350//350 71//71 386//386
f 403//403 214//214 329//329
f 321//321 298//298 218//218
f 32//32 53//53 64//64
f 294//294 143//143 237//237
f 234//234 171//171 196//196
f 97//97 62//62 448//448
f 138//138 64//64 295//295
f 302//302 445//445 293//293
f 186//186 133//133 178//178
f 127//127 21//21 199//199
f 89//89 445//445 302//302
f 317//317 430//430 6//6
f 417//417 23//23 209//209
f 86//86 296//296 97//97
f 338//338 393//393 430//430
f 229//229 67//67 257//257
f 172//172 318//318 429//429
f 432//432 96//96 364//364
f 10//10 366//366 223//223
f 251//251 165//165 317//317
f 142//142 327//327 229//229
f 317//317 338//338 430//430
f 250//250 53//53 82//82
f 195//195 66//66 284//284
f 289//289 275//275 423//423
f 313//313 267//267 113//113
f 267//267 231//231 113//113
f 29//29 374//374 144//144
f 317//317 363//363 134//134
f 341//341 206//206 299//299
f 441//441 25//25 177//177
f 289//289 82//82 53//53
f 224//224 438//438 25//25
f 262//262 44//44 132//132
f 213//213 106//106 231//231
f 262//262 319//319 386//386
f 126//126 401//401 330//330
f 35//35 204//204 159//159
f 204//204 374//374 247//247
f 341//341 156//156 26//26
f 370//370 335//335 375//375
f 257//257 67//67 16//16
f 433//433 274//274 291//291
f 189//189 94//94 103//103
f 344//344 166//166 213//213
f 166//166 380//380 213//213
f 46//46 99//99 258//258
f 200//200 111//111 311//311
f 89//89 325//325 237//237
f 164//164 172//172 271//271
f 281//281 170//170 354//354
f 132//132 168//168 371//371
f 363//363 116//116 155//155
f 197//197 74//74 47//47
f 121//121 228//228 443//443
f 86//86 97//97 448//448
f 151//151 117//117 148//148
f 348//348 231//231 300//300
f 180//180 339//339 334//334
f 235//235 339//339 180//180
f 54//54 405//405 326//326
f 438//438 224//224 268//268
f 115//115 452//452 406//406
f 92//92 303//303 119//119
f 427//427 377//377 286//286
f 435//435 140//140 407//407
f 277//277 323//323 167//167
f 296//296 238//238 62//62
f 296//296 337//337 238//238
f 305//305 347//347 149//149
f 382//382 211//211 292//292
f 193//193 200//200 267//267
f 313//313 149//149 193//193
f 113//113 305//305 149//149
f 113//113 231//231 348//348
f 171//171 82//82 289//289
f 273//273 115//115 147//147
f 349//349 93//93 357//357
f 152//152 130//130 143//143
f 233//233 279//279 449//449
f 63//63 151//151 148//148
f 127//127 374//374 359//359
f 376//376 321//321 282//282
f 190//190 405//405 54//54
f 332//332 177//177 288//288
f 25//25 411//411 288//288
f 332//332 288//288 328//328
f 339//339 105//105 334//334
f 201//201 148//148 332//332
f 435//435 407//407 130//130
f 260//260 207//207 141//141
f 28//28 409//409 60//60
f 415//415 437//437 248//248
f 410//410 368//368 6//6
f 357//357 93//93 59//59
f 269//269 223//223 173//173
f 341//341 26//26 206//206
f 257//257 336//336 183//183
f 99//99 347//347 354//354
f 110//110 330//330 424//424
f 55//55 365//365 378//378
f 252//252 423//423 150//150
f 187//187 400//400 258//258
f 12//12 373//373 118//118
f 89//89 302//302 70//70
f 26//26 381//381 206//206
f 334//334 105//105 147//147
f 71//71 412//412 220//220
f 160//160 140//140 226//226
f 351//351 45//45 169//169
f 279//279 254//254 95//95
f 408//408 178//178 448//448
f 420//420 174//174 451//451
f 271//271 72//72 308//308
f 312//312 75//75 154//154
f 312//312 154//154 5//5
f 278//278 153//153 436//436
f 221//221 318//318 353//353
f 423//423 275//275 378//378
f 170//170 163//163 136//136
f 426//426 126//126 383//383
f 54//54 146//146 1//1
f 149//149 295//295 397//397
f 347//347 295//295 149//149
f 264//264 18//18 234//234
f 15//15 270//270 112//112
f 133//133 110//110 240//240
f 261//261 349//349 254//254
f 100//100 89//89 237//237
f 38//38 66//66 195//195
f 345//345 324//324 65//65
f 324//324 345//345 372//372
f 263//263 154//154 75//75
f 322//322 226//226 67//67
f 431//431 409//409 410//410
f 208//208 63//63 148//148
f 126//126 433//433 370//370
f 331//331 225//225 402//402
f 99//99 46//46 347//347
f 236//236 451//451 102//102
f 339//339 32//32 260//260
f 429//429 413//413 88//88
f 161//161 99//99 310//310
f 240//240 178//178 133//133
f 163//163 63//63 208//208
f 298//298 51//51 309//309
f 138//138 390//390 64//64
f 316//316 116//116 198//198
f 11//11 331//331 442//442
f 159//159 81//81 403//403
f 256//256 259//259 211//211
f 378//378 275//275 399//399
f 245//245 276//276 201//201
f 235//235 180//180 215//215
f 215//215 180//180 399//399
f 196//196 252//252 233//233
f 334//334 147//147 94//94
f 433//433 291//291 335//335
f 179//179 153//153 38//38
f 245//245 328//328 411//411
f 432//432 364//364 78//78
f 287//287 33//33 241//241
f 247//247 191//191 230//230
f 247//247 185//185 244//244
f 26//26 1//1 146//146
f 75//75 40//40 394//394
f 157//157 145//145 13//13
f 221//221 255//255 318//318
f 184//184 421//421 253//253
f 434//434 427//427 12//12
f 327//327 355//355 272//272
f 254//254 349//349 91//91
f 29//29 220//220 217//217
f 257//257 123//123 229//229
f 397//397 223//223 366//366
f 314//314 25//25 438//438
f 236//236 62//62 420//420
f 395//395 372//372 450//450
f 274//274 112//112 270//270
f 419//419 108//108 442//442
f 268//268 169//169 41//41
f 48//48 238//238 337//337
f 450//450 376//376 395//395
f 377//377 69//69 290//290
f 174//174 420//420 59//59
f 237//237 325//325 389//389
f 334//334 94//94 189//189
f 346//346 256//256 155//155
f 412//412 71//71 350//350
f 421//421 51//51 253//253
f 316//316 266//266 155//155
f 452//452 273//273 141//141
f 346//346 259//259 256//256
f 116//116 6//6 368//368
f 294//294 237//237 389//389
f 150//150 378//378 83//83
f 83//83 52//52 150//150
f 392//392 228//228 161//161
f 271//271 88//88 72//72
f 284//284 175//175 173//173
f 451//451 236//236 420//420
f 84//84 400//400 341//341
f 367//367 7//7 98//98
f 160//160 179//179 293//293
f 358//358 440//440 30//30
f 157//157 24//24 447//447
f 16//16 303//303 92//92
f 403//403 81//81 230//230
f 202//202 311//311 197//197
f 250//250 217//217 369//369
f 409//409 431//431 60//60
f 370//370 375//375 126//126
f 391//391 152//152 143//143
f 446//446 358//358 439//439
f 53//53 215//215 289//289
f 29//29 18//18 185//185
f 156//156 228//228 26//26
f 207//207 84//84 135//135
f 142//142 203//203 355//355
f 215//215 339//339 235//235
f 166//166 28//28 285//285
f 323//323 283//283 130//130
f 422//422 78//78 364//364
f 378//378 365//365 83//83
f 412//412 192//192 369//369
f 29//29 144//144 220//220
f 198//198 28//28 166//166
f 64//64 53//53 250//250
f 70//70 262//262 315//315
f 344//344 198//198 166//166
f 394//394 124//124 413//413
f 174//174 59//59 93//93
f 119//119 303//303 17//17
f 196//196 423//423 252//252
f 346//346 155//155 266//266
f 125//125 40//40 75//75
f 154//154 416//416 442//442
f 285//285 380//380 166//166
f 285//285 333//333 380//380
f 357//357 59//59 303//303
f 205//205 365//365 418//418
f 66//66 175//175 284//284
f 125//125 75//75 69//69
f 217//217 220//220 412//412
f 75//75 394//394 263//263
f 128//128 434//434 340//340
f 168//168 294//294 43//43
f 48//48 337//337 184//184
f 405//405 57//57 326//326
f 423//423 378//378 150//150
f 143//143 130//130 237//237
f 49//49 410//410 6//6
f 200//200 213//213 267//267
f 304//304 359//359 122//122
f 135//135 415//415 452//452
f 244//244 191//191 247//247
f 380//380 333//333 222//222
f 172//172 429//429 88//88
f 148//148 276//276 208//208
f 397//397 284//284 173//173
f 233//233 440//440 358//358
f 196//196 233//233 358//358
f 23//23 300//300 106//106
f 161//161 310//310 242//242
f 211//211 259//259 292//292
f 239//239 270//270 15//15
f 135//135 84//84 205//205
f 181//181 101//101 58//58
f 76//76 274//274 270//270
f 229//229 322//322 67//67
f 438//438 1//1 314//314
f 46//46 390//390 138//138
f 140//140 114//114 226//226
f 72//72 31//31 212//212
f 408//408 102//102 222//222
f 214//214 403//403 27//27
f 69//69 129//129 125//125
f 196//196 358//358 109//109
f 443//443 411//411 121//121
f 328//328 288//288 411//411
f 336//336 119//119 183//183
f 276//276 148//148 201//201
f 296//296 86//86 425//425
f 263//263 416//416 154//154
f 265//265 278//278 131//131
f 236//236 102//102 408//408
f 384//384 137//137 262//262
f 79//79 76//76 270//270
f 71//71 199//199 386//386
f 297//297 344//344 202//202
f 148//148 117//117 332//332
f 111//111 74//74 197//197
f 30//30 122//122 80//80
f 17//17 232//232 364//364
f 383//383 65//65 50//50
