# LOD generated from right_arm.obj by tools/generate_lods.py
v -3.14560 16.72372 7.29748
v -7.20430 3.38590 22.81602
v -6.16701 3.33719 23.97617
v -1.60349 20.83327 6.71907
v -4.79817 23.86218 5.75984
v -9.16261 16.22365 11.71661
v -6.42119 6.25629 17.44065
v -3.27313 4.78244 23.25624
v -6.10665 22.10107 5.20819
v -4.20312 6.46786 18.46694
v -9.53013 14.96638 11.39819
v -6.67679 3.23070 23.23594
v -4.67562 0.18406 26.83512
v -3.88756 3.46486 22.48371
v -6.09889 8.73221 14.19790
v -8.14238 13.51965 10.05503
v -1.06906 22.86632 0.47399
v -3.60461 25.38146 2.33950
v -6.98229 20.24601 6.83685
v -3.89971 3.80882 20.46327
v -1.27091 2.38633 20.79401
v -4.83613 3.37469 23.64117
v -7.81255 16.64555 13.22164
v -5.84460 22.99961 2.07225
v -7.07933 0.53189 26.19830
v -1.94992 22.99303 0.07992
v -0.45617 24.49078 2.11889
v -6.00477 12.73381 10.64697
v -3.80660 5.35561 18.30467
v -5.34123 2.55070 25.27869
v -6.03047 4.26003 24.15736
v -1.85014 19.26621 5.19547
v -7.76191 3.31026 23.23265
v -2.81257 1.45741 24.83097
v -2.18304 2.53110 24.52671
v -5.97528 4.44609 18.78429
v -8.63582 2.15078 23.49174
v -2.63999 3.80836 20.87340
v -3.33407 3.69279 22.75789
v -0.32585 23.26310 1.15468
v -7.56771 2.68063 25.15670
v -5.72747 3.56898 24.25260
v -8.67382 16.84221 11.95998
v -5.23604 24.00774 1.54391
v -2.71000 5.52695 20.66054
v -4.21684 24.63222 4.99861
v -7.94450 3.60865 23.47044
v -7.93473 14.00515 14.98564
v -2.56043 2.70109 24.98416
v -8.33297 2.93988 24.17140
v -9.03153 1.24129 25.00778
v -2.64185 21.18840 8.07764
v -7.14562 7.13363 17.13362
v -3.38873 3.96041 18.87096
v -5.30345 13.77730 10.24721
v -8.52069 3.49784 22.37801
v -5.30494 22.88362 6.95739
v -3.96629 23.44949 6.56054
v -1.26288 22.91371 5.67415
v -7.72557 3.93853 23.34263
v -8.94238 15.04175 13.21478
v -1.89901 24.69228 4.11901
v -2.44631 18.69447 4.88583
v -7.36501 3.49986 21.34820
v -4.97287 2.46784 24.98832
v -5.65345 15.70262 13.61560
v -0.70467 24.37350 3.28913
v -5.15256 3.22964 23.72783
v -3.22242 5.38789 19.03126
v -0.18059 23.46701 3.50352
v -7.51941 15.90516 14.00123
v -5.35943 6.89350 21.72690
v -6.95344 16.68064 13.45070
v -1.37004 2.89260 21.34844
v -7.61979 0.49094 25.78143
v -6.73751 3.45499 22.17933
v 0.03794 22.61072 2.69130
v -7.29283 19.39778 6.54782
v -5.50391 24.29736 3.89508
v -6.85169 2.59525 23.86437
v -5.99442 3.41508 23.68038
v -4.25639 4.29880 23.85296
v -2.76721 0.68804 24.65135
v -5.99186 4.82257 23.99952
v -7.62218 3.59712 23.26647
v -2.70999 25.20472 1.66268
v -4.46482 6.92158 21.36378
v -2.57896 0.47858 25.06042
v -7.33844 0.54186 25.54035
v -2.96012 2.25453 23.99370
v -5.78696 3.79230 24.27856
v -8.84250 16.32190 10.06931
v -1.70112 22.12975 6.51414
v -8.83934 0.99010 24.36868
v -5.26782 2.72025 25.91638
v -8.01579 9.01199 15.62405
v -4.24067 24.78269 1.24966
v -6.80893 1.47946 25.13039
v -3.89750 4.22734 23.77709
v -1.67568 24.79037 0.92460
v -0.29280 22.48329 4.41393
v -4.91365 14.36759 10.96745
v -1.72052 3.85932 20.04502
v -6.17858 11.09802 12.15261
v -5.02243 8.53199 19.58499
v -4.52128 3.72729 21.24117
v -1.77389 21.69782 0.76066
v -6.46146 7.15147 16.47728
v -4.30321 24.06288 0.69183
v -8.43854 5.15226 21.24749
v -4.77776 23.17366 0.70466
v -8.38527 1.76296 24.05109
v -7.04004 2.40456 24.35255
v -7.38302 12.65043 10.48067
v -7.69674 8.82416 15.01276
v -4.43454 7.93860 18.20825
v -5.57918 20.85354 2.56126
v -0.00641 23.42034 2.26938
v -3.10785 21.62385 0.50117
v -9.34435 15.54574 11.92432
v -3.79412 16.52712 6.66142
v -5.91234 23.67727 3.33591
v -3.37911 24.08561 0.27019
v -2.89590 23.45271 -0.04874
v -7.60323 6.85325 20.82770
v -3.37697 25.39542 3.16316
v -4.01837 3.78566 23.66944
v -5.76474 24.00500 2.92095
v -7.16099 0.36851 25.72816
v -9.43955 14.34097 11.07021
v -8.41316 13.53930 14.52784
v -4.20093 25.26975 2.16932
v -1.65049 2.50399 20.60968
v -5.42640 8.70276 19.65012
v -4.53650 3.60056 23.79574
v -2.08627 3.39220 21.21490
v -6.27981 8.15678 20.05024
v -5.06338 5.07775 23.81085
v -6.51184 20.95658 7.98264
v -2.78386 19.03985 9.14805
v -6.00663 22.75780 2.50222
v -7.23471 1.16050 25.27288
v -1.67705 3.61485 21.15366
v -5.15828 4.79616 24.22872
v -3.33230 24.38741 5.41817
v -6.58732 2.73779 25.16425
v -2.36692 0.54274 24.43486
v -4.25508 0.29887 26.51447
v -6.33544 3.17567 23.57056
v -8.59546 1.17538 24.64326
v -4.86689 15.21760 12.06258
v -4.78530 24.75471 4.29638
v -4.63943 25.07980 3.28851
v -2.54325 3.32895 20.54287
v -6.07505 3.83097 21.20958
v -7.08467 6.56044 21.75789
v -7.24327 8.73563 14.56453
v -8.68903 3.02214 24.16650
v -5.11400 10.84636 17.48300
v -5.29843 14.25926 14.85665
v -7.75991 18.99021 8.49811
v -7.16053 4.50283 23.75763
v -6.15619 3.96498 24.18205
v -4.99966 14.50811 13.28212
v -0.66379 22.47951 5.09329
v -4.52451 6.97554 18.05455
v -4.75932 12.76136 15.57711
v -5.63039 7.05491 16.40900
v -3.22022 5.40202 21.56064
v -8.69276 1.71022 23.91984
v -7.83986 3.68465 21.13821
v -9.30000 1.17992 24.87883
v -5.13282 10.65880 13.37178
v -4.61709 8.09566 16.26049
v -1.24391 2.50037 21.12668
v -2.65450 3.61637 19.73072
v -8.44610 17.52300 10.16185
v -8.05152 5.69131 19.18486
v -4.05376 15.66626 10.40111
v -3.01831 4.11529 22.96659
v -6.50400 13.31932 9.77096
v -7.58122 8.20135 18.10491
v -3.87512 6.57761 21.19530
v -8.10705 5.64519 21.55389
v -2.04665 23.72596 5.64125
v -1.52300 19.98734 6.15354
v -2.13713 4.46518 20.48249
v -7.46823 8.17689 18.57024
v -4.34642 10.64542 15.05949
v -0.26862 24.06738 1.49451
v -5.07986 1.69336 25.44609
v -5.44772 8.62041 14.53216
v -5.49794 3.30362 23.89249
v -3.78685 5.79581 22.59125
v -6.79363 7.88338 20.02206
v -3.79440 4.43255 23.74618
v -5.11628 13.45727 12.07859
v -4.46416 2.54842 25.09227
v -5.47462 4.26879 24.61320
v -7.70610 0.63718 26.07210
v -4.64216 8.84791 18.35441
v -4.68882 4.59655 18.10755
v -9.00297 2.90062 23.91875
v -2.43775 3.94834 19.44653
v -3.73687 3.49610 22.72442
v -8.02762 17.93344 10.93199
v -4.89009 2.70844 24.47350
v -3.31724 6.14703 20.14361
v -6.20486 15.75362 14.04964
v -4.79320 1.73984 25.24950
v -5.94530 3.64124 24.00355
v -9.43121 14.37743 11.93111
v -5.01573 15.87021 12.67785
v -2.96068 1.75463 24.29052
v -8.40369 14.70878 9.45631
v -2.23607 0.42242 25.17498
v -3.06815 4.36024 18.79369
v -7.46158 2.75359 24.44376
v -1.97392 0.72037 24.86308
v -7.38254 11.11287 17.26166
v -8.20905 16.83914 12.68978
v -6.15813 21.18899 3.70027
v -7.68139 7.34464 19.20124
v -9.35176 14.81591 12.30414
v -7.46513 0.32923 26.05702
v -7.29022 2.75771 25.39244
v -6.92737 1.13864 25.52259
v -8.63568 3.92311 22.54835
v -2.16253 4.27196 20.73994
v -2.23277 1.43735 25.11658
v -3.46724 4.36274 21.14804
v -8.85995 2.90548 23.31506
v -0.63866 24.43219 1.16160
v -7.50536 6.91492 18.05721
v -4.59697 3.43810 22.67547
v -7.25493 6.37190 18.02918
v -4.44051 0.15285 26.23191
v -2.88851 16.90027 7.66165
v -8.28113 9.94495 15.63906
v -6.64087 8.62083 14.34282
v -2.70207 1.74425 24.04882
v -4.51297 3.12228 26.04407
v -5.87869 18.67945 4.42368
v -3.38387 24.91635 1.09049
v -4.20844 4.88896 18.08654
v -4.30994 3.85251 23.74293
v -7.50653 0.75835 26.32708
v -2.91597 17.06401 8.84646
v -3.20822 2.59573 23.63933
v -4.27706 7.53179 19.34210
v -2.14984 2.95474 20.92436
v -3.07478 4.45766 20.97711
v -5.66180 22.84030 6.34990
v -4.69230 9.08014 15.02517
v -7.40499 3.99293 20.35690
v -5.11559 20.50527 2.29216
v -6.69912 4.57568 24.05469
v -4.99105 24.74685 2.15303
v -4.20247 19.38599 10.39609
v -8.36294 4.21246 21.26633
v -4.37911 11.64120 15.53819
v -4.74378 4.34111 18.37922
v -6.59025 2.30563 24.63707
v -7.46962 4.82006 23.07845
v -1.04960 3.06255 20.38009
v -3.79014 4.05552 21.47045
v -5.34298 2.74591 24.62409
v -2.72854 3.74087 23.84199
v -2.75031 1.28277 24.43823
v -3.50503 5.78986 21.87208
v -3.27077 4.35782 23.77287
v -5.05156 7.33935 16.35068
v -3.40307 19.36759 9.77245
v -5.29753 15.17002 13.51342
v -4.56861 1.11060 25.76797
v -3.69534 3.67217 19.28827
v -6.42134 18.92224 4.79970
v -2.23362 0.28278 24.80626
v -2.60332 2.30624 23.91300
v -6.28239 14.06956 15.60937
v -7.61066 1.42552 25.29285
v -4.17611 22.25573 8.12167
v -5.12016 1.14732 26.11742
v -4.36461 3.59672 23.30124
v -9.25780 1.26464 24.31371
v -3.62633 3.54776 19.96197
v -9.06895 1.87804 23.93020
v -6.00821 8.69277 19.66881
v -5.03466 3.07560 26.06593
v -3.86763 17.98522 4.67391
v -4.63630 -0.02098 26.34955
v -5.91014 11.01796 17.83663
v -4.75805 13.14968 13.16478
v -8.97552 0.95951 24.89502
v -4.61900 9.92589 17.30786
v -8.69050 13.07349 13.89980
v -0.87292 2.69840 21.01182
v -8.08768 2.78555 24.00535
v -6.34813 21.29772 4.60044
v -4.99936 0.55703 26.11849
v -3.35646 4.95835 18.67454
v -8.65701 12.36911 12.15655
v -3.31897 5.04811 22.12898
v -9.33429 13.80503 11.74697
v -5.09384 15.04373 12.94937
v -5.36728 5.80807 17.63547
v -5.57703 13.90385 15.52732
v -5.46611 3.29602 22.75593
v -4.51012 14.76667 9.44090
v -7.75014 6.86346 18.70206
v -9.14006 14.35409 10.44188
v -2.79604 2.51711 24.94881
v -5.66353 12.86697 10.92747
v -7.25811 3.46813 23.17493
v -2.36116 0.90879 25.24567
v -9.36891 15.19185 10.68840
v -9.10437 2.53068 23.79417
v -4.19259 3.77474 21.29859
v -3.42250 4.60004 21.66648
v -8.77523 15.44561 9.71712
v -4.42446 0.11387 26.72442
v -6.78752 1.51267 25.64180
v -0.87251 2.68761 20.62367
v -4.36680 1.11923 25.85044
v -5.31839 3.97713 20.62866
v -5.93275 20.80061 3.23677
v -2.40274 4.73042 19.54111
v -6.13702 21.08477 8.58269
v -1.78033 19.26819 5.79874
v -7.55926 7.61873 17.17004
v -7.01610 10.72958 12.37096
v -3.80361 25.22306 3.77118
v -6.25371 5.69803 23.24597
v -6.65120 9.94087 18.50525
v -4.72521 6.55578 17.74373
v -8.25360 4.00298 23.24640
v -4.88044 22.71385 7.51090
v -3.07103 18.35364 4.66126
v -2.43896 4.08831 20.91001
v -4.77089 0.59443 25.89223
v -7.10175 8.88796 18.74768
v -8.30677 5.94230 19.87346
v -8.30692 2.71724 23.25467
v -5.80112 5.99387 23.02378
v -1.23358 24.47158 0.72254
v -2.34334 17.96230 7.75406
v -4.27210 3.88636 19.16712
v -4.33764 14.98272 9.93384
v -7.64185 5.16834 18.90976
v -1.61158 25.07310 2.96152
v -7.55690 3.21157 22.10342
v -2.93167 3.49418 20.25904
v -2.49598 1.22570 24.26655
v -4.98631 1.11192 25.90189
v -4.33516 7.42688 18.75800
v -2.85045 5.10290 20.92356
v -5.16245 24.05180 5.03478
v -5.07720 6.13916 17.55298
v -7.83147 4.64931 19.53952
v -4.57505 0.80753 26.78302
v -5.32656 12.94709 11.49779
v -7.38817 1.82214 24.78771
v -2.27239 2.27550 24.18216
v -8.22797 12.31270 11.41452
v -2.36666 2.74199 24.86941
v -0.98029 21.47005 1.61692
v -9.41096 15.62840 11.17756
v -2.31981 1.56040 24.22863
v -2.94616 3.70218 20.63904
v -4.24830 1.89408 25.99480
v -7.62632 7.71116 17.84147
v -4.15360 16.19392 11.14642
v -2.56273 18.34130 8.77384
v -7.41525 4.04173 23.55517
v -7.32083 4.56575 19.15174
v -1.63927 2.50124 21.00951
v -3.50887 3.99946 20.81427
v -4.35589 0.38773 26.77953
v -4.87776 0.56698 26.75738
v -8.27674 5.25103 19.88144
v -5.68064 23.30936 5.07211
v -3.94111 20.98594 1.13158
v -5.05099 17.95717 4.66473
v -3.16371 2.43856 24.42284
v -0.46432 21.52623 2.54200
v -0.89085 23.53300 4.75630
v -1.10830 3.25647 21.07591
v -3.55703 3.29457 23.06592
v -8.16852 6.32570 20.29282
v -0.86071 23.80492 0.53588
v -8.51990 4.03028 22.98212
v -9.12099 13.61508 11.11271
v -8.42592 15.68625 13.60106
v -4.78563 21.57594 1.08450
v -4.39945 3.94530 24.19851
v -6.88161 2.75457 25.41946
v -8.32409 10.88882 15.78429
v -4.32169 5.99038 22.67045
v -8.96869 1.25720 24.10443
v -7.25272 7.81759 19.58632
v -4.44833 11.90702 14.47439
v -6.98561 4.93643 18.62114
v -2.86546 22.85787 6.89173
v -7.54299 18.56134 6.83644
v -1.10489 2.58711 20.43672
v -6.71563 4.38946 19.31181
v -4.59077 11.67840 16.12518
v -2.00189 0.58787 25.09644
v -5.26593 13.62448 10.98771
v -1.25790 24.94332 1.71532
v -0.28968 21.77453 3.83014
v -9.26450 0.99661 24.85154
v -5.57352 22.31050 1.57744
v -8.72868 1.21309 24.87520
v -7.12878 1.69235 24.74612
v -0.36319 22.57462 1.42271
v -5.67230 13.65096 9.75475
v -2.30399 25.32206 2.36077
v -4.59523 4.56027 24.06723
v -4.07861 17.85096 11.00069
v -8.37429 4.97239 22.19212
v -7.38439 3.66413 23.42723
v -2.92166 20.64190 1.46115
v -2.14711 24.22207 0.23762
v -4.14742 3.78028 20.17658
v -1.87215 20.88195 1.62380
v -6.20154 3.31286 23.13920
v -0.91021 3.09899 20.73291
v -1.60343 3.01025 20.08493
v -4.95797 0.18867 26.53423
v -3.52913 21.71554 8.40053
v -5.07642 14.17821 11.76338
v -8.83150 12.76680 12.59471
v -4.44820 9.19054 16.60903
v -8.04208 2.73726 23.39747
v -4.77241 5.77349 17.85350
v -7.92091 3.08369 22.68695
v -6.07525 5.73202 17.68979
v -2.03402 0.56872 24.64559
v -4.34894 21.91024 0.66576
v -4.56562 7.90777 19.79456
v -4.28090 3.09461 25.72752
v -8.65809 2.78247 23.20557
v -8.06251 11.45943 16.23207
v -8.20318 3.23169 22.37417
v -5.09888 15.48935 7.43432
v -8.94685 15.85321 12.74851
v -2.50057 25.26798 3.35305
v -3.98624 3.51938 23.35716
v -3.20694 22.72631 0.08161
v -7.15711 1.14182 26.15403
v -7.07392 3.28287 23.34334
vn 0.6517 -0.6938 -0.3063
vn 0.1387 -0.9770 0.1622
vn 0.9464 -0.2730 0.1726
vn 0.8910 -0.0027 0.4540
vn -0.3044 0.7972 0.5213
vn -0.8852 0.4484 0.1239
vn -0.4224 -0.5877 -0.6901
vn 0.8282 0.5121 0.2280
vn -0.9470 0.3198 0.0286
vn 0.7752 0.2657 -0.5731
vn -0.9960 0.0840 0.0288
vn -0.0309 -0.9571 -0.2882
vn -0.2345 -0.4147 0.8792
vn 0.1456 -0.9787 -0.1449
vn 0.1078 -0.7019 -0.7040
vn -0.4408 -0.5851 -0.6808
vn 0.5679 -0.3525 -0.7438
vn -0.0354 0.9783 -0.2043
vn -0.8988 0.4370 -0.0327
vn 0.1525 -0.9443 0.2915
vn 0.2381 -0.9702 -0.0450
vn 0.4964 -0.8457 -0.1958
vn -0.3535 0.7123 0.6063
vn -0.8590 0.2023 -0.4704
vn 0.7885 -0.2967 0.5387
vn 0.2238 -0.1879 -0.9564
vn 0.7379 0.6700 0.0806
vn 0.4685 -0.6524 -0.5957
vn 0.6076 0.2199 -0.7632
vn -0.9464 -0.3110 -0.0874
vn -0.3830 0.0882 0.9195
vn 0.8201 -0.5590 -0.1224
vn 0.8939 -0.3848 0.2300
vn -0.9278 -0.1461 0.3434
vn 0.9710 0.2339 -0.0494
vn -0.2198 -0.9232 -0.3152
vn 0.0033 -0.5757 -0.8177
vn -0.4591 -0.3392 0.8211
vn 0.6369 -0.5042 -0.5832
vn 0.8860 -0.0717 -0.4582
vn -0.9392 0.2511 0.2342
vn -0.8434 -0.5353 0.0462
vn -0.7531 0.6032 0.2627
vn -0.7560 0.4093 -0.5109
vn 0.8170 0.5611 0.1327
vn -0.1651 0.8384 0.5194
vn 0.5325 0.3445 0.7732
vn -0.6219 0.3997 0.6734
vn -0.0693 0.4482 0.8912
vn 0.3547 0.4143 0.8382
vn 0.0120 0.3323 0.9431
vn 0.6396 0.3830 0.6666
vn -0.5474 -0.6927 -0.4696
vn 0.2112 -0.6929 -0.6894
vn 0.7876 -0.6043 -0.1206
vn -0.7631 -0.4621 -0.4519
vn -0.5417 0.7128 0.4455
vn 0.0249 0.7837 0.6206
vn 0.6046 0.4513 0.6563
vn -0.2682 0.2307 0.9353
vn -0.8371 0.1955 0.5109
vn 0.4013 0.7852 0.4715
vn 0.6395 -0.6942 -0.3304
vn 0.1354 -0.9256 -0.3534
vn -0.2379 -0.6559 -0.7163
vn 0.7078 0.4071 0.5772
vn 0.6234 0.6938 0.3606
vn -0.0063 -0.9784 -0.2066
vn 0.7813 0.4565 -0.4256
vn 0.9007 0.3405 0.2698
vn -0.3049 0.5564 0.7729
vn 0.0690 0.7667 0.6383
vn -0.0326 0.6903 0.7228
vn 0.0751 -0.0587 0.9954
vn -0.7340 -0.4930 -0.4671
vn 0.0715 -0.9689 -0.2369
vn 0.9861 -0.1617 -0.0392
vn -0.9422 0.2814 -0.1820
vn -0.7462 0.6485 0.1504
vn -0.0936 -0.7948 -0.5995
vn 0.1605 -0.9422 0.2941
vn 0.5829 -0.1163 0.8042
vn -0.8493 -0.4214 -0.3179
vn -0.2200 0.5455 0.8088
vn 0.2249 -0.5564 0.7999
vn 0.0702 0.9437 -0.3234
vn 0.3193 0.7682 0.5549
vn -0.7527 -0.2459 0.6107
vn -0.2902 -0.4674 -0.8351
vn -0.6458 -0.4974 -0.5792
vn -0.9415 -0.0892 0.3249
vn -0.9432 0.2211 -0.2481
vn 0.7065 0.3296 0.6263
vn 0.2686 -0.8353 -0.4797
vn -0.9187 0.0709 0.3886
vn -0.9093 -0.3827 -0.1635
vn -0.4396 0.6884 -0.5769
vn 0.6476 -0.5500 -0.5274
vn -0.3215 0.2466 0.9142
vn 0.1406 0.8581 -0.4939
vn 0.9343 -0.0483 0.3532
vn 0.8904 -0.4324 0.1424
vn 0.8060 0.3648 -0.4661
vn 0.3679 -0.6181 -0.6947
vn 0.6894 0.5793 0.4349
vn -0.0270 -0.9735 -0.2269
vn 0.3240 -0.5724 -0.7533
vn -0.3091 -0.7664 -0.5631
vn -0.5241 0.4249 -0.7381
vn -0.9764 0.2123 0.0392
vn -0.5781 0.0475 -0.8146
vn 0.6826 -0.5700 -0.4574
vn -0.0491 -0.6216 -0.7818
vn -0.2532 -0.6854 -0.6828
vn -0.7315 -0.5672 -0.3784
vn 0.9991 0.0359 -0.0224
vn -0.7526 -0.3543 -0.5550
vn 0.9798 0.1959 -0.0398
vn 0.0251 -0.5185 -0.8547
vn -0.9488 0.1992 0.2453
vn 0.4446 -0.7570 -0.4789
vn -0.9592 0.2704 0.0820
vn -0.2651 0.4760 -0.8385
vn -0.1606 0.1124 -0.9806
vn -0.6481 0.6428 0.4083
vn -0.0737 0.9935 0.0870
vn -0.7289 -0.2190 0.6487
vn -0.8619 0.4674 -0.1966
vn 0.7124 -0.6043 -0.3569
vn -0.9528 -0.2143 -0.2153
vn -0.8829 0.1405 0.4481
vn -0.3225 0.9268 -0.1924
vn -0.4572 -0.8084 -0.3706
vn 0.2511 0.6901 0.6788
vn 0.8038 -0.5288 -0.2728
vn -0.4674 -0.1537 0.8706
vn -0.2897 0.7176 0.6333
vn 0.2947 0.6561 0.6948
vn -0.8282 0.5434 0.1374
vn 0.8130 0.1454 0.5639
vn -0.9884 0.0291 -0.1491
vn 0.0687 -0.5973 -0.7990
vn 0.1918 0.4840 0.8538
vn 0.0390 0.7272 0.6853
vn 0.1711 0.8157 0.5525
vn 0.8632 0.0698 0.5001
vn 0.0306 -0.4594 -0.8877
vn 0.9856 -0.1334 -0.1039
vn 0.6137 -0.7182 -0.3279
vn 0.9196 -0.3532 0.1719
vn 0.8978 -0.3034 0.3193
vn -0.4504 0.8245 0.3426
vn -0.4632 0.8829 0.0769
vn -0.6744 -0.7233 0.1483
vn 0.0550 -0.9428 -0.3288
vn -0.4277 0.6897 0.5843
vn -0.4422 -0.6887 -0.5746
vn -0.3722 0.5777 0.7264
vn 0.6407 0.4879 0.5928
vn 0.7476 0.5105 0.4247
vn -0.8930 0.4500 -0.0080
vn -0.6929 0.5236 0.4957
vn 0.6261 0.2694 0.7317
vn 0.9750 0.2217 0.0130
vn 0.8091 0.1841 0.5581
vn 0.9698 -0.0752 -0.2322
vn 0.8279 0.4144 0.3781
vn 0.0234 -0.7586 -0.6511
vn 0.9078 0.0188 0.4189
vn 0.1453 -0.5741 -0.8058
vn -0.4792 -0.7608 -0.4376
vn -0.8586 0.3184 0.4017
vn 0.6306 -0.4734 -0.6150
vn 0.9536 -0.2253 -0.1998
vn 0.1806 -0.7100 0.6806
vn -0.1257 -0.8744 -0.4686
vn -0.8822 0.4708 -0.0036
vn -0.8454 -0.1324 -0.5175
vn 0.8677 -0.4105 0.2804
vn 0.9090 -0.0107 -0.4166
vn 0.1116 -0.7390 -0.6644
vn -0.9376 0.0759 0.3392
vn 0.6960 0.6630 0.2758
vn -0.8441 0.4756 0.2474
vn 0.4108 0.6851 0.6016
vn 0.9282 -0.3216 0.1870
vn 0.7670 0.5927 0.2459
vn -0.9149 0.3380 0.2208
vn 0.9643 -0.1178 -0.2370
vn 0.9033 0.2806 -0.3245
vn -0.6972 -0.4138 -0.5854
vn 0.4928 -0.5845 -0.6446
vn -0.5249 -0.8511 0.0084
vn 0.5604 0.6932 0.4533
vn -0.4783 0.7064 0.5217
vn 0.1454 0.5635 0.8132
vn 0.9789 0.0268 -0.2027
vn 0.7687 -0.3763 -0.5172
vn -0.6548 0.4072 0.6367
vn -0.9869 0.0323 0.1583
vn 0.8881 0.3534 0.2940
vn -0.1439 -0.5468 -0.8248
vn -0.8500 0.4438 0.2837
vn 0.4185 -0.4275 -0.8013
vn -0.0018 -0.9601 -0.2798
vn -0.7496 0.6165 0.2407
vn 0.2937 -0.7916 -0.5359
vn 0.8013 0.5920 -0.0865
vn 0.3439 0.5733 0.7437
vn 0.1172 -0.4896 -0.8640
vn -0.2324 -0.6201 0.7493
vn -0.9874 -0.0612 0.1462
vn 0.8687 -0.0011 0.4953
vn -0.9021 -0.3573 -0.2419
vn -0.6890 -0.3652 -0.6261
vn 0.0558 -0.5660 0.8225
vn 0.5151 -0.1942 -0.8348
vn -0.8735 -0.2851 -0.3946
vn 0.9604 0.0370 -0.2762
vn -0.6529 0.3768 0.6571
vn -0.5832 0.6695 0.4599
vn -0.9543 0.0598 -0.2929
vn -0.9097 0.4136 0.0368
vn -0.9489 -0.0506 0.3115
vn -0.2244 -0.8776 0.4237
vn -0.3950 0.5526 0.7339
vn 0.7514 -0.4811 -0.4516
vn -0.9911 0.0753 -0.1095
vn 0.4805 0.5549 0.6792
vn 0.3045 0.1683 0.9375
vn 0.6620 -0.6325 0.4020
vn -0.7498 -0.2782 -0.6004
vn 0.5839 0.7061 -0.4007
vn -0.8727 -0.3573 -0.3327
vn 0.1548 -0.9836 -0.0928
vn -0.6741 -0.3543 -0.6481
vn 0.6054 -0.4892 -0.6278
vn 0.8372 -0.5452 -0.0423
vn -0.9804 -0.1908 0.0481
vn -0.2391 -0.7727 -0.5880
vn -0.2330 -0.3848 -0.8931
vn 0.4564 0.5303 0.7145
vn -0.4904 -0.5411 -0.6832
vn -0.0901 0.8265 -0.5556
vn 0.3593 -0.2477 -0.8998
vn 0.5158 -0.6546 0.5527
vn -0.3905 0.3127 0.8659
vn 0.8901 -0.3841 0.2454
vn -0.5766 -0.7265 -0.3739
vn 0.8866 0.4482 -0.1144
vn -0.7244 -0.5939 0.3500
vn 0.0869 -0.2610 0.9614
vn -0.8203 0.5327 0.2084
vn 0.8337 -0.3310 -0.4420
vn -0.0563 -0.9098 -0.4111
vn -0.4875 -0.5742 -0.6577
vn -0.1940 0.6139 0.7652
vn -0.6719 0.7133 -0.1991
vn 0.5674 0.4079 0.7153
vn -0.8224 -0.4437 -0.3562
vn 0.9807 0.1569 0.1165
vn -0.0598 -0.7554 -0.6525
vn 0.7084 -0.6042 -0.3649
vn -0.5181 0.5730 0.6350
vn 0.6617 0.1143 -0.7410
vn 0.7502 -0.6379 -0.1741
vn -0.6459 -0.6997 -0.3054
vn 0.8757 0.4713 0.1048
vn -0.8342 -0.3381 -0.4358
vn 0.8128 0.5029 0.2941
vn 0.3358 0.6515 0.6803
vn 0.5979 -0.5848 -0.5482
vn 0.6700 0.3046 0.6771
vn 0.8749 0.4158 0.2482
vn -0.0665 -0.4893 -0.8696
vn -0.1125 -0.9339 -0.3394
vn -0.7482 -0.3134 -0.5848
vn -0.0152 -0.9849 -0.1722
vn 0.2415 -0.4727 -0.8475
vn -0.0245 0.6090 0.7928
vn -0.9013 -0.1689 -0.3989
vn 0.1057 0.6848 0.7210
vn -0.9878 -0.1401 0.0683
vn 0.2086 -0.9590 0.1916
vn -0.8785 -0.2731 -0.3921
vn -0.1507 -0.9884 -0.0163
vn -0.5647 -0.3329 -0.7552
vn -0.1263 0.6595 0.7410
vn -0.3369 0.4627 0.8200
vn 0.1872 -0.7772 -0.6008
vn -0.3119 -0.8802 -0.3576
vn 0.1590 0.6056 0.7798
vn 0.9666 0.0198 -0.2555
vn 0.3205 -0.8549 0.4080
vn 0.9400 0.1985 0.2774
vn -0.9674 -0.0192 0.2526
vn 0.8193 -0.2236 0.5280
vn 0.8527 0.0227 0.5219
vn -0.9304 0.3374 -0.1430
vn -0.7769 -0.4043 -0.4827
vn 0.6556 0.1719 -0.7352
vn -0.8765 -0.4203 -0.2346
vn 0.9740 0.2240 -0.0329
vn -0.9413 -0.3215 0.1031
vn 0.9747 0.0084 0.2232
vn 0.1776 -0.5104 -0.8414
vn 0.4634 0.5717 0.6771
vn 0.0393 -0.9818 -0.1856
vn 0.7051 -0.6898 -0.1645
vn -0.9622 0.0809 -0.2599
vn -0.7272 -0.3885 -0.5658
vn -0.6269 0.0258 0.7786
vn 0.6998 -0.5178 -0.4921
vn -0.4010 -0.9108 0.0984
vn -0.1736 0.0396 0.9840
vn -0.9122 0.0593 -0.4053
vn -0.9779 0.0837 -0.1915
vn 0.4691 -0.8523 -0.2315
vn 0.9386 -0.3313 -0.0962
vn -0.8679 -0.1045 -0.4856
vn 0.5511 -0.7771 0.3039
vn 0.9639 -0.1615 0.2117
vn 0.8823 -0.3746 -0.2850
vn 0.7854 -0.2528 -0.5650
vn -0.1608 -0.9679 -0.1933
vn -0.8760 -0.1581 -0.4557
vn 0.7770 0.4694 -0.4194
vn -0.5798 0.6893 0.4345
vn 0.9066 -0.4203 -0.0394
vn -0.8870 -0.4344 -0.1565
vn -0.0520 -0.7002 -0.7121
vn -0.0495 0.9307 0.3624
vn -0.3629 0.6506 0.6671
vn -0.3319 0.5401 0.7734
vn 0.8303 -0.3673 -0.4191
vn -0.2773 0.6162 0.7372
vn -0.2493 0.7434 0.6207
vn 0.4617 -0.7556 -0.4646
vn 0.0705 0.2171 0.9736
vn -0.0818 -0.4199 -0.9039
vn -0.7418 0.3486 0.5730
vn -0.9689 0.1867 -0.1623
vn 0.1605 -0.7124 -0.6832
vn -0.0103 0.7845 0.6201
vn 0.3625 0.5857 -0.7249
vn 0.9352 -0.3313 0.1248
vn -0.2489 -0.9520 -0.1782
vn 0.8294 -0.5505 0.0949
vn -0.6255 -0.3879 -0.6770
vn 0.4328 0.8807 0.1926
vn 0.0321 -0.9560 -0.2917
vn -0.2048 -0.9512 0.2310
vn -0.3177 -0.3320 -0.8881
vn -0.5029 -0.4560 -0.7343
vn 0.9660 0.1109 -0.2336
vn 0.7039 -0.0142 0.7102
vn -0.6588 0.6643 0.3530
vn 0.6931 -0.3846 -0.6097
vn -0.6839 -0.5730 -0.4515
vn 0.0333 0.2616 0.9646
vn 0.9120 -0.1865 -0.3652
vn -0.5352 -0.4280 -0.7283
vn 0.8193 -0.0698 -0.5691
vn -0.5905 -0.6075 -0.5313
vn 0.7537 0.4506 0.4784
vn 0.5888 -0.6730 -0.4475
vn -0.9328 0.3266 -0.1522
vn 0.6331 -0.1333 -0.7625
vn -0.2926 -0.5993 0.7451
vn 0.9999 -0.0082 0.0148
vn -0.9872 -0.1587 0.0130
vn 0.8764 -0.1384 0.4613
vn 0.9015 -0.0942 0.4225
vn -0.9606 0.1766 0.2147
vn -0.3299 -0.7773 -0.5357
vn -0.4690 -0.6457 0.6025
vn -0.0571 -0.6969 0.7149
vn 0.7801 0.1528 0.6068
vn -0.7223 0.0877 0.6860
vn -0.9475 -0.1831 -0.2623
vn -0.8805 0.4235 0.2130
vn -0.2230 -0.6789 -0.6995
vn -0.1706 -0.7040 -0.6894
vn -0.8942 -0.3732 0.2472
vn 0.8083 -0.5725 -0.1374
vn 0.6618 0.5602 0.4983
vn 0.6341 0.5823 0.5088
vn -0.1720 -0.7232 -0.6689
vn -0.8526 0.4872 0.1892
vn 0.5338 0.1828 -0.8256
vn -0.7335 0.5657 0.3769
vn -0.8098 -0.5030 -0.3021
vn -0.6161 0.4493 0.6469
vn -0.6002 -0.4014 -0.6918
vn 0.9974 -0.0322 -0.0644
vn 0.2656 0.4753 0.8388
vn -0.9727 -0.0019 0.2322
vn 0.2288 0.7121 0.6637
vn -0.2176 -0.4768 -0.8516
vn -0.7519 0.5679 0.3350
vn 0.9884 0.1336 -0.0729
vn -0.3574 -0.5749 -0.7361
vn 0.3670 0.6421 0.6730
vn -0.9405 0.0901 -0.3275
vn 0.2563 -0.6151 -0.7457
vn -0.0323 -0.9548 -0.2954
vn 0.8390 0.3132 0.4450
vn 0.8825 0.0498 0.4676
vn 0.9342 -0.3258 -0.1452
vn 0.3506 0.9229 -0.1591
vn 0.9133 -0.3904 0.1159
vn -0.5493 -0.8355 -0.0147
vn -0.8149 -0.1946 -0.5460
vn 0.6332 0.0856 0.7692
vn 0.1114 -0.6022 -0.7905
vn 0.8057 -0.3903 -0.4456
vn 0.4872 -0.7583 -0.4332
vn 0.1713 0.9836 -0.0561
vn 0.6446 0.6141 0.4555
vn 0.7621 0.1645 0.6262
vn -0.6686 0.5611 0.4880
vn -0.9006 -0.4288 -0.0713
vn 0.0928 -0.7581 -0.6455
vn 0.1089 0.5000 -0.8592
vn -0.2228 -0.9744 -0.0288
vn 0.3631 -0.7647 -0.5324
vn -0.0039 -0.9991 0.0413
vn 0.8179 0.5687 -0.0877
vn 0.2219 -0.4067 -0.8862
vn -0.9149 -0.3677 0.1668
vn 0.3876 0.5725 0.7225
vn 0.9911 -0.1299 -0.0281
vn -0.9772 -0.1945 0.0855
vn 0.9991 -0.0128 0.0412
vn 0.6389 -0.6210 -0.4540
vn 0.5037 0.0817 -0.8600
vn 0.3042 -0.9437 -0.1300
vn -0.1983 -0.5866 -0.7852
vn 0.7868 -0.2614 -0.5591
vn -0.3484 -0.3149 -0.8829
vn 0.7906 0.5971 0.1360
vn 0.9545 0.2460 0.1684
vn -0.2935 -0.6909 -0.6607
vn -0.8526 0.2054 0.4805
vn -0.3044 -0.8376 -0.4537
vn 0.1628 -0.7696 -0.6175
vn -0.8119 0.3985 0.4267
vn 0.1890 0.9163 0.3532
vn -0.6522 -0.7580 0.0126
vn -0.2067 -0.2076 -0.9561
vn 0.5547 0.2269 0.8005
vn -0.6040 -0.5970 -0.5280
f 299//299 78//78 19//19
f 438//438 202//202 402//402
f 20//20 286//286 352//352
f 326//326 222//222 141//141
f 79//79 122//122 381//381
f 228//228 203//203 391//391
f 149//149 263//263 80//80
f 435//435 37//37 343//343
f 347//347 106//106 325//325
f 106//106 308//308 76//76
f 141//141 413//413 326//326
f 311//311 316//316 320//320
f 376//376 74//74 136//136
f 384//384 449//449 249//249
f 308//308 12//12 76//76
f 326//326 413//413 117//117
f 161//161 139//139 19//19
f 145//145 58//58 403//403
f 328//328 337//337 57//57
f 63//63 32//32 1//1
f 403//403 431//431 93//93
f 353//353 83//83 269//269
f 92//92 316//316 367//367
f 138//138 144//144 419//419
f 120//120 224//224 447//447
f 256//256 383//383 243//243
f 6//6 43//43 177//177
f 58//58 46//46 5//5
f 10//10 358//358 335//335
f 372//372 248//248 373//373
f 330//330 239//239 96//96
f 277//277 215//215 320//320
f 279//279 90//90 249//249
f 233//233 410//410 27//27
f 206//206 328//328 139//139
f 44//44 24//24 128//128
f 202//202 262//262 402//402
f 344//344 156//156 333//333
f 320//320 222//222 326//326
f 338//338 290//290 426//426
f 136//136 154//154 251//251
f 95//95 379//379 289//289
f 324//324 340//340 275//275
f 403//403 93//93 59//59
f 267//267 91//91 42//42
f 49//49 196//196 99//99
f 280//280 71//71 334//334
f 174//174 166//166 335//335
f 145//145 46//46 58//58
f 221//221 206//206 43//43
f 415//415 142//142 362//362
f 66//66 305//305 213//213
f 77//77 416//416 40//40
f 224//224 433//433 296//296
f 10//10 335//335 166//166
f 133//133 251//251 154//154
f 320//320 326//326 277//277
f 256//256 277//277 117//117
f 219//219 439//439 368//368
f 56//56 232//232 228//228
f 423//423 290//290 383//383
f 222//222 78//78 299//299
f 164//164 167//167 261//261
f 23//23 328//328 221//221
f 408//408 216//216 278//278
f 338//338 121//121 290//290
f 350//350 448//448 62//62
f 357//357 381//381 253//253
f 69//69 29//29 10//10
f 97//97 109//109 44//44
f 258//258 97//97 44//44
f 339//339 229//229 356//356
f 151//151 372//372 213//213
f 242//242 144//144 289//289
f 33//33 437//437 2//2
f 411//411 186//186 385//385
f 122//122 79//79 128//128
f 50//50 47//47 336//336
f 27//27 70//70 118//118
f 262//262 36//36 402//402
f 283//283 300//300 430//430
f 131//131 296//296 444//444
f 316//316 11//11 367//367
f 253//253 381//381 9//9
f 426//426 423//423 107//107
f 132//132 244//244 97//97
f 119//119 423//423 382//382
f 382//382 383//383 256//256
f 399//399 94//94 285//285
f 222//222 404//404 78//78
f 296//296 433//433 397//397
f 433//433 239//239 397//397
f 48//48 444//444 220//220
f 36//36 406//406 375//375
f 337//337 5//5 57//57
f 383//383 114//114 16//16
f 403//403 58//58 282//282
f 424//424 100//100 345//345
f 93//93 165//165 59//59
f 366//366 426//426 107//107
f 4//4 101//101 165//165
f 228//228 380//380 260//260
f 100//100 410//410 233//233
f 431//431 403//403 282//282
f 306//306 202//202 438//438
f 125//125 389//389 184//184
f 185//185 145//145 403//403
f 198//198 65//65 207//207
f 86//86 418//418 410//410
f 51//51 50//50 158//158
f 118//118 77//77 40//40
f 424//424 124//124 123//123
f 442//442 395//395 419//419
f 13//13 321//321 378//378
f 69//69 301//301 29//29
f 39//39 14//14 318//318
f 160//160 274//274 66//66
f 57//57 253//253 328//328
f 26//26 119//119 450//450
f 271//271 365//365 268//268
f 281//281 362//362 142//142
f 366//366 338//338 426//426
f 94//94 412//412 285//285
f 410//410 350//350 27//27
f 389//389 342//342 110//110
f 303//303 180//180 319//319
f 280//280 73//73 71//71
f 233//233 390//390 345//345
f 393//393 61//61 48//48
f 160//160 167//167 274//274
f 319//319 180//180 39//39
f 366//366 63//63 338//338
f 202//202 306//306 245//245
f 223//223 389//389 400//400
f 135//135 198//198 207//207
f 272//272 306//306 168//168
f 33//33 150//150 112//112
f 41//41 247//247 226//226
f 27//27 67//67 70//70
f 89//89 75//75 281//281
f 123//123 124//124 111//111
f 92//92 161//161 78//78
f 215//215 311//311 320//320
f 244//244 86//86 100//100
f 18//18 126//126 418//418
f 76//76 2//2 437//437
f 40//40 17//17 390//390
f 289//289 379//379 360//360
f 77//77 385//385 416//416
f 71//71 48//48 334//334
f 137//137 334//334 341//341
f 149//149 3//3 263//263
f 386//386 101//101 70//70
f 138//138 99//99 196//196
f 153//153 332//332 126//126
f 336//336 47//47 60//60
f 124//124 26//26 450//450
f 286//286 425//425 276//276
f 336//336 264//264 421//421
f 287//287 170//170 399//399
f 214//214 384//384 90//90
f 342//342 223//223 310//310
f 27//27 118//118 190//190
f 258//258 153//153 132//132
f 278//278 88//88 83//83
f 385//385 366//366 416//416
f 427//427 193//193 81//81
f 334//334 292//292 280//280
f 17//17 26//26 390//390
f 139//139 9//9 19//19
f 421//421 125//125 184//184
f 404//404 92//92 78//78
f 178//178 342//342 310//310
f 434//434 174//174 189//189
f 107//107 17//17 366//366
f 70//70 77//77 118//118
f 70//70 101//101 77//77
f 174//174 335//335 272//272
f 40//40 416//416 17//17
f 293//293 189//189 361//361
f 107//107 26//26 17//17
f 40//40 390//390 190//190
f 318//318 14//14 106//106
f 73//73 337//337 23//23
f 298//298 33//33 47//47
f 424//424 244//244 100//100
f 71//71 73//73 23//23
f 49//49 230//230 365//365
f 157//157 115//115 364//364
f 372//372 179//179 248//248
f 407//407 261//261 167//167
f 234//234 330//330 53//53
f 91//91 211//211 42//42
f 271//271 194//194 398//398
f 411//411 385//385 77//77
f 220//220 444//444 341//341
f 284//284 449//449 246//246
f 111//111 394//394 413//413
f 394//394 111//111 440//440
f 373//373 186//186 4//4
f 43//43 447//447 221//221
f 242//242 289//289 360//360
f 264//264 156//156 421//421
f 390//390 26//26 424//424
f 424//424 26//26 124//124
f 257//257 84//84 333//333
f 425//425 106//106 347//347
f 107//107 119//119 26//26
f 110//110 380//380 228//228
f 162//162 264//264 374//374
f 121//121 446//446 290//290
f 247//247 396//396 226//226
f 441//441 250//250 105//105
f 177//177 92//92 367//367
f 245//245 436//436 29//29
f 190//190 390//390 233//233
f 111//111 44//44 109//109
f 418//418 448//448 350//350
f 132//132 97//97 258//258
f 372//372 151//151 179//179
f 194//194 270//270 183//183
f 408//408 35//35 365//365
f 402//402 36//36 375//375
f 100//100 86//86 410//410
f 312//312 34//34 88//88
f 406//406 255//255 375//375
f 111//111 24//24 44//44
f 413//413 24//24 111//111
f 392//392 304//304 130//130
f 111//111 109//109 123//123
f 244//244 424//424 123//123
f 112//112 150//150 94//94
f 25//25 322//322 451//451
f 422//422 218//218 374//374
f 181//181 104//104 331//331
f 125//125 400//400 389//389
f 48//48 131//131 444//444
f 28//28 104//104 181//181
f 395//395 370//370 198//198
f 368//368 279//279 363//363
f 344//344 87//87 72//72
f 175//175 21//21 297//297
f 120//120 11//11 212//212
f 68//68 207//207 267//267
f 342//342 380//380 110//110
f 450//450 111//111 124//124
f 191//191 354//354 283//283
f 44//44 128//128 258//258
f 386//386 70//70 67//67
f 260//260 56//56 228//228
f 155//155 255//255 406//406
f 408//408 439//439 219//219
f 111//111 450//450 440//440
f 101//101 411//411 77//77
f 14//14 235//235 106//106
f 101//101 386//386 165//165
f 59//59 165//165 386//386
f 131//131 224//224 296//296
f 224//224 131//131 61//61
f 146//146 322//322 3//3
f 135//135 22//22 284//284
f 351//351 437//437 445//445
f 48//48 71//71 393//393
f 307//307 292//292 159//159
f 33//33 435//435 437//437
f 415//415 113//113 98//98
f 142//142 89//89 281//281
f 152//152 153//153 79//79
f 89//89 129//129 75//75
f 119//119 440//440 450//450
f 278//278 83//83 147//147
f 437//437 343//343 443//443
f 328//328 206//206 221//221
f 201//201 116//116 295//295
f 385//385 32//32 63//63
f 447//447 224//224 61//61
f 107//107 423//423 119//119
f 270//270 45//45 183//183
f 411//411 101//101 186//186
f 116//116 166//166 174//174
f 149//149 80//80 12//12
f 222//222 320//320 404//404
f 262//262 347//347 36//36
f 24//24 413//413 141//141
f 204//204 54//54 217//217
f 103//103 217//217 327//327
f 340//340 354//354 275//275
f 98//98 142//142 415//415
f 106//106 76//76 155//155
f 448//448 145//145 62//62
f 250//250 69//69 10//10
f 335//335 358//358 272//272
f 253//253 139//139 328//328
f 295//295 407//407 159//159
f 118//118 40//40 190//190
f 109//109 97//97 123//123
f 448//448 332//332 145//145
f 360//360 13//13 378//378
f 333//333 156//156 264//264
f 119//119 382//382 440//440
f 440//440 382//382 394//394
f 307//307 160//160 66//66
f 296//296 397//397 444//444
f 371//371 234//234 310//310
f 364//364 115//115 302//302
f 433//433 304//304 392//392
f 273//273 140//140 52//52
f 143//143 387//387 229//229
f 145//145 332//332 46//46
f 196//196 271//271 398//398
f 370//370 148//148 324//324
f 192//192 173//173 254//254
f 39//39 205//205 14//14
f 274//274 164//164 305//305
f 103//103 327//327 45//45
f 129//129 142//142 227//227
f 221//221 447//447 393//393
f 363//363 279//279 39//39
f 192//192 15//15 104//104
f 136//136 38//38 154//154
f 218//218 281//281 41//41
f 164//164 401//401 293//293
f 449//449 14//14 205//205
f 362//362 281//281 218//218
f 252//252 377//377 369//369
f 144//144 333//333 84//84
f 128//128 79//79 258//258
f 79//79 153//153 258//258
f 255//255 155//155 64//64
f 55//55 313//313 417//417
f 209//209 420//420 259//259
f 5//5 46//46 152//152
f 236//236 310//310 234//234
f 422//422 314//314 452//452
f 445//445 437//437 443//443
f 255//255 171//171 359//359
f 348//348 248//248 179//179
f 444//444 182//182 341//341
f 444//444 397//397 182//182
f 300//300 340//340 291//291
f 414//414 298//298 50//50
f 210//210 324//324 275//275
f 138//138 344//344 144//144
f 250//250 355//355 116//116
f 384//384 214//214 34//34
f 246//246 127//127 82//82
f 4//4 140//140 373//373
f 288//288 292//292 334//334
f 187//187 387//387 428//428
f 112//112 170//170 37//37
f 429//429 133//133 176//176
f 339//339 136//136 143//143
f 290//290 423//423 426//426
f 64//64 171//171 255//255
f 59//59 386//386 185//185
f 295//295 116//116 434//434
f 217//217 245//245 301//301
f 80//80 218//218 452//452
f 141//141 222//222 9//9
f 23//23 337//337 328//328
f 252//252 339//339 356//356
f 322//322 129//129 227//227
f 47//47 33//33 85//85
f 199//199 144//144 84//84
f 439//439 147//147 368//368
f 385//385 186//186 32//32
f 38//38 252//252 369//369
f 395//395 135//135 246//246
f 49//49 365//365 271//271
f 356//356 187//187 45//45
f 311//311 130//130 316//316
f 161//161 177//177 206//206
f 261//261 189//189 401//401
f 159//159 407//407 167//167
f 102//102 179//179 151//151
f 171//171 351//351 445//445
f 291//291 13//13 430//430
f 280//280 292//292 307//307
f 259//259 420//420 273//273
f 207//207 68//68 22//22
f 268//268 180//180 303//303
f 297//297 428//428 387//387
f 7//7 53//53 108//108
f 315//315 312//312 88//88
f 358//358 306//306 272//272
f 57//57 357//357 253//253
f 207//207 65//65 267//267
f 282//282 337//337 73//73
f 12//12 80//80 452//452
f 69//69 208//208 327//327
f 383//383 16//16 243//243
f 15//15 240//240 331//331
f 159//159 201//201 295//295
f 167//167 164//164 274//274
f 275//275 354//354 210//210
f 139//139 161//161 206//206
f 417//417 181//181 446//446
f 319//319 266//266 231//231
f 195//195 400//400 125//125
f 374//374 60//60 422//422
f 434//434 116//116 174//174
f 236//236 234//234 53//53
f 91//91 267//267 30//30
f 297//297 21//21 323//323
f 85//85 2//2 314//314
f 178//178 380//380 342//342
f 193//193 211//211 81//81
f 348//348 309//309 238//238
f 16//16 311//311 215//215
f 414//414 150//150 298//298
f 37//37 170//170 287//287
f 391//391 203//203 158//158
f 149//149 12//12 427//427
f 248//248 238//238 346//346
f 149//149 81//81 3//3
f 412//412 51//51 172//172
f 354//354 300//300 283//283
f 94//94 170//170 112//112
f 103//103 45//45 187//187
f 212//212 130//130 304//304
f 305//305 432//432 102//102
f 209//209 259//259 431//431
f 200//200 75//75 225//225
f 194//194 8//8 270//270
f 317//317 172//172 203//203
f 9//9 139//139 253//253
f 240//240 108//108 53//53
f 136//136 74//74 143//143
f 54//54 176//176 276//276
f 171//171 260//260 359//359
f 392//392 130//130 311//311
f 130//130 11//11 316//316
f 382//382 256//256 394//394
f 268//268 35//35 180//180
f 5//5 357//357 57//57
f 319//319 39//39 266//266
f 68//68 427//427 308//308
f 261//261 434//434 189//189
f 381//381 122//122 9//9
f 239//239 371//371 182//182
f 87//87 194//194 183//183
f 303//303 319//319 169//169
f 76//76 351//351 64//64
f 54//54 276//276 262//262
f 129//129 225//225 75//75
f 262//262 245//245 217//217
f 333//333 264//264 257//257
f 31//31 257//257 163//163
f 203//203 228//228 317//317
f 94//94 294//294 412//412
f 400//400 188//188 223//223
f 147//147 83//83 353//353
f 240//240 157//157 331//331
f 331//331 157//157 114//114
f 289//289 144//144 199//199
f 8//8 268//268 303//303
f 181//181 114//114 383//383
f 250//250 10//10 355//355
f 422//422 452//452 218//218
f 242//242 419//419 144//144
f 320//320 316//316 92//92
f 415//415 362//362 113//113
f 164//164 293//293 197//197
f 8//8 303//303 270//270
f 113//113 263//263 98//98
f 163//163 3//3 211//211
f 156//156 195//195 125//125
f 193//193 42//42 211//211
f 106//106 155//155 325//325
f 312//312 127//127 384//384
f 117//117 413//413 394//394
f 30//30 283//283 95//95
f 61//61 131//131 48//48
f 104//104 173//173 192//192
f 232//232 443//443 37//37
f 303//303 169//169 270//270
f 215//215 277//277 243//243
f 78//78 161//161 19//19
f 373//373 248//248 346//346
f 370//370 324//324 198//198
f 134//134 105//105 159//159
f 35//35 219//219 363//363
f 163//163 211//211 31//31
f 133//133 376//376 251//251
f 361//361 409//409 432//432
f 60//60 264//264 336//336
f 330//330 96//96 115//115
f 184//184 110//110 421//421
f 227//227 142//142 98//98
f 103//103 429//429 204//204
f 254//254 173//173 361//361
f 51//51 414//414 50//50
f 74//74 297//297 387//387
f 201//201 105//105 250//250
f 134//134 159//159 292//292
f 398//398 87//87 344//344
f 133//133 21//21 376//376
f 7//7 438//438 402//402
f 339//339 38//38 136//136
f 265//265 429//429 103//103
f 441//441 105//105 183//183
f 235//235 22//22 68//68
f 264//264 60//60 374//374
f 433//433 302//302 239//239
f 339//339 143//143 229//229
f 293//293 361//361 197//197
f 443//443 232//232 56//56
f 7//7 236//236 53//53
f 55//55 348//348 102//102
f 437//437 435//435 343//343
f 298//298 47//47 50//50
f 393//393 71//71 23//23
f 181//181 417//417 28//28
f 116//116 355//355 166//166
f 184//184 389//389 110//110
f 168//168 108//108 240//240
f 372//372 373//373 420//420
f 214//214 269//269 34//34
f 195//195 137//137 341//341
f 87//87 134//134 72//72
f 399//399 285//285 287//287
f 349//349 178//178 236//236
f 406//406 325//325 155//155
f 279//279 368//368 241//241
f 31//31 84//84 257//257
f 378//378 370//370 242//242
f 286//286 20//20 425//425
f 18//18 418//418 86//86
f 348//348 179//179 102//102
f 225//225 129//129 25//25
f 193//193 427//427 68//68
f 380//380 178//178 359//359
f 349//349 359//359 178//178
f 237//237 291//291 340//340
f 69//69 327//327 301//301
f 241//241 214//214 90//90
f 175//175 74//74 376//376
f 113//113 362//362 218//218
f 348//348 55//55 309//309
f 20//20 318//318 106//106
f 451//451 146//146 396//396
f 359//359 349//349 375//375
f 291//291 430//430 300//300
f 129//129 89//89 142//142
f 306//306 438//438 168//168
f 319//319 231//231 356//356
f 356//356 169//169 319//319
f 256//256 117//117 394//394
f 29//29 436//436 10//10
f 43//43 6//6 447//447
f 169//169 45//45 270//270
f 418//418 126//126 448//448
f 85//85 33//33 2//2
f 73//73 280//280 209//209
f 66//66 213//213 420//420
f 81//81 149//149 427//427
f 278//278 439//439 408//408
f 127//127 312//312 99//99
f 209//209 66//66 420//420
f 351//351 76//76 437//437
f 363//363 39//39 180//180
f 4//4 165//165 93//93
f 287//287 285//285 317//317
f 308//308 427//427 12//12
f 199//199 31//31 91//91
f 281//281 75//75 200//200
f 235//235 284//284 22//22
f 209//209 282//282 73//73
f 82//82 127//127 99//99
f 201//201 250//250 116//116
f 91//91 31//31 211//211
f 363//363 219//219 368//368
f 100//100 233//233 345//345
f 13//13 291//291 321//321
f 65//65 191//191 30//30
f 190//190 233//233 27//27
f 329//329 186//186 346//346
f 306//306 436//436 245//245
f 6//6 177//177 367//367
f 182//182 188//188 341//341
f 244//244 18//18 86//86
f 114//114 364//364 16//16
f 302//302 96//96 239//239
f 441//441 183//183 208//208
f 269//269 83//83 34//34
f 122//122 141//141 9//9
f 247//247 25//25 451//451
f 186//186 101//101 4//4
f 379//379 13//13 360//360
f 309//309 417//417 1//1
f 21//21 175//175 376//376
f 428//428 103//103 187//187
f 417//417 446//446 121//121
f 132//132 126//126 18//18
f 232//232 287//287 317//317
f 332//332 448//448 126//126
f 150//150 294//294 94//94
f 370//370 442//442 242//242
f 274//274 305//305 66//66
f 65//65 30//30 267//267
f 88//88 278//278 216//216
f 17//17 416//416 366//366
f 356//356 229//229 187//187
f 90//90 384//384 249//249
f 323//323 405//405 265//265
f 399//399 170//170 94//94
f 158//158 203//203 172//172
f 250//250 441//441 208//208
f 254//254 272//272 192//192
f 1//1 121//121 63//63
f 163//163 146//146 3//3
f 241//241 269//269 214//214
f 353//353 368//368 147//147
f 80//80 263//263 113//113
f 1//1 417//417 121//121
f 353//353 241//241 368//368
f 41//41 226//226 162//162
f 208//208 69//69 250//250
f 262//262 276//276 347//347
f 223//223 342//342 389//389
f 393//393 447//447 61//61
f 133//133 154//154 176//176
f 212//212 304//304 224//224
f 49//49 271//271 196//196
f 321//321 148//148 378//378
f 280//280 307//307 209//209
f 194//194 87//87 398//398
f 191//191 283//283 30//30
f 210//210 354//354 191//191
f 146//146 163//163 396//396
f 391//391 336//336 421//421
f 132//132 153//153 126//126
f 267//267 42//42 193//193
f 329//329 238//238 32//32
f 385//385 63//63 366//366
f 64//64 351//351 171//171
f 307//307 159//159 167//167
f 435//435 112//112 37//37
f 341//341 188//188 400//400
f 346//346 238//238 329//329
f 72//72 288//288 137//137
f 12//12 452//452 314//314
f 104//104 15//15 331//331
f 288//288 334//334 137//137
f 206//206 177//177 43//43
f 429//429 176//176 204//204
f 247//247 225//225 25//25
f 204//204 217//217 103//103
f 322//322 98//98 263//263
f 373//373 346//346 186//186
f 238//238 248//248 348//348
f 266//266 39//39 318//318
f 436//436 306//306 358//358
f 41//41 281//281 200//200
f 9//9 222//222 299//299
f 414//414 294//294 150//150
f 52//52 93//93 431//431
f 76//76 12//12 2//2
f 428//428 323//323 265//265
f 283//283 430//430 379//379
f 422//422 85//85 314//314
f 20//20 377//377 231//231
f 68//68 267//267 193//193
f 117//117 277//277 326//326
f 379//379 95//95 283//283
f 322//322 25//25 129//129
f 279//279 241//241 90//90
f 432//432 164//164 197//197
f 140//140 420//420 373//373
f 295//295 261//261 407//407
f 212//212 224//224 120//120
f 376//376 136//136 251//251
f 324//324 148//148 237//237
f 357//357 152//152 79//79
f 188//188 310//310 223//223
f 396//396 163//163 257//257
f 392//392 311//311 364//364
f 31//31 199//199 84//84
f 347//347 325//325 36//36
f 265//265 103//103 428//428
f 54//54 262//262 217//217
f 278//278 147//147 439//439
f 181//181 331//331 114//114
f 343//343 37//37 443//443
f 102//102 151//151 305//305
f 150//150 33//33 298//298
f 182//182 371//371 310//310
f 171//171 56//56 260//260
f 210//210 191//191 65//65
f 158//158 50//50 336//336
f 360//360 378//378 242//242
f 252//252 38//38 339//339
f 330//330 234//234 371//371
f 378//378 148//148 370//370
f 20//20 106//106 425//425
f 208//208 183//183 45//45
f 186//186 329//329 32//32
f 175//175 297//297 74//74
f 288//288 72//72 134//134
f 334//334 220//220 341//341
f 91//91 30//30 95//95
f 23//23 221//221 393//393
f 240//240 53//53 157//157
f 315//315 408//408 230//230
f 216//216 408//408 315//315
f 405//405 21//21 133//133
f 312//312 315//315 230//230
f 6//6 367//367 11//11
f 21//21 405//405 323//323
f 402//402 349//349 236//236
f 162//162 374//374 41//41
f 63//63 121//121 338//338
f 3//3 81//81 211//211
f 365//365 35//35 268//268
f 353//353 269//269 241//241
f 337//337 58//58 5//5
f 152//152 357//357 5//5
f 49//49 312//312 230//230
f 405//405 429//429 265//265
f 143//143 74//74 387//387
f 16//16 364//364 311//311
f 106//106 235//235 308//308
f 266//266 318//318 20//20
f 10//10 436//436 358//358
f 148//148 321//321 237//237
f 321//321 291//291 237//237
f 409//409 361//361 313//313
f 239//239 182//182 397//397
f 282//282 209//209 431//431
f 313//313 173//173 104//104
f 388//388 249//249 449//449
f 231//231 252//252 356//356
f 88//88 216//216 315//315
f 301//301 245//245 29//29
f 442//442 370//370 395//395
f 115//115 96//96 302//302
f 110//110 228//228 421//421
f 187//187 229//229 387//387
f 347//347 276//276 425//425
f 402//402 375//375 349//349
f 105//105 87//87 183//183
f 156//156 125//125 421//421
f 442//442 419//419 242//242
f 282//282 58//58 337//337
f 395//395 198//198 135//135
f 361//361 173//173 313//313
f 41//41 200//200 247//247
f 334//334 48//48 220//220
f 369//369 377//377 352//352
f 11//11 130//130 212//212
f 230//230 408//408 365//365
f 6//6 120//120 447//447
f 322//322 263//263 3//3
f 47//47 85//85 60//60
f 38//38 369//369 154//154
f 14//14 284//284 235//235
f 213//213 305//305 151//151
f 51//51 158//158 172//172
f 357//357 79//79 381//381
f 171//171 445//445 56//56
f 236//236 7//7 402//402
f 66//66 209//209 307//307
f 32//32 238//238 1//1
f 271//271 8//8 194//194
f 114//114 157//157 364//364
f 87//87 105//105 134//134
f 288//288 134//134 292//292
f 93//93 140//140 4//4
f 254//254 174//174 272//272
f 449//449 384//384 127//127
f 312//312 384//384 34//34
f 395//395 82//82 419//419
f 257//257 264//264 162//162
f 243//243 277//277 256//256
f 244//244 123//123 97//97
f 336//336 391//391 158//158
f 247//247 451//451 396//396
f 333//333 144//144 344//344
f 224//224 304//304 433//433
f 156//156 137//137 195//195
f 62//62 185//185 386//386
f 72//72 137//137 344//344
f 272//272 168//168 192//192
f 168//168 240//240 15//15
f 192//192 168//168 15//15
f 128//128 141//141 122//122
f 24//24 141//141 128//128
f 408//408 219//219 35//35
f 390//390 424//424 345//345
f 340//340 300//300 354//354
f 313//313 104//104 28//28
f 428//428 297//297 323//323
f 176//176 54//54 204//204
f 159//159 105//105 201//201
f 236//236 178//178 310//310
f 445//445 443//443 56//56
f 309//309 55//55 417//417
f 332//332 153//153 152//152
f 262//262 202//202 245//245
f 327//327 208//208 45//45
f 410//410 418//418 350//350
f 359//359 260//260 380//380
f 374//374 218//218 41//41
f 39//39 279//279 388//388
f 196//196 398//398 138//138
f 361//361 432//432 197//197
f 330//330 115//115 53//53
f 271//271 268//268 8//8
f 420//420 140//140 273//273
f 364//364 302//302 392//392
f 284//284 14//14 449//449
f 132//132 18//18 244//244
f 140//140 93//93 52//52
f 157//157 53//53 115//115
f 294//294 51//51 412//412
f 401//401 164//164 261//261
f 259//259 273//273 52//52
f 259//259 52//52 431//431
f 398//398 344//344 138//138
f 388//388 449//449 205//205
f 324//324 210//210 198//198
f 421//421 228//228 391//391
f 377//377 20//20 352//352
f 35//35 363//363 180//180
f 195//195 341//341 400//400
f 255//255 359//359 375//375
f 113//113 218//218 80//80
f 257//257 226//226 396//396
f 120//120 6//6 11//11
f 383//383 446//446 181//181
f 266//266 20//20 231//231
f 355//355 10//10 166//166
f 232//232 317//317 228//228
f 185//185 403//403 59//59
f 210//210 65//65 198//198
f 37//37 287//287 232//232
f 305//305 164//164 432//432
f 39//39 388//388 205//205
f 67//67 62//62 386//386
f 332//332 152//152 46//46
f 235//235 68//68 308//308
f 409//409 313//313 102//102
f 55//55 102//102 313//313
f 279//279 249//249 388//388
f 67//67 350//350 62//62
f 217//217 301//301 327//327
f 62//62 145//145 185//185
f 76//76 64//64 155//155
f 246//246 82//82 395//395
f 36//36 325//325 406//406
f 369//369 352//352 154//154
f 1//1 238//238 309//309
f 168//168 7//7 108//108
f 189//189 254//254 361//361
f 33//33 112//112 435//435
f 102//102 432//432 409//409
f 429//429 405//405 133//133
f 285//285 412//412 172//172
f 13//13 379//379 430//430
f 182//182 310//310 188//188
f 127//127 246//246 449//449
f 176//176 154//154 352//352
f 167//167 160//160 307//307
f 320//320 92//92 404//404
f 22//22 135//135 207//207
f 243//243 16//16 215//215
f 293//293 401//401 189//189
f 294//294 414//414 51//51
f 290//290 446//446 383//383
f 138//138 419//419 99//99
f 419//419 82//82 99//99
f 213//213 372//372 420//420
f 356//356 45//45 169//169
f 276//276 176//176 286//286
f 176//176 352//352 286//286
f 295//295 434//434 261//261
f 252//252 231//231 377//377
f 322//322 227//227 98//98
f 289//289 199//199 95//95
f 199//199 91//91 95//95
f 313//313 28//28 417//417
f 85//85 422//422 60//60
f 7//7 168//168 438//438
f 2//2 12//12 314//314
f 225//225 247//247 200//200
f 433//433 392//392 302//302
f 257//257 162//162 226//226
f 451//451 322//322 146//146
f 371//371 239//239 330//330
f 19//19 9//9 299//299
f 324//324 237//237 340//340
f 254//254 189//189 174//174
f 423//423 383//383 382//382
f 344//344 137//137 156//156
f 27//27 350//350 67//67
f 284//284 246//246 135//135
f 312//312 49//49 99//99
f 172//172 317//317 285//285
f 83//83 88//88 34//34
f 92//92 177//177 161//161
