# LOD generated from right_leg.obj by tools/generate_lods.py
v 0.17225 0.73766 -0.52240
v 0.33627 0.71705 -0.40702
v 0.09866 0.35947 -0.64481
v -0.17559 0.26996 -0.67110
v -0.42289 0.22913 -0.49907
v -0.54209 0.25171 -0.20041
v -0.43194 0.37429 -0.58729
v -0.24005 0.48424 -0.71403
v -0.32549 0.27494 -0.63011
v -0.30433 0.55602 -0.67744
v -0.22690 0.77890 -0.60188
v -0.27160 0.91823 -0.54761
v 0.01993 0.93363 -0.53314
v -0.55901 0.35430 -0.28226
v -0.51623 0.56686 -0.27823
v -0.40641 0.87330 -0.38709
v -0.37485 0.96632 -0.44348
v -0.43285 1.29126 -0.32669
v -0.47056 0.96639 -0.24270
v -0.48174 3.98700 -0.13804
v -0.22671 4.57279 -0.47919
v 0.42526 0.19811 1.38784
v 0.27939 0.20939 1.42950
v 0.29954 0.16225 1.39120
v 0.36319 0.12811 1.41514
v 0.88891 0.11635 1.44781
v 0.85849 0.13345 1.36245
v 0.79385 0.15991 1.39763
v 0.81879 0.13315 1.45251
v 1.18946 0.23893 1.06083
v 1.13016 0.12736 1.01603
v 1.05834 0.10993 1.09949
v 0.89445 0.29671 1.51362
v 0.96992 0.28097 1.52094
v 0.96831 0.21861 1.58430
v 0.82362 0.27167 1.53886
v 0.82559 0.28841 1.47222
v 1.25464 0.32265 1.25078
v 1.21076 0.29109 1.23039
v 1.22236 0.33917 1.22387
v 1.19042 0.30283 1.18058
v 1.20773 0.32069 1.20937
v 1.22777 0.30963 1.19693
v 1.19582 0.30080 1.19546
v 1.20633 0.28974 1.19715
v 1.20549 0.31788 1.18064
v 0.24042 0.32639 1.41148
v 1.25767 0.30835 1.31045
v 1.23608 0.32737 1.32004
v 1.18102 0.32029 1.38118
v 1.23270 0.29746 1.36558
v 1.19247 0.33310 1.34920
v 1.16058 0.32293 1.36443
v 1.11340 0.33081 1.38023
v 1.12543 0.31310 1.36372
v 1.12242 0.32605 1.38317
v 1.07353 0.33013 1.38210
v 1.08501 0.33526 1.38386
v 1.04666 0.31073 1.36302
v 1.07629 0.34154 1.37840
v 1.07425 0.32076 1.34149
v 1.02715 0.33079 1.33662
v 1.00914 0.33865 1.35095
v 1.00496 0.33147 1.30393
v 1.01468 0.34704 1.29021
v -0.13524 1.95556 -0.61371
v -0.32756 1.21118 -0.44372
v -0.08119 1.67284 -0.55252
v -0.13358 2.14127 -0.69224
v -0.36091 1.83382 -0.46854
v -0.44230 1.80606 -0.37622
v 0.28171 0.30428 1.43154
v 0.28790 0.18404 1.49043
v 0.20630 0.20558 1.60537
v 0.11411 0.22572 1.54589
v 0.39932 0.26330 1.60984
v 0.50835 4.25031 0.26993
v -0.40037 6.60538 -0.53043
v 0.42517 4.81481 0.50523
v 0.26688 4.61165 0.58653
v -0.40935 4.03042 0.24064
v -0.44243 4.53979 0.42076
v 0.86495 0.18506 1.18073
v -0.63801 4.87295 0.25346
v 0.37044 3.87867 0.34202
v 0.26501 3.90364 0.43892
v 0.38583 3.76357 0.04911
v -0.49396 4.45633 0.11456
v -0.53511 4.25342 -0.09133
v 0.98069 0.28729 1.49071
v -0.49758 4.54558 0.28577
v 0.39417 3.55944 0.08021
v 0.03586 3.67895 -0.55975
v -0.04127 4.10105 0.55173
v 0.32674 3.70730 0.18346
v 0.24875 3.36204 0.25202
v 0.29847 5.06821 -0.54974
v 0.02918 3.38527 0.35555
v -0.14287 3.87418 0.44986
v -0.06839 3.75000 0.42679
v -0.31203 3.93660 0.37838
v -0.18151 4.42416 0.58472
v -0.33439 4.19844 0.40904
v -0.31790 4.73341 0.62201
v -0.36969 4.43371 0.45447
v 0.28334 4.02507 -0.42908
v -0.03924 3.99347 -0.50739
v 0.42176 3.87773 -0.22118
v 0.50006 4.19154 -0.10968
v 0.42394 4.24677 0.45383
v -0.26089 3.98257 -0.44631
v -0.49717 4.48973 -0.22878
v 0.46006 4.37936 -0.34546
v 0.59274 4.53285 0.11699
v 0.25018 5.23255 0.76661
v 0.53587 4.55642 -0.24605
v 0.68496 4.79034 0.10879
v 0.54257 5.46515 -0.44830
v 0.34735 4.48672 -0.45771
v 0.63360 4.69060 0.00937
v 0.56500 0.24837 1.60763
v 0.67894 0.32685 1.48633
v 0.63933 0.22182 1.65018
v 1.00153 0.24776 1.43803
v 0.56926 0.31420 1.54996
v 0.73668 0.26878 1.54356
v 0.60725 0.34388 1.51472
v 0.64124 0.32381 1.53010
v 0.68689 0.31395 1.54017
v 0.71307 0.23749 1.62037
v 0.71236 0.29443 1.47568
v 0.70823 0.26895 1.59911
v 0.76702 0.21178 1.56628
v 0.65297 0.29674 1.59757
v 0.62049 0.25819 1.62903
v 1.10033 0.35673 1.28276
v 0.97152 0.24662 1.55616
v 0.94341 0.27592 1.35477
v 0.87921 0.34677 1.25965
v 1.12599 0.30018 1.41770
v -0.46057 0.60400 -0.38318
v 0.05399 0.23993 -0.61749
v 0.49622 0.19492 0.20991
v 0.49167 0.63504 0.20873
v 0.67329 0.13678 1.60644
v 0.42483 0.23028 1.27089
v 0.39856 0.19377 1.24399
v 0.51307 0.14694 1.17300
v 0.70332 0.17698 1.62217
v 0.28274 0.11164 1.10445
v 1.00887 0.25228 1.50917
v 0.61600 0.17293 1.64169
v 1.29939 0.24243 1.30197
v 0.99156 0.27653 1.42327
v 0.43403 0.31014 1.44126
v 1.00288 0.33747 1.22745
v 0.96342 0.28867 1.42600
v 0.73986 0.15413 1.48683
v 0.65336 0.16695 1.15128
v 0.76761 0.15435 1.30532
v 0.97204 0.13883 1.53141
v 0.82342 0.19771 1.57660
v 0.78541 0.20335 1.47467
v 0.51040 0.62535 0.47973
v 0.60530 0.37635 1.21905
v 0.86567 0.14052 1.30732
v 0.75702 0.38568 1.13840
v 0.94466 0.14316 1.56654
v 0.63430 0.33219 1.18303
v 0.64461 0.25411 1.19848
v 1.21857 0.20644 1.39005
v 0.87046 0.32890 1.12874
v 0.95443 0.38686 0.86179
v 1.09677 0.33118 1.07469
v 0.97419 0.31902 0.63040
v 1.03111 0.23234 0.71201
v 1.01946 0.15242 0.76127
v 0.95302 0.09813 0.87117
v 1.19234 0.10712 1.31267
v 1.27311 0.13340 1.24131
v 1.04040 0.21606 1.44221
v 1.01239 0.20298 1.53281
v 1.05200 0.14350 1.36609
v 0.83805 0.35514 1.14814
v 0.59071 0.12940 0.99139
v 0.87978 0.22715 1.10476
v 1.27564 0.20158 1.16326
v 0.98979 0.36893 0.76048
v -0.13990 0.22573 1.02876
v 0.83529 0.35763 0.49788
v 0.78360 0.16055 0.46100
v 0.18328 0.07063 0.96441
v 1.15110 0.18326 0.93178
v 0.76794 0.07279 0.92280
v -0.40458 5.91956 -0.57772
v 0.86914 0.08672 0.64754
v -0.16089 0.15314 -0.00137
v 0.37667 0.31061 -0.24208
v -0.27098 0.40376 0.47519
v -0.07177 0.36089 1.17307
v 0.52616 0.35919 0.06345
v -0.21952 0.20390 0.29277
v 0.82859 0.42983 0.57563
v 0.17849 0.15140 1.35160
v 0.10600 0.16147 1.37545
v 0.93021 0.17923 0.56819
v 0.71327 0.45805 0.84991
v 0.56774 0.05924 0.72766
v -0.11909 0.14192 1.00212
v 0.60257 0.18378 1.18418
v 0.50417 0.20786 0.09288
v 0.93429 0.22293 0.54571
v 0.79974 0.23442 0.42006
v 0.90173 0.13647 1.00639
v 0.58336 0.10763 0.45334
v 0.10312 0.10650 1.10220
v 0.77867 0.13942 1.03806
v 0.77499 0.05295 0.65833
v -0.08663 0.18368 -0.55747
v -0.51099 0.27973 -0.41423
v -0.66966 2.68034 -0.33037
v -0.60117 2.22254 -0.31027
v -0.51298 1.96146 -0.06599
v 0.15812 2.26834 -0.67245
v -0.64378 3.08403 -0.03057
v 0.37611 2.54447 -0.54978
v -0.61328 2.93801 0.07875
v -0.66640 2.91174 -0.30085
v 0.14363 5.04483 -0.61101
v 0.00668 2.63208 -0.76197
v -0.56651 2.59428 -0.50492
v 0.07085 1.78120 -0.56524
v -0.40953 2.69278 -0.66384
v 0.21409 2.75939 -0.71973
v -0.19997 3.80725 -0.51055
v 0.87488 0.30717 1.46267
v 0.16678 4.04038 -0.44097
v -0.07857 0.36356 -0.71040
v -0.10969 4.00715 -0.50032
v 0.26198 3.73928 -0.44936
v 0.20781 4.41666 -0.45985
v 0.02987 5.73202 -0.69027
v -0.50992 3.99270 0.00048
v 0.29304 3.33847 -0.56196
v -0.51895 3.48927 -0.26686
v -0.16143 3.49263 -0.56938
v -0.37850 3.36591 -0.49536
v 0.28685 1.01300 -0.31073
v 0.62603 0.53083 0.34053
v 0.23996 1.25458 -0.31813
v 0.32490 0.84212 0.17432
v 1.09620 0.33320 1.17232
v 0.00721 0.71817 0.56073
v 0.38052 0.50033 -0.26482
v -0.39931 0.55339 0.07730
v 0.02814 1.18791 0.19920
v -0.37102 0.77068 -0.54286
v -0.45668 0.50350 -0.53539
v 0.92719 0.35285 1.12802
v 0.64090 6.16717 -0.38422
v -0.02091 7.59952 0.76061
v -0.37277 3.98330 -0.34280
v -0.20367 5.33703 -0.62295
v -0.65709 6.92197 0.18203
v -0.50094 5.25392 -0.39554
v 0.30359 5.91969 -0.64567
v -0.60344 2.58669 0.06506
v -0.58086 5.75726 -0.38513
v -0.64782 6.29106 -0.27042
v -0.66415 6.84527 -0.09182
v -0.68896 6.49190 0.13759
v 0.53951 6.44808 -0.44355
v 0.82900 7.30870 0.37609
v -0.09256 7.45487 0.90261
v -0.18124 3.46657 0.37154
v 0.63569 7.35467 0.80023
v 0.16039 4.25325 0.58701
v 0.37463 7.10458 -0.37340
v 0.48710 3.24726 -0.08537
v -0.13922 3.11655 0.39546
v -0.03807 2.02241 0.25660
v -0.34015 2.44288 0.27951
v 0.28540 2.61353 0.24806
v 0.16353 3.71447 0.34401
v 0.14249 2.96208 0.36470
v -0.08584 2.70843 0.39085
v 0.07268 3.95623 0.50843
v 0.41727 3.61334 -0.26834
v -0.50824 3.69236 -0.00600
v 0.02187 4.50513 -0.51842
v 0.71555 7.49748 0.46258
v 0.43620 3.02425 -0.46893
v -0.19713 2.62869 0.38014
v 0.11988 1.47578 -0.51013
v 0.13630 2.04659 0.21685
v 0.03151 2.36739 0.34186
v -0.54410 7.14632 0.33773
v -0.31384 3.53542 0.33888
v -0.14220 0.82528 -0.56510
v 0.44558 3.89715 0.23070
v -0.33149 7.37904 0.71227
v -0.53552 4.27803 0.00679
v -0.67373 2.54955 -0.13009
v 0.44963 2.65833 -0.45042
v 0.39861 4.56579 0.49254
v -0.21359 7.54410 0.65581
v -0.01963 4.57868 0.63818
v -0.38979 3.58342 -0.41369
v -0.36995 4.43972 -0.36442
v -0.59141 4.63254 -0.02333
v -0.02445 5.30995 0.84669
v -0.57200 6.99907 0.50074
v 0.20067 4.94067 0.67640
v 0.43274 2.83199 0.09741
v 0.71855 6.51934 0.79094
v 0.43701 3.57212 -0.03036
v -0.61151 4.86083 -0.11967
v -0.68798 5.00621 0.11784
v 0.47539 5.18675 -0.43870
v 0.59923 5.04877 -0.19622
v 0.06825 0.19196 1.35083
v 0.53723 7.53074 0.71764
v 0.49833 2.81415 -0.14662
v 0.83106 6.90445 0.58472
v 0.02522 6.53274 -0.70753
v -0.68577 5.22996 0.25063
v -0.37091 5.37739 0.71159
v 0.63024 4.82036 0.28271
v 0.22811 7.19383 -0.28194
v -0.57891 5.05890 0.44133
v 0.52950 5.30099 0.61448
v 0.52370 7.62243 0.46191
v 0.45946 7.60553 0.33237
v -0.21313 5.39170 0.81249
v -0.16622 0.67969 0.44298
v 0.54875 5.98309 0.83490
v 0.71662 5.34843 0.41737
v -0.50570 6.93225 -0.26098
v 0.72391 5.07864 -0.06683
v -0.71944 6.07575 0.23403
v 0.80920 5.90563 -0.04861
v 0.68784 5.44095 -0.28361
v 0.45814 2.48930 -0.15286
v -0.53547 5.93868 0.63980
v 0.55383 7.00828 -0.35807
v 0.72644 6.83522 -0.17216
v 0.23420 6.81974 -0.60348
v -0.61955 6.51045 0.39174
v 0.03342 5.86482 0.98188
v 0.69720 6.02843 0.72751
v 0.29381 5.85194 0.91648
v 0.84719 5.87886 0.21213
v -0.43618 6.44668 0.74294
v -0.25988 6.05155 0.90977
v -0.49176 6.91546 0.70758
v 0.76382 7.06492 -0.04182
v 0.72776 7.40626 0.21908
v 0.28280 3.00206 0.27328
v 0.52680 6.90338 0.93923
v 0.11633 6.96531 -0.51631
v -0.41668 2.83621 0.29479
v 0.61360 7.54007 0.26802
v 0.86162 6.89482 0.12832
v 0.36995 6.40303 1.00492
v -0.22454 7.20271 0.92790
v -0.19123 6.55851 0.97144
v 0.12538 7.29707 1.01486
v 0.06754 6.59101 1.05452
v 0.37572 6.72193 -0.56941
v -0.50027 3.70679 -0.16941
v 0.30624 1.53334 -0.16671
v -0.39725 1.86981 0.07504
v -0.08147 1.39071 0.18151
v 0.29839 7.46043 0.93714
v 0.01356 1.52118 0.17721
v -0.52986 6.64549 -0.41340
v 0.48491 3.97680 0.06847
v 0.35641 3.92673 -0.36641
v 0.04202 1.22822 -0.49484
v 0.31953 0.19777 1.57056
v 0.20034 7.63686 0.65705
v 0.33674 7.00696 1.02386
v -0.34905 5.46846 -0.58127
v -0.09810 7.58506 0.55425
v 0.06455 0.84399 0.41817
v -0.20937 0.93650 0.23106
v -0.68134 5.90874 -0.21075
v -0.44526 0.96490 -0.00961
v -0.58235 2.98235 -0.46705
v -0.45418 2.26285 0.14265
v -0.43541 3.24465 0.27781
v -0.52934 0.37325 -0.13018
v -0.47702 7.16894 0.09269
v -0.21433 2.97444 -0.72302
v -0.22087 2.70197 -0.75374
v -0.47828 3.54755 0.15866
v 0.81484 5.99237 0.54260
v 0.85415 6.48589 0.20907
v -0.38752 3.00597 -0.63776
v 0.06933 3.11685 -0.71742
v -0.22270 0.14666 -0.34981
v 0.74847 5.20118 0.24957
v 0.86894 6.37713 0.41393
v -0.35683 7.17929 -0.04429
v -0.14280 6.15562 -0.69858
v -0.16286 6.70063 -0.64663
v 0.35445 0.82089 0.00799
v 0.39826 0.71668 -0.26487
v 0.35734 2.11112 -0.35197
v 0.22369 0.24141 -0.53656
v -0.27819 6.85802 -0.49893
v 0.69966 6.48228 -0.21443
v 0.36798 0.32355 1.52349
v 0.57097 0.14356 1.05812
v 0.48832 0.14228 1.59337
v 0.40087 0.10668 1.57381
v 0.37629 0.37494 1.38632
v 0.42543 0.29853 1.29021
v 0.42687 0.14651 1.41859
v 0.15458 0.29144 1.54785
v 0.62781 0.12728 0.94048
v 0.12188 0.12273 1.48715
v 0.81954 0.34012 1.34778
v 0.36239 0.15682 1.62797
v 0.85046 0.27946 1.53644
v 0.37488 0.15683 1.38188
v 0.26785 0.14626 1.22455
v 0.24382 0.19916 1.33636
v 0.87801 0.23593 1.59827
v 0.89240 0.25254 1.57580
v 0.17753 1.29868 -0.42055
v 0.24571 1.14524 0.00707
v 0.31776 0.98988 -0.21038
v 0.38601 0.67360 -0.11332
v 0.40009 0.08534 0.94816
v 0.44885 0.06862 0.82885
v 0.12276 1.10343 -0.46492
v 0.85665 0.29751 1.15626
v 0.46870 0.07871 0.63615
v 0.54042 0.08452 0.78247
v 0.58391 0.14041 1.58344
v 0.26360 1.26701 -0.15271
v 0.00799 0.50439 -0.67114
v 0.26272 1.62378 -0.38214
v 0.25403 1.64157 0.00814
v 0.34436 1.93695 -0.23438
v 0.21402 1.80591 -0.49835
v 0.32859 1.99633 -0.02816
v 0.31360 0.05700 0.71401
v -0.15888 1.18909 -0.50348
v -0.51134 0.74854 0.01757
v -0.48035 0.95283 -0.11051
v -0.29232 0.68759 0.22489
v -0.51076 0.57125 -0.16957
v -0.42329 1.23398 -0.05072
v -0.49263 1.73025 -0.22238
v -0.45991 1.31971 -0.19645
v -0.33646 1.28542 0.06252
v -0.13207 1.05893 0.22751
v 1.13326 0.30762 1.16940
v 1.13987 0.33243 1.13315
v 1.24508 0.29833 1.16919
v 1.18014 0.31858 1.16078
v 0.78862 0.28106 1.44531
v 1.24343 0.32069 1.21752
v 0.91857 0.31260 1.41335
v 1.29354 0.27219 1.24525
v 1.00514 0.34704 1.28669
v 0.51497 0.17790 1.55300
v 0.34339 0.29531 1.55100
v 0.42134 0.14075 1.64005
v 0.08489 0.14959 1.26099
v 0.74110 0.15683 1.57721
v 0.51561 0.18437 1.51119
v 0.54180 0.21756 1.58508
v 0.06984 0.33528 1.38261
v 0.41776 0.20141 1.64900
v 0.12449 0.16160 1.55728
v 0.43979 0.21692 1.63043
v -0.16698 0.46247 0.83063
v 0.46628 0.25039 1.58614
v 0.31523 0.13695 1.46966
v 0.45762 0.27460 1.53801
v 0.40652 0.29408 1.56319
v 0.73874 0.27511 1.31568
v 0.37452 0.28821 1.57024
v 0.37196 0.23431 1.61962
v 0.47237 0.20574 1.62535
v 0.21007 0.27016 1.57242
v 0.25645 0.27205 1.53177
v 0.28721 0.25164 1.52806
v 0.26458 0.19828 1.58322
v 0.15740 0.23975 1.58956
v 0.21575 0.30651 1.52634
v 0.92993 0.13326 1.40609
v 0.93527 0.18398 1.34761
v 0.98894 0.17827 1.42191
v 0.92539 0.33029 1.23962
v 0.95332 0.16505 1.28668
v 0.85987 0.18448 1.06691
v 0.91581 0.18380 1.13725
v 1.06378 0.08132 1.22444
v 1.01229 0.13440 1.05664
v 1.17265 0.10750 1.09490
v 1.17141 0.14621 1.02308
v 0.61732 0.11769 1.43885
v 0.04624 0.26841 1.36011
v 0.43701 0.11634 1.50187
v 0.20317 0.09478 1.48940
v 0.15990 0.11627 1.41479
v 0.19283 0.11687 1.56342
v 0.23482 0.16098 1.36759
v 0.27759 0.13417 1.52053
v 0.03629 0.15898 -0.02511
v 0.33675 0.58823 0.78571
v 0.26407 0.65018 0.67300
v 0.81848 0.44332 0.67239
v 0.63788 0.54662 0.63554
v 0.09805 0.37807 1.33626
v 0.49809 0.17281 1.39780
v 0.51190 0.16156 1.36976
v 0.52599 0.14296 1.39185
v 0.59032 0.14811 1.28941
v 0.64291 0.16279 1.32480
v 0.70205 0.12774 1.52223
v 0.67901 0.13931 1.39450
v 0.58651 0.15267 1.32597
v 0.71076 0.19509 1.40389
v 0.68003 0.17871 1.33556
v 0.63827 0.38200 1.10812
v 0.53217 0.43899 0.93847
v 0.52001 0.56571 0.68335
v 0.47220 0.44680 1.03922
v 0.28447 0.45521 1.08977
v 0.37453 0.40810 1.14157
v 0.40869 0.35724 1.27696
v 0.45326 0.38822 1.28185
v 0.54177 0.41763 1.11632
v 0.21683 0.38622 1.31845
v 0.24648 0.41421 1.25769
v 0.12361 0.52794 0.92317
v -0.07396 0.45641 0.98333
v 0.00216 0.48589 0.96598
v 0.18731 1.21644 0.08974
v 0.11011 1.04583 0.23729
v 0.26077 0.83648 0.32155
v 0.15661 1.32451 0.10598
v 0.25928 2.13489 0.14437
v 0.37454 2.39970 0.07893
v 0.17262 1.72991 0.11840
v -0.31107 2.01660 0.18523
v -0.43650 1.58158 -0.02759
v -0.20046 1.96079 0.22826
v -0.18248 1.35524 0.15740
v -0.18993 0.18482 0.77693
v -0.20434 0.40379 0.78277
v -0.15090 0.18827 0.53515
v -0.19851 0.19542 0.44056
v -0.23860 0.27912 0.61388
v -0.30520 0.26983 0.32196
v -0.01080 0.16081 0.24411
v -0.30169 0.19990 0.09103
v -0.28744 0.20602 0.20734
v -0.38271 0.20234 0.00479
v -0.40651 0.25440 0.10568
v 0.09143 0.06932 0.76395
v -0.34592 0.27218 0.20774
v -0.39953 0.35967 0.16663
v -0.33303 0.48495 0.23122
v -0.34803 0.35395 0.26590
v 0.37813 0.16160 0.22865
v 0.38751 0.20662 0.01343
v 0.59798 0.30255 0.18361
v 0.28693 0.16544 0.08661
v 0.56671 4.57633 0.24018
v 0.41283 0.41723 -0.17837
v 0.51346 0.48098 0.09104
v 0.48064 0.27818 0.01889
v 0.24118 0.15679 -0.04273
v 0.40226 0.19821 -0.09778
v 0.30598 0.49508 -0.40587
v 0.33417 0.23732 -0.30471
v 0.33831 0.34651 -0.37492
v 0.27243 0.16724 -0.18130
v 0.42834 0.31384 -0.16937
v -0.45418 0.24075 -0.07477
v -0.33734 0.16053 -0.22294
v -0.46107 0.31633 0.00646
v -0.49061 0.20140 -0.19708
v 0.18030 0.07866 0.60264
v 0.22661 0.07655 0.64915
v 0.43959 0.11240 0.48508
v 0.36151 0.12789 0.41521
v -0.03718 0.13697 0.56068
v -0.06524 0.11017 0.94273
v -0.12480 0.14278 0.68877
v 0.03721 0.09885 0.61480
v 0.11189 0.14680 0.38702
v 0.26451 0.16964 0.24667
v 0.06011 0.14012 -0.19818
v -0.03009 0.15104 -0.41499
v 0.17428 0.15596 -0.38638
vn 0.5518 0.1488 -0.8206
vn 0.7631 0.1375 -0.6315
vn 0.6108 0.0344 -0.7910
vn -0.0927 -0.5362 -0.8390
vn -0.3856 -0.8653 -0.3202
vn -0.8756 -0.4749 0.0879
vn -0.6964 -0.1292 -0.7059
vn -0.0879 0.1218 -0.9887
vn -0.3657 -0.5632 -0.7410
vn -0.5283 0.2323 -0.8167
vn 0.0466 0.3606 -0.9316
vn -0.2060 0.2373 -0.9493
vn 0.1896 0.2147 -0.9581
vn -0.9884 0.0802 -0.1289
vn -0.9733 0.1565 -0.1678
vn -0.9349 0.1693 -0.3120
vn -0.8279 0.1406 -0.5430
vn -0.9179 -0.0137 -0.3966
vn -0.9606 0.0978 -0.2601
vn -0.9347 -0.0400 -0.3531
vn -0.3753 -0.1219 -0.9188
vn 0.9412 -0.1703 -0.2916
vn -0.9417 -0.1964 0.2732
vn -0.4994 -0.8644 0.0592
vn -0.0813 -0.9617 -0.2617
vn 0.0040 -0.9990 0.0444
vn -0.0351 -0.9835 -0.1772
vn -0.8256 -0.5462 0.1416
vn -0.4839 -0.8370 0.2556
vn 0.7805 0.4909 -0.3871
vn 0.1921 -0.9703 -0.1470
vn -0.1031 -0.9638 -0.2458
vn 0.0583 0.9171 0.3944
vn 0.2171 0.8040 0.5536
vn 0.4872 0.0359 0.8725
vn -0.6576 0.5438 0.5214
vn -0.3246 0.8905 0.3188
vn 0.7014 0.7091 -0.0724
vn -0.1235 -0.8320 0.5408
vn 0.1817 0.9758 -0.1215
vn 0.0000 -0.0000 0.0000
vn -0.6449 0.5939 0.4810
vn 0.5756 -0.4176 -0.7031
vn -0.4211 -0.8989 0.1207
vn 0.0000 0.0000 0.0000
vn 0.2972 0.8266 -0.4779
vn 0.6509 0.7294 0.2105
vn 0.7954 0.5476 0.2597
vn 0.4420 0.8608 0.2524
vn 0.3031 0.7397 0.6008
vn 0.6147 0.2833 0.7361
vn 0.1745 0.9669 0.1864
vn -0.0172 -0.5489 -0.8357
vn -0.0781 0.9549 -0.2863
vn -0.2933 -0.8392 -0.4580
vn 0.2472 0.3380 0.9081
vn -0.2788 -0.3552 0.8922
vn -0.0462 0.8158 0.5765
vn -0.2248 -0.9503 0.2154
vn -0.0324 0.9607 0.2758
vn 0.5985 0.3760 -0.7074
vn -0.4477 0.8079 0.3832
vn -0.3432 0.8744 0.3430
vn 0.0000 0.0000 0.0000
vn -0.1635 0.9831 0.0825
vn -0.2432 -0.3021 -0.9217
vn -0.5134 -0.0004 -0.8581
vn -0.1890 -0.1222 -0.9743
vn -0.2103 -0.2204 -0.9525
vn -0.5317 -0.1868 -0.8261
vn -0.8107 -0.1603 -0.5630
vn -0.8304 0.2175 0.5130
vn 0.9688 -0.0065 -0.2477
vn -0.0548 -0.1273 0.9904
vn -0.8647 0.2070 0.4577
vn 0.1206 0.6826 0.7208
vn 0.9677 -0.1818 0.1747
vn -0.5370 0.1649 -0.8273
vn 0.6248 -0.2496 0.7398
vn 0.3864 -0.1219 0.9143
vn -0.9070 -0.0874 0.4120
vn -0.8005 -0.2426 0.5480
vn 0.8607 -0.4659 -0.2054
vn -0.9168 -0.2605 0.3027
vn 0.6494 -0.4669 0.6003
vn 0.3649 -0.3806 0.8497
vn 0.9780 -0.1955 0.0733
vn -0.9396 -0.1456 0.3099
vn -0.9622 -0.1106 -0.2491
vn 0.3678 0.9210 0.1287
vn -0.9337 -0.2868 0.2142
vn 0.8379 0.0589 0.5426
vn 0.0864 0.2451 -0.9656
vn -0.2459 -0.2381 0.9396
vn 0.7777 -0.2678 0.5687
vn 0.5907 0.0277 0.8064
vn 0.4860 -0.1055 -0.8676
vn 0.2540 -0.0154 0.9671
vn -0.3589 -0.1623 0.9191
vn 0.1060 -0.2954 0.9495
vn -0.6821 -0.0690 0.7280
vn -0.3898 -0.2539 0.8852
vn -0.5952 -0.2247 0.7715
vn -0.4723 -0.2262 0.8519
vn -0.5968 -0.2808 0.7517
vn 0.2720 -0.0510 -0.9610
vn 0.1188 0.0580 -0.9912
vn 0.9827 -0.0914 -0.1611
vn 0.9674 -0.2157 -0.1324
vn 0.6957 -0.1663 0.6988
vn -0.5531 0.0402 -0.8321
vn -0.8488 -0.1139 -0.5163
vn 0.8617 -0.1358 -0.4890
vn 0.9619 -0.2655 0.0655
vn 0.3775 -0.2764 0.8838
vn 0.8793 -0.1149 -0.4623
vn 0.9648 -0.2440 0.0980
vn 0.6247 -0.0725 -0.7774
vn 0.4909 -0.1296 -0.8615
vn 0.9342 -0.2110 -0.2875
vn -0.8203 0.2719 0.5032
vn 0.4959 0.8619 0.1061
vn 0.0124 0.1053 0.9944
vn 0.9344 0.1629 -0.3169
vn -0.4411 0.7359 0.5137
vn 0.6643 0.6967 0.2709
vn 0.1081 0.9720 0.2084
vn 0.1123 0.9086 0.4023
vn 0.3777 0.8677 0.3230
vn 0.5675 0.4521 0.6881
vn 0.8944 0.3999 -0.2002
vn 0.5639 0.6078 0.5591
vn 0.9935 0.1134 -0.0134
vn 0.0657 0.8212 0.5668
vn -0.0843 0.6071 0.7901
vn 0.0331 0.9991 -0.0253
vn 0.3802 0.6730 0.6344
vn 0.8870 0.2325 -0.3990
vn 0.5488 0.8348 -0.0439
vn 0.2147 0.2822 0.9350
vn -0.9119 0.1994 -0.3587
vn 0.2243 -0.6045 -0.7644
vn 0.3728 -0.8227 -0.4293
vn 0.8523 0.4826 -0.2015
vn 0.1175 -0.8930 0.4346
vn -0.3493 -0.6177 0.7046
vn 0.0960 -0.9694 0.2260
vn 0.0786 -0.9818 0.1728
vn 0.4657 -0.2700 0.8427
vn 0.0698 -0.9522 0.2974
vn 0.8501 0.4917 0.1885
vn -0.3352 -0.3939 0.8559
vn 0.9444 -0.0975 0.3141
vn -0.8140 0.1307 0.5660
vn 0.9364 0.3184 -0.1477
vn -0.0089 1.0000 -0.0031
vn 0.5533 0.8267 -0.1019
vn 0.8402 -0.4843 -0.2440
vn -0.2866 -0.9046 0.3155
vn -0.6600 -0.6757 0.3282
vn 0.5811 -0.8138 0.0115
vn -0.6922 -0.3874 0.6089
vn -0.9476 -0.1853 0.2604
vn 0.5871 0.8067 0.0674
vn 0.5422 0.8386 0.0518
vn 0.1351 -0.9892 -0.0576
vn 0.1008 0.9664 0.2365
vn -0.0355 -0.7565 0.6530
vn 0.5480 0.8048 0.2279
vn 0.2066 -0.6668 0.7160
vn 0.5069 -0.3384 0.7928
vn -0.2297 0.8443 0.4842
vn 0.2674 0.9539 0.1363
vn 0.5275 0.8423 -0.1106
vn 0.7900 0.4773 -0.3848
vn 0.8545 -0.1747 -0.4892
vn 0.5856 -0.7388 -0.3335
vn 0.2159 -0.9711 0.1018
vn 0.2213 -0.8954 0.3865
vn 0.7500 -0.6549 0.0930
vn -0.0999 -0.4772 0.8731
vn 0.9433 -0.2684 0.1953
vn -0.2553 -0.8342 0.4888
vn 0.5375 0.8257 0.1713
vn 0.1011 -0.9740 0.2028
vn -0.8458 -0.2479 0.4724
vn 0.8932 -0.1372 -0.4282
vn 0.5892 0.7921 -0.1594
vn -0.9302 -0.0896 0.3558
vn 0.7571 0.3630 -0.5432
vn 0.3954 -0.7412 -0.5425
vn -0.0382 -0.9915 0.1241
vn 0.8973 -0.0421 -0.4394
vn -0.0179 -0.9690 0.2465
vn -0.6040 0.0106 -0.7969
vn 0.4441 -0.8399 -0.3118
vn -0.1035 -0.9923 0.0679
vn 0.8578 -0.3303 -0.3939
vn -0.9394 0.2122 0.2693
vn -0.8269 0.3492 0.4408
vn 0.9010 -0.0069 -0.4338
vn -0.4372 -0.8904 0.1262
vn 0.5924 0.7824 -0.1921
vn 0.1631 -0.9858 -0.0398
vn -0.4204 -0.9017 -0.1013
vn 0.6411 -0.5990 -0.4798
vn 0.2049 0.9456 0.2529
vn -0.0931 -0.9927 0.0767
vn -0.6859 -0.6333 0.3584
vn 0.4939 -0.8695 0.0073
vn 0.5183 -0.7871 -0.3345
vn 0.7466 -0.0008 -0.6653
vn 0.7557 -0.0096 -0.6548
vn -0.3379 -0.8931 0.2970
vn 0.0826 -0.9477 -0.3084
vn -0.0323 -0.9732 0.2275
vn 0.1083 -0.9656 0.2364
vn 0.0954 -0.9845 -0.1473
vn -0.0269 -0.9203 -0.3904
vn -0.8999 -0.2318 -0.3694
vn -0.9449 -0.0664 -0.3205
vn -0.9504 -0.2169 -0.2230
vn -0.9182 -0.2111 0.3351
vn 0.4024 -0.1966 -0.8941
vn -0.9760 0.1368 0.1694
vn 0.7663 -0.1410 -0.6269
vn -0.8496 0.0298 0.5266
vn -0.9756 0.1748 -0.1326
vn 0.0750 -0.1406 -0.9872
vn 0.0912 -0.0593 -0.9941
vn -0.7571 -0.1480 -0.6363
vn 0.2007 -0.2338 -0.9513
vn -0.5617 -0.1054 -0.8206
vn 0.5339 0.0264 -0.8451
vn -0.4175 0.1619 -0.8941
vn 0.0138 0.9739 0.2267
vn 0.2753 0.0680 -0.9590
vn 0.1620 -0.1589 -0.9739
vn -0.2199 0.0161 -0.9754
vn 0.5107 0.1895 -0.8386
vn 0.2111 -0.0854 -0.9737
vn 0.0463 -0.0678 -0.9966
vn -0.9695 -0.0274 0.2436
vn 0.6492 0.1976 -0.7345
vn -0.8826 0.2664 -0.3873
vn -0.3053 0.2423 -0.9209
vn -0.6165 0.2715 -0.7391
vn 0.8621 0.2501 -0.4406
vn 0.7010 0.6526 -0.2875
vn 0.9104 -0.0039 -0.4136
vn 0.7560 0.6046 0.2508
vn 0.0317 0.9801 -0.1960
vn -0.2807 0.7911 0.5434
vn 0.9510 -0.0279 -0.3080
vn -0.8740 -0.0498 0.4833
vn 0.1919 0.1755 0.9656
vn -0.6688 0.2782 -0.6894
vn -0.8945 0.1798 -0.4094
vn 0.0112 0.9945 0.1042
vn 0.7723 0.0162 -0.6350
vn -0.1422 0.8871 0.4392
vn -0.8143 0.0230 -0.5799
vn -0.1846 -0.1301 -0.9742
vn -0.9785 0.1469 0.1451
vn -0.7349 -0.1340 -0.6648
vn 0.4368 -0.0223 -0.8993
vn -0.8194 -0.1483 0.5537
vn -0.8072 -0.0521 -0.5880
vn -0.9426 0.0468 -0.3307
vn -0.9300 0.2676 -0.2518
vn -0.9984 0.0557 -0.0053
vn 0.7050 0.0602 -0.7066
vn 0.9679 0.2420 0.0685
vn -0.3648 0.5457 0.7544
vn -0.0769 -0.0789 0.9939
vn 0.7226 0.2213 0.6549
vn 0.2463 -0.1858 0.9512
vn 0.2381 0.6886 -0.6849
vn 0.9962 0.0700 0.0516
vn -0.1252 0.0189 0.9920
vn 0.0572 -0.1698 0.9838
vn -0.5185 -0.1786 0.8362
vn 0.6148 -0.1317 0.7776
vn 0.4649 -0.2810 0.8396
vn 0.3288 -0.0021 0.9444
vn 0.0940 -0.0497 0.9943
vn 0.1173 -0.3493 0.9296
vn 0.9249 0.1235 -0.3595
vn -0.9849 0.1730 0.0023
vn 0.0200 -0.1111 -0.9936
vn 0.7484 0.6426 0.1639
vn 0.8996 0.0855 -0.4282
vn -0.2662 -0.1381 0.9540
vn 0.3515 -0.1427 -0.9253
vn 0.4521 -0.1887 0.8718
vn 0.2089 -0.1738 0.9624
vn -0.8285 0.5600 -0.0016
vn -0.4770 -0.0160 0.8787
vn 0.0849 0.3314 -0.9397
vn 0.8987 -0.3290 0.2900
vn -0.8007 0.4178 0.4293
vn -0.9484 -0.1097 0.2976
vn -0.9832 -0.1061 0.1487
vn 0.9677 -0.1120 -0.2260
vn 0.7516 -0.0611 0.6568
vn -0.6593 0.7515 0.0251
vn 0.0343 -0.2252 0.9737
vn -0.7527 0.1779 -0.6339
vn -0.6634 -0.0823 -0.7438
vn -0.9716 -0.2366 -0.0051
vn 0.0027 -0.2555 0.9668
vn -0.9310 0.1979 0.3068
vn 0.3952 -0.2461 0.8850
vn 0.8885 -0.0316 0.4578
vn 0.7584 -0.0313 0.6511
vn 0.9890 0.1097 0.0988
vn -0.9146 -0.1155 -0.3874
vn -0.9931 -0.0742 -0.0909
vn 0.7449 -0.1426 -0.6517
vn 0.8411 -0.1867 -0.5076
vn -0.7265 -0.5833 0.3632
vn 0.4015 0.7977 0.4500
vn 0.9997 -0.0234 -0.0069
vn 0.9589 0.0581 0.2779
vn 0.1471 0.0653 -0.9870
vn -0.9299 -0.0518 0.3642
vn -0.6499 -0.1353 0.7479
vn 0.7883 -0.2825 0.5466
vn -0.1486 0.8125 -0.5638
vn -0.7867 -0.1417 0.6009
vn 0.6343 -0.2801 0.7206
vn 0.3156 0.9432 0.1040
vn -0.1596 0.8784 -0.4505
vn -0.3764 -0.1824 0.9083
vn -0.7891 0.4436 0.4248
vn 0.5086 -0.2085 0.8353
vn 0.8621 -0.2267 0.4533
vn -0.6012 0.5658 -0.5644
vn 0.9624 -0.1571 -0.2218
vn -0.9875 0.0078 0.1571
vn 0.9499 -0.0104 -0.3123
vn 0.8506 -0.1126 -0.5136
vn 0.9824 -0.1704 0.0762
vn -0.8335 -0.0312 0.5516
vn 0.6193 0.3961 -0.6779
vn 0.8391 0.0633 -0.5403
vn 0.1828 0.4082 -0.8944
vn -0.9257 0.0371 0.3764
vn -0.0935 -0.1489 0.9844
vn 0.7283 -0.2153 0.6506
vn 0.2917 -0.2269 0.9292
vn 0.9945 -0.1037 0.0131
vn -0.7842 -0.0024 0.6205
vn -0.5482 -0.0868 0.8318
vn -0.7957 0.0597 0.6027
vn 0.8436 0.3076 -0.4402
vn 0.7076 0.5410 -0.4546
vn 0.7014 0.0388 0.7117
vn 0.5460 0.0276 0.8373
vn -0.1014 0.6452 -0.7573
vn -0.5563 -0.0545 0.8292
vn 0.3343 0.7693 -0.5445
vn 0.9838 0.0293 -0.1767
vn 0.3356 -0.0985 0.9368
vn -0.4882 0.1273 0.8634
vn -0.4967 -0.0183 0.8677
vn -0.1078 0.1594 0.9813
vn -0.1060 -0.0063 0.9943
vn 0.4949 0.0871 -0.8646
vn -0.9209 0.1417 -0.3631
vn 0.9898 -0.1335 0.0506
vn -0.7617 -0.1408 0.6325
vn -0.1494 0.0586 0.9870
vn 0.2260 0.5622 0.7955
vn 0.2714 -0.0851 0.9587
vn -0.7750 0.1109 -0.6222
vn 0.9731 -0.2267 -0.0403
vn 0.7512 -0.0919 -0.6536
vn 0.1944 0.0435 -0.9800
vn -0.9036 -0.1348 0.4066
vn 0.0497 0.9808 0.1884
vn 0.2753 0.0900 0.9571
vn -0.5513 -0.1105 -0.8270
vn -0.2869 0.8889 -0.3572
vn 0.0129 0.7215 0.6923
vn -0.6227 0.3131 0.7170
vn -0.9781 -0.0241 -0.2065
vn -0.8003 0.2077 0.5625
vn -0.7788 0.1882 -0.5984
vn -0.7084 -0.1928 0.6790
vn -0.7278 0.0676 0.6825
vn -0.9428 0.0608 0.3278
vn -0.6414 0.7167 -0.2739
vn -0.2415 0.2264 -0.9436
vn -0.1824 -0.0176 -0.9831
vn -0.8655 0.0830 0.4941
vn 0.9336 -0.1263 0.3354
vn 0.9851 0.0108 -0.1716
vn -0.5263 0.2466 -0.8137
vn 0.1680 0.2006 -0.9652
vn -0.1011 -0.9904 -0.0944
vn 0.9759 -0.1691 0.1383
vn 0.9807 -0.0233 0.1942
vn -0.2749 0.8205 -0.5013
vn -0.3061 0.0007 -0.9520
vn -0.2635 0.3004 -0.9167
vn 0.9286 0.3711 0.0056
vn 0.9753 0.2075 -0.0752
vn 0.9358 -0.1931 -0.2951
vn 0.6279 -0.4742 -0.6172
vn -0.3304 0.6778 -0.6569
vn 0.9102 0.0290 -0.4132
vn -0.1360 0.8716 0.4710
vn 0.1808 -0.9612 0.2084
vn 0.6078 -0.7276 0.3181
vn -0.2831 -0.9415 0.1829
vn 0.2697 0.9335 0.2365
vn -0.7865 0.1134 0.6071
vn 0.6378 -0.6012 -0.4815
vn -0.3785 0.7508 0.5413
vn -0.0606 -0.9509 0.3035
vn -0.7481 -0.6493 0.1373
vn -0.2551 0.9062 0.3373
vn -0.6526 -0.3459 0.6741
vn -0.1760 0.8902 0.4202
vn 0.2988 -0.9324 -0.2035
vn 0.0303 -0.9774 0.2091
vn 0.2404 -0.9470 0.2133
vn -0.0848 0.1623 0.9831
vn 0.1111 0.7792 0.6169
vn 0.7039 -0.1166 -0.7007
vn 0.9094 0.3173 0.2689
vn 0.9723 0.2319 0.0294
vn 0.9662 0.1868 -0.1777
vn 0.1050 -0.9791 0.1744
vn 0.1405 -0.9821 0.1255
vn 0.6112 0.1724 -0.7725
vn 0.9628 0.0914 -0.2543
vn -0.0389 -0.9865 -0.1590
vn -0.0436 -0.9849 0.1673
vn -0.3870 -0.8843 0.2613
vn 0.9973 -0.0036 0.0736
vn 0.2443 0.2666 -0.9323
vn 0.9089 -0.1450 -0.3911
vn 0.8823 -0.0966 0.4608
vn 0.9858 -0.1616 -0.0464
vn 0.7191 -0.1998 -0.6655
vn 0.9339 -0.1715 0.3138
vn 0.0249 -0.9997 -0.0040
vn -0.0906 0.0045 -0.9959
vn -0.9058 0.0738 0.4171
vn -0.9934 0.1121 0.0261
vn -0.7814 0.1411 0.6079
vn -0.9469 -0.0041 0.3216
vn -0.8371 0.0480 0.5450
vn -0.9871 -0.1489 -0.0596
vn -0.9941 -0.0082 0.1083
vn -0.6521 -0.0302 0.7575
vn -0.2562 0.3374 0.9058
vn 0.0000 0.0000 0.0000
vn 0.2713 0.9434 -0.1907
vn 0.6729 0.5426 -0.5029
vn 0.2044 0.9543 -0.2179
vn -0.8192 0.4656 0.3350
vn 0.5043 0.8434 -0.1854
vn 0.3869 0.9161 0.1048
vn 0.9123 0.3666 -0.1825
vn -0.1195 0.9927 0.0165
vn 0.9711 0.0016 -0.2385
vn -0.7175 0.4685 0.5154
vn 0.1932 -0.5770 0.7936
vn -0.2903 -0.9237 0.2500
vn 0.6804 -0.6691 0.2991
vn -0.9047 -0.2793 0.3218
vn -0.7755 -0.2643 0.5734
vn -0.7382 0.4595 0.4938
vn -0.0738 0.1287 0.9889
vn -0.7964 -0.3110 0.5187
vn 0.2101 0.5951 0.7757
vn -0.5860 0.7070 0.3960
vn 0.6243 0.6472 0.4375
vn -0.7028 -0.6942 0.1554
vn 0.6472 0.7389 0.1875
vn 0.3124 0.8413 0.4411
vn -0.8649 -0.0059 0.5018
vn -0.2067 0.7394 0.6407
vn -0.5337 0.3697 0.7606
vn 0.6965 0.0985 0.7108
vn 0.2642 0.6129 0.7447
vn 0.4075 0.6343 0.6570
vn 0.9256 0.3458 0.1538
vn 0.6305 -0.0702 0.7730
vn -0.4465 0.2429 0.8612
vn 0.2224 0.9116 0.3457
vn 0.4534 -0.8370 -0.3064
vn 0.8432 -0.3168 -0.4344
vn 0.8529 -0.3754 -0.3628
vn -0.8012 0.4733 0.3661
vn -0.7539 -0.5637 0.3373
vn 0.3260 -0.8889 0.3219
vn -0.5621 -0.8217 0.0940
vn -0.2635 -0.9627 0.0619
vn -0.2241 -0.9708 0.0853
vn 0.3527 -0.9142 -0.1995
vn 0.7709 -0.4706 -0.4292
vn -0.0425 -0.9961 -0.0774
vn -0.8789 -0.1710 0.4453
vn 0.4331 -0.8800 -0.1951
vn 0.1987 -0.9733 -0.1152
vn -0.1224 -0.9308 -0.3444
vn -0.0054 -0.7476 0.6641
vn 0.5815 -0.7197 -0.3792
vn 0.7740 -0.6228 0.1140
vn 0.0141 -0.9987 0.0490
vn 0.2697 0.8868 0.3753
vn 0.1324 0.8766 0.4626
vn 0.4017 0.9139 0.0589
vn 0.4183 0.8972 0.1415
vn -0.2021 0.9072 0.3690
vn -0.8762 -0.4183 0.2395
vn -0.3900 -0.9115 0.1305
vn -0.4450 -0.8954 0.0155
vn 0.0971 -0.9948 -0.0295
vn 0.1986 -0.9267 -0.3190
vn 0.1850 -0.9818 0.0419
vn 0.3859 -0.8797 -0.2778
vn -0.0380 -0.9712 -0.2351
vn 0.9471 0.0902 -0.3079
vn 0.7908 -0.4895 -0.3673
vn 0.1059 0.9558 0.2741
vn 0.2510 0.9118 0.3249
vn 0.3067 0.8783 0.3668
vn 0.1391 0.9544 0.2642
vn 0.1133 0.9202 0.3748
vn 0.1398 0.9312 0.3367
vn 0.6045 0.7598 0.2395
vn -0.4567 0.8006 0.3879
vn 0.3350 0.9353 0.1143
vn -0.1239 0.9095 0.3968
vn 0.0134 0.9530 0.3028
vn -0.0326 0.9053 0.4234
vn -0.4148 0.8369 0.3571
vn -0.2424 0.8864 0.3943
vn 0.8474 0.0785 0.5252
vn 0.4510 0.5349 0.7144
vn 0.4178 0.8033 0.4245
vn 0.5766 0.0032 0.8170
vn 0.6879 -0.1906 0.7003
vn 0.8747 -0.1771 0.4512
vn 0.6974 -0.1514 0.7005
vn -0.5168 -0.1649 0.8401
vn -0.9131 -0.0989 0.3956
vn -0.2130 -0.1813 0.9601
vn -0.2642 -0.0613 0.9625
vn -0.8930 -0.4365 0.1095
vn -0.9548 0.1651 0.2473
vn -0.6112 -0.7900 -0.0484
vn -0.3634 -0.9295 0.0630
vn -0.9308 -0.3186 0.1789
vn -0.8549 -0.4514 0.2558
vn -0.0472 -0.9989 -0.0069
vn -0.3043 -0.9350 0.1822
vn -0.4187 -0.8907 0.1769
vn -0.4200 -0.8921 0.1664
vn -0.7507 -0.5352 0.3873
vn -0.1453 -0.9892 -0.0220
vn -0.7208 -0.6069 0.3347
vn -0.9180 0.0812 0.3882
vn -0.8850 0.2377 0.4004
vn -0.9181 -0.0444 0.3938
vn 0.0655 -0.9789 -0.1936
vn 0.3808 -0.9143 -0.1377
vn 0.7233 -0.3379 -0.6022
vn 0.1615 -0.9813 -0.1045
vn 0.8601 -0.1637 0.4831
vn 0.9186 0.1891 -0.3471
vn 0.8148 0.2893 -0.5024
vn 0.8126 -0.4758 -0.3365
vn 0.0866 -0.9959 0.0265
vn 0.5859 -0.7731 -0.2431
vn 0.7508 0.0376 -0.6595
vn 0.7298 -0.6314 -0.2623
vn 0.8898 -0.0763 -0.4499
vn 0.3696 -0.9183 -0.1417
vn 0.8919 -0.1987 -0.4062
vn -0.5912 -0.7544 0.2852
vn -0.2417 -0.9699 0.0284
vn -0.9084 0.0238 0.4174
vn -0.4073 -0.9133 -0.0050
vn -0.0632 -0.9732 -0.2210
vn -0.0004 -0.9806 -0.1962
vn -0.0271 -0.9785 -0.2047
vn -0.0357 -0.9759 -0.2155
vn -0.2391 -0.9632 -0.1229
vn -0.2891 -0.9547 0.0709
vn -0.4065 -0.9092 -0.0895
vn -0.2553 -0.9555 -0.1477
vn -0.0657 -0.9766 -0.2049
vn -0.0032 -0.9979 -0.0650
vn 0.0284 -0.9995 0.0097
vn 0.0117 -0.9921 -0.1251
vn 0.2404 -0.9453 -0.2206
f 2//2 248//248 408//408
f 219//219 5//5 9//9
f 5//5 220//220 7//7
f 9//9 5//5 7//7
f 9//9 8//8 4//4
f 258//258 10//10 7//7
f 7//7 10//10 8//8
f 258//258 220//220 14//14
f 299//299 8//8 11//11
f 15//15 141//141 258//258
f 258//258 141//141 16//16
f 17//17 258//258 16//16
f 238//238 142//142 4//4
f 443//443 238//238 8//8
f 220//220 6//6 14//14
f 452//452 18//18 19//19
f 452//452 19//19 451//451
f 237//237 106//106 240//240
f 11//11 12//12 299//299
f 10//10 12//12 11//11
f 19//19 18//18 17//17
f 3//3 142//142 238//238
f 141//141 19//19 16//16
f 237//237 241//241 106//106
f 17//17 257//257 258//258
f 450//450 12//12 67//67
f 257//257 12//12 10//10
f 109//109 377//377 87//87
f 106//106 241//241 119//119
f 237//237 107//107 241//241
f 142//142 3//3 410//410
f 13//13 12//12 379//379
f 316//316 108//108 87//87
f 379//379 437//437 13//13
f 8//8 238//238 4//4
f 12//12 450//450 379//379
f 108//108 109//109 87//87
f 12//12 17//17 67//67
f 9//9 4//4 219//219
f 220//220 5//5 6//6
f 299//299 443//443 8//8
f 12//12 257//257 17//17
f 7//7 8//8 9//9
f 541//541 516//516 253//253
f 19//19 141//141 15//15
f 7//7 220//220 258//258
f 14//14 392//392 454//454
f 1//1 3//3 443//443
f 67//67 17//17 18//18
f 385//385 253//253 516//516
f 15//15 14//14 454//454
f 3//3 238//238 443//443
f 13//13 437//437 1//1
f 299//299 13//13 443//443
f 11//11 8//8 10//10
f 437//437 248//248 2//2
f 10//10 258//258 257//257
f 13//13 299//299 12//12
f 437//437 250//250 248//248
f 437//437 2//2 1//1
f 16//16 19//19 17//17
f 2//2 581//581 1//1
f 14//14 15//15 258//258
f 454//454 451//451 15//15
f 588//588 6//6 586//586
f 6//6 589//589 586//586
f 564//564 586//586 587//587
f 564//564 565//565 586//586
f 584//584 600//600 602//602
f 584//584 602//602 582//582
f 198//198 580//580 584//584
f 582//582 198//198 584//584
f 408//408 254//254 2//2
f 585//585 198//198 576//576
f 583//583 254//254 198//198
f 584//584 580//580 579//579
f 579//579 580//580 572//572
f 578//578 585//585 201//201
f 576//576 577//577 201//201
f 15//15 451//451 19//19
f 392//392 14//14 6//6
f 575//575 117//117 328//328
f 211//211 574//574 572//572
f 211//211 573//573 143//143
f 570//570 565//565 567//567
f 588//588 255//255 454//454
f 569//569 199//199 335//335
f 588//588 569//569 255//255
f 560//560 570//570 567//567
f 570//570 568//568 565//565
f 560//560 567//567 563//563
f 392//392 588//588 454//454
f 560//560 563//563 202//202
f 586//586 589//589 587//587
f 565//565 588//588 586//586
f 562//562 567//567 565//565
f 565//565 564//564 562//562
f 588//588 392//392 6//6
f 197//197 563//563 562//562
f 587//587 197//197 562//562
f 587//587 562//562 564//564
f 560//560 199//199 570//570
f 557//557 555//555 559//559
f 254//254 581//581 2//2
f 410//410 581//581 583//583
f 583//583 198//198 582//582
f 410//410 602//602 219//219
f 585//585 580//580 198//198
f 554//554 375//375 281//281
f 390//390 372//372 551//551
f 548//548 550//550 549//549
f 343//343 446//446 409//409
f 545//545 546//546 251//251
f 432//432 545//545 251//251
f 544//544 547//547 256//256
f 545//545 432//432 544//544
f 256//256 554//554 459//459
f 256//256 547//547 375//375
f 556//556 559//559 555//555
f 581//581 3//3 1//1
f 540//540 541//541 543//543
f 542//542 519//519 543//543
f 142//142 219//219 4//4
f 536//536 537//537 535//535
f 515//515 516//516 535//535
f 543//543 519//519 539//539
f 531//531 515//515 533//533
f 538//538 531//531 533//533
f 583//583 581//581 254//254
f 527//527 523//523 524//524
f 521//521 522//522 520//520
f 524//524 529//529 526//526
f 589//589 6//6 5//5
f 525//525 526//526 158//158
f 158//158 529//529 528//528
f 526//526 529//529 158//158
f 506//506 526//526 525//525
f 526//526 506//506 524//524
f 523//523 529//529 524//524
f 569//569 588//588 568//568
f 523//523 527//527 521//521
f 506//506 527//527 524//524
f 521//521 527//527 522//522
f 539//539 540//540 543//543
f 253//253 543//543 541//541
f 539//539 47//47 72//72
f 200//200 542//542 480//480
f 89//89 20//20 243//243
f 535//535 533//533 515//515
f 568//568 588//588 565//565
f 142//142 410//410 219//219
f 516//516 532//532 546//546
f 372//372 458//458 551//551
f 256//256 373//373 554//554
f 373//373 375//375 554//554
f 425//425 430//430 33//33
f 553//553 551//551 554//554
f 545//545 385//385 546//546
f 553//553 554//554 281//281
f 401//401 587//587 5//5
f 591//591 566//566 590//590
f 375//375 373//373 256//256
f 438//438 186//186 172//172
f 500//500 83//83 217//217
f 545//545 459//459 385//385
f 38//38 40//40 49//49
f 42//42 39//39 465//465
f 546//546 164//164 251//251
f 38//38 462//462 465//465
f 192//192 595//595 566//566
f 39//39 43//43 465//465
f 566//566 591//591 449//449
f 40//40 38//38 465//465
f 42//42 465//465 46//46
f 44//44 42//42 46//46
f 39//39 42//42 43//43
f 46//46 462//462 463//463
f 462//462 46//46 465//465
f 42//42 43//43 45//45
f 581//581 410//410 3//3
f 283//283 549//549 314//314
f 446//446 343//343 448//448
f 343//343 549//549 448//448
f 42//42 44//44 43//43
f 46//46 40//40 43//43
f 41//41 46//46 463//463
f 550//550 448//448 549//549
f 465//465 43//43 40//40
f 421//421 194//194 217//217
f 571//571 574//574 211//211
f 46//46 463//463 40//40
f 46//46 43//43 44//44
f 463//463 46//46 41//41
f 42//42 45//45 43//43
f 551//551 458//458 554//554
f 467//467 38//38 48//48
f 48//48 153//153 467//467
f 48//48 38//38 49//49
f 285//285 96//96 98//98
f 157//157 236//236 90//90
f 48//48 51//51 153//153
f 49//49 51//51 48//48
f 282//282 390//390 551//551
f 436//436 440//440 421//421
f 421//421 440//440 194//194
f 194//194 440//440 208//208
f 439//439 208//208 440//440
f 579//579 600//600 584//584
f 421//421 185//185 436//436
f 25//25 426//426 419//419
f 425//425 236//236 37//37
f 211//211 572//572 578//578
f 440//440 436//436 449//449
f 194//194 178//178 217//217
f 199//199 560//560 559//559
f 50//50 49//49 52//52
f 143//143 571//571 211//211
f 576//576 201//201 585//585
f 573//573 191//191 143//143
f 585//585 578//578 580//580
f 558//558 557//557 559//559
f 216//216 595//595 192//192
f 215//215 571//571 143//143
f 53//53 52//52 56//56
f 201//201 573//573 211//211
f 574//574 579//579 572//572
f 449//449 436//436 435//435
f 578//578 572//572 580//580
f 5//5 219//219 401//401
f 562//562 563//563 567//567
f 426//426 22//22 419//419
f 53//53 55//55 54//54
f 54//54 52//52 53//53
f 556//556 199//199 559//559
f 372//372 390//390 223//223
f 60//60 56//56 52//52
f 54//54 58//58 50//50
f 60//60 52//52 136//136
f 140//140 50//50 58//58
f 52//52 54//54 50//50
f 58//58 57//57 61//61
f 61//61 57//57 59//59
f 54//54 57//57 58//58
f 56//56 57//57 54//54
f 60//60 57//57 56//56
f 63//63 154//154 58//58
f 425//425 36//36 429//429
f 63//63 61//61 62//62
f 61//61 59//59 62//62
f 537//537 533//533 535//535
f 62//62 468//468 63//63
f 60//60 62//62 57//57
f 542//542 543//543 480//480
f 515//515 531//531 532//532
f 62//62 60//60 65//65
f 65//65 468//468 62//62
f 64//64 65//65 62//62
f 67//67 70//70 68//68
f 435//435 185//185 414//414
f 66//66 68//68 70//70
f 71//71 231//231 70//70
f 222//222 456//456 223//223
f 482//482 25//25 416//416
f 525//525 158//158 473//473
f 469//469 419//419 22//22
f 502//502 32//32 504//504
f 32//32 31//31 504//504
f 503//503 501//501 214//214
f 435//435 192//192 449//449
f 410//410 582//582 602//602
f 501//501 186//186 214//214
f 545//545 256//256 459//459
f 186//186 500//500 214//214
f 32//32 503//503 31//31
f 375//375 547//547 550//550
f 501//501 502//502 499//499
f 438//438 83//83 186//186
f 33//33 430//430 34//34
f 199//199 569//569 570//570
f 211//211 578//578 201//201
f 568//568 570//570 569//569
f 492//492 489//489 74//74
f 491//491 490//490 492//492
f 530//530 167//167 207//207
f 490//490 491//491 494//494
f 420//420 493//493 489//489
f 217//217 185//185 421//421
f 493//493 74//74 489//489
f 493//493 420//420 75//75
f 492//492 490//490 489//489
f 530//530 531//531 538//538
f 490//490 494//494 420//420
f 490//490 420//420 489//489
f 436//436 185//185 435//435
f 573//573 201//201 577//577
f 36//36 425//425 37//37
f 531//531 530//530 207//207
f 33//33 236//236 425//425
f 90//90 236//236 33//33
f 34//34 90//90 33//33
f 483//483 484//484 481//481
f 479//479 488//488 481//481
f 479//479 477//477 488//488
f 487//487 477//477 479//479
f 487//487 479//479 76//76
f 117//117 339//339 402//402
f 339//339 117//117 120//120
f 114//114 117//117 575//575
f 120//120 114//114 109//109
f 118//118 342//342 319//319
f 378//378 113//113 108//108
f 113//113 109//109 108//108
f 229//229 119//119 290//290
f 116//116 109//109 113//113
f 119//119 113//113 378//378
f 377//377 109//109 77//77
f 316//316 288//288 108//108
f 103//103 102//102 105//105
f 82//82 103//103 105//105
f 94//94 102//102 103//103
f 99//99 100//100 94//94
f 99//99 94//94 103//103
f 100//100 287//287 94//94
f 99//99 101//101 298//298
f 100//100 284//284 86//86
f 86//86 85//85 110//110
f 85//85 86//86 284//284
f 378//378 288//288 240//240
f 95//95 300//300 85//85
f 87//87 95//95 92//92
f 316//316 87//87 92//92
f 300//300 87//87 377//377
f 302//302 88//88 310//310
f 77//77 109//109 114//114
f 86//86 277//277 287//287
f 85//85 300//300 110//110
f 110//110 277//277 86//86
f 300//300 95//95 87//87
f 91//91 310//310 88//88
f 82//82 84//84 91//91
f 310//310 89//89 302//302
f 91//91 88//88 81//81
f 243//243 81//81 88//88
f 101//101 103//103 81//81
f 302//302 243//243 88//88
f 396//396 101//101 81//81
f 80//80 313//313 307//307
f 305//305 80//80 110//110
f 307//307 94//94 277//277
f 110//110 80//80 277//277
f 383//383 195//195 405//405
f 239//239 21//21 290//290
f 94//94 287//287 277//277
f 77//77 300//300 377//377
f 77//77 114//114 575//575
f 110//110 77//77 575//575
f 305//305 575//575 79//79
f 328//328 79//79 575//575
f 486//486 76//76 484//484
f 479//479 481//481 76//76
f 486//486 470//470 487//487
f 486//486 487//487 76//76
f 537//537 125//125 127//127
f 121//121 135//135 125//125
f 165//165 122//122 131//131
f 126//126 133//133 131//131
f 413//413 486//486 484//484
f 128//128 127//127 125//125
f 135//135 123//123 130//130
f 132//132 122//122 129//129
f 134//134 135//135 132//132
f 129//129 134//134 132//132
f 162//162 168//168 429//429
f 429//429 168//168 35//35
f 161//161 26//26 495//495
f 182//182 35//35 168//168
f 60//60 136//136 65//65
f 577//577 144//144 249//249
f 418//418 520//520 474//474
f 538//538 165//165 530//530
f 55//55 56//56 54//54
f 63//63 58//58 61//61
f 533//533 127//127 538//538
f 51//51 50//50 140//140
f 146//146 521//521 520//520
f 537//537 418//418 121//121
f 133//133 473//473 158//158
f 528//528 133//133 158//158
f 528//528 131//131 133//133
f 533//533 537//537 127//127
f 132//132 130//130 122//122
f 49//49 50//50 51//51
f 171//171 51//51 140//140
f 53//53 56//56 55//55
f 130//130 126//126 122//122
f 62//62 65//65 64//64
f 462//462 467//467 187//187
f 121//121 418//418 474//474
f 174//174 259//259 461//461
f 59//59 57//57 62//62
f 529//529 523//523 148//148
f 31//31 177//177 505//505
f 414//414 185//185 159//159
f 78//78 338//338 411//411
f 406//406 360//360 347//347
f 169//169 131//131 528//528
f 435//435 150//150 192//192
f 414//414 159//159 210//210
f 360//360 406//406 411//411
f 414//414 148//148 435//435
f 159//159 485//485 170//170
f 159//159 160//160 485//485
f 166//166 160//160 159//159
f 165//165 538//538 127//127
f 530//530 169//169 167//167
f 342//342 339//339 320//320
f 532//532 531//531 207//207
f 110//110 575//575 305//305
f 160//160 28//28 485//485
f 210//210 170//170 529//529
f 529//529 169//169 528//528
f 122//122 165//165 127//127
f 131//131 122//122 126//126
f 325//325 405//405 406//406
f 131//131 169//169 165//165
f 133//133 126//126 130//130
f 170//170 169//169 529//529
f 414//414 210//210 148//148
f 83//83 496//496 166//166
f 529//529 148//148 210//210
f 170//170 210//210 159//159
f 148//148 523//523 521//521
f 140//140 154//154 181//181
f 101//101 99//99 103//103
f 80//80 305//305 79//79
f 339//339 120//120 320//320
f 319//319 342//342 320//320
f 148//148 150//150 435//435
f 320//320 116//116 319//319
f 153//153 51//51 171//171
f 165//165 169//169 530//530
f 319//319 97//97 118//118
f 335//335 480//480 253//253
f 406//406 347//347 325//325
f 555//555 189//189 556//556
f 556//556 480//480 335//335
f 495//495 497//497 161//161
f 516//516 546//546 385//385
f 434//434 144//144 576//576
f 166//166 217//217 83//83
f 144//144 407//407 251//251
f 275//275 100//100 99//99
f 552//552 372//372 223//223
f 222//222 223//223 303//303
f 545//545 544//544 256//256
f 107//107 239//239 290//290
f 343//343 323//323 314//314
f 518//518 532//532 207//207
f 375//375 295//295 281//281
f 104//104 82//82 105//105
f 195//195 78//78 405//405
f 147//147 150//150 148//148
f 148//148 521//521 147//147
f 263//263 21//21 383//383
f 190//190 249//249 203//203
f 213//213 190//190 212//212
f 175//175 176//176 212//212
f 143//143 191//191 215//215
f 78//78 376//376 338//338
f 318//318 310//310 84//84
f 411//411 406//406 78//78
f 405//405 263//263 383//383
f 462//462 187//187 30//30
f 376//376 78//78 195//195
f 307//307 277//277 80//80
f 102//102 94//94 307//307
f 174//174 461//461 30//30
f 461//461 462//462 30//30
f 130//130 132//132 135//135
f 58//58 154//154 140//140
f 230//230 400//400 234//234
f 439//439 215//215 218//218
f 389//389 399//399 233//233
f 93//93 400//400 394//394
f 246//246 399//399 247//247
f 399//399 246//246 394//394
f 247//247 389//389 245//245
f 246//246 93//93 394//394
f 573//573 213//213 191//191
f 399//399 394//394 233//233
f 399//399 389//389 247//247
f 217//217 159//159 185//185
f 394//394 400//400 395//395
f 231//231 389//389 233//233
f 395//395 400//400 230//230
f 28//28 163//163 485//485
f 69//69 233//233 395//395
f 69//69 395//395 230//230
f 224//224 230//230 234//234
f 233//233 69//69 70//70
f 70//70 231//231 233//233
f 231//231 221//221 389//389
f 221//221 228//228 389//389
f 164//164 532//532 518//518
f 400//400 244//244 234//234
f 247//247 245//245 308//308
f 235//235 246//246 247//247
f 246//246 235//235 107//107
f 29//29 163//163 28//28
f 235//235 247//247 308//308
f 111//111 308//308 262//262
f 493//493 75//75 478//478
f 320//320 120//120 116//116
f 93//93 237//237 240//240
f 98//98 284//284 100//100
f 81//81 103//103 82//82
f 20//20 289//289 243//243
f 81//81 243//243 396//396
f 89//89 243//243 302//302
f 310//310 112//112 89//89
f 495//495 496//496 497//497
f 292//292 244//244 288//288
f 244//244 400//400 240//240
f 400//400 93//93 240//240
f 228//228 245//245 389//389
f 289//289 245//245 228//228
f 244//244 292//292 234//234
f 177//177 193//193 505//505
f 228//228 221//221 303//303
f 234//234 292//292 226//226
f 303//303 225//225 228//228
f 292//292 279//279 323//323
f 227//227 267//267 361//361
f 69//69 230//230 224//224
f 222//222 231//231 71//71
f 303//303 223//223 267//267
f 222//222 303//303 221//221
f 224//224 226//226 447//447
f 97//97 119//119 229//229
f 178//178 196//196 177//177
f 120//120 109//109 116//116
f 516//516 515//515 532//532
f 190//190 213//213 577//577
f 119//119 319//319 116//116
f 91//91 81//81 82//82
f 119//119 241//241 290//290
f 310//310 91//91 84//84
f 573//573 577//577 213//213
f 99//99 298//298 275//275
f 439//439 440//440 449//449
f 449//449 192//192 566//566
f 381//381 384//384 261//261
f 370//370 20//20 262//262
f 207//207 517//517 518//518
f 313//313 79//79 115//115
f 190//190 577//577 249//249
f 229//229 266//266 97//97
f 116//116 113//113 119//119
f 176//176 177//177 206//206
f 322//322 381//381 374//374
f 558//558 560//560 202//202
f 106//106 119//119 378//378
f 175//175 193//193 176//176
f 120//120 117//117 114//114
f 390//390 361//361 267//267
f 293//293 286//286 280//280
f 378//378 240//240 106//106
f 556//556 189//189 200//200
f 559//559 560//560 558//558
f 480//480 556//556 200//200
f 286//286 293//293 296//296
f 577//577 576//576 144//144
f 501//501 503//503 502//502
f 286//286 285//285 280//280
f 318//318 317//317 310//310
f 296//296 283//283 285//285
f 226//226 224//224 234//234
f 221//221 231//231 222//222
f 287//287 100//100 86//86
f 323//323 304//304 292//292
f 203//203 175//175 190//190
f 343//343 409//409 304//304
f 396//396 391//391 298//298
f 111//111 262//262 309//309
f 187//187 505//505 30//30
f 367//367 374//374 274//274
f 77//77 110//110 300//300
f 104//104 105//105 102//102
f 283//283 295//295 548//548
f 316//316 279//279 288//288
f 187//187 504//504 505//505
f 96//96 285//285 358//358
f 280//280 275//275 298//298
f 504//504 187//187 180//180
f 242//242 229//229 263//263
f 289//289 396//396 243//243
f 95//95 284//284 96//96
f 180//180 187//187 153//153
f 167//167 184//184 173//173
f 549//549 283//283 548//548
f 551//551 293//293 282//282
f 227//227 396//396 225//225
f 92//92 314//314 279//279
f 285//285 283//283 358//358
f 225//225 289//289 228//228
f 186//186 83//83 500//500
f 95//95 96//96 92//92
f 92//92 358//358 314//314
f 206//206 212//212 176//176
f 96//96 284//284 98//98
f 288//288 244//244 240//240
f 553//553 281//281 296//296
f 227//227 303//303 267//267
f 284//284 95//95 85//85
f 295//295 375//375 550//550
f 30//30 193//193 175//175
f 361//361 282//282 293//293
f 175//175 174//174 30//30
f 180//180 171//171 179//179
f 467//467 153//153 187//187
f 203//203 249//249 164//164
f 275//275 280//280 98//98
f 188//188 175//175 203//203
f 517//517 188//188 203//203
f 518//518 203//203 164//164
f 190//190 175//175 212//212
f 96//96 358//358 92//92
f 304//304 226//226 292//292
f 262//262 308//308 370//370
f 518//518 517//517 203//203
f 391//391 396//396 227//227
f 555//555 595//595 209//209
f 555//555 209//209 189//189
f 225//225 303//303 227//227
f 361//361 391//391 227//227
f 245//245 289//289 370//370
f 206//206 191//191 212//212
f 212//212 191//191 213//213
f 298//298 101//101 396//396
f 218//218 215//215 191//191
f 66//66 69//69 232//232
f 370//370 289//289 20//20
f 218//218 178//178 194//194
f 296//296 281//281 295//295
f 217//217 178//178 500//500
f 595//595 216//216 472//472
f 472//472 209//209 595//595
f 27//27 29//29 28//28
f 191//191 196//196 218//218
f 191//191 206//206 196//196
f 505//505 504//504 31//31
f 438//438 172//172 184//184
f 173//173 259//259 174//174
f 259//259 172//172 498//498
f 174//174 188//188 173//173
f 144//144 251//251 164//164
f 249//249 144//144 164//164
f 173//173 172//172 259//259
f 173//173 207//207 167//167
f 184//184 172//172 173//173
f 517//517 207//207 173//173
f 517//517 173//173 188//188
f 174//174 175//175 188//188
f 298//298 361//361 280//280
f 171//171 140//140 181//181
f 154//154 499//499 181//181
f 499//499 183//183 181//181
f 313//313 80//80 79//79
f 179//179 181//181 183//183
f 502//502 183//183 499//499
f 179//179 171//171 181//181
f 179//179 183//183 502//502
f 186//186 499//499 154//154
f 171//171 180//180 153//153
f 180//180 179//179 504//504
f 502//502 504//504 179//179
f 102//102 307//307 104//104
f 549//549 343//343 314//314
f 532//532 164//164 546//546
f 261//261 384//384 306//306
f 182//182 168//168 161//161
f 217//217 166//166 159//159
f 361//361 298//298 391//391
f 291//291 362//362 332//332
f 343//343 304//304 323//323
f 289//289 225//225 396//396
f 497//497 182//182 161//161
f 218//218 196//196 178//178
f 182//182 497//497 124//124
f 111//111 235//235 308//308
f 288//288 279//279 292//292
f 280//280 285//285 98//98
f 245//245 370//370 308//308
f 274//274 261//261 306//306
f 21//21 265//265 383//383
f 246//246 107//107 93//93
f 178//178 177//177 31//31
f 223//223 390//390 267//267
f 295//295 283//283 296//296
f 361//361 293//293 280//280
f 233//233 394//394 395//395
f 209//209 507//507 189//189
f 295//295 550//550 548//548
f 358//358 283//283 314//314
f 378//378 108//108 288//288
f 307//307 115//115 311//311
f 276//276 322//322 374//374
f 223//223 456//456 552//552
f 407//407 432//432 251//251
f 428//428 23//23 72//72
f 332//332 381//381 322//322
f 332//332 362//362 333//333
f 279//279 316//316 92//92
f 365//365 355//355 366//366
f 115//115 336//336 351//351
f 331//331 328//328 337//337
f 193//193 30//30 505//505
f 311//311 334//334 104//104
f 177//177 196//196 206//206
f 331//331 337//337 350//350
f 275//275 98//98 100//100
f 374//374 381//381 261//261
f 279//279 314//314 323//323
f 291//291 332//332 322//322
f 337//337 397//397 350//350
f 498//498 172//172 186//186
f 286//286 296//296 285//285
f 333//333 381//381 332//332
f 551//551 553//553 293//293
f 261//261 274//274 374//374
f 381//381 333//333 384//384
f 20//20 112//112 262//262
f 553//553 296//296 293//293
f 322//322 276//276 291//291
f 282//282 361//361 390//390
f 439//439 218//218 208//208
f 32//32 502//502 503//503
f 177//177 176//176 193//193
f 412//412 260//260 272//272
f 269//269 387//387 271//271
f 301//301 274//274 306//306
f 270//270 269//269 271//271
f 264//264 271//271 348//348
f 266//266 325//325 369//369
f 387//387 340//340 271//271
f 387//387 269//269 268//268
f 376//376 268//268 269//269
f 330//330 327//327 344//344
f 348//348 271//271 340//340
f 355//355 301//301 312//312
f 97//97 266//266 118//118
f 405//405 78//78 406//406
f 263//263 405//405 242//242
f 264//264 348//348 312//312
f 214//214 500//500 178//178
f 208//208 218//218 194//194
f 369//369 347//347 345//345
f 503//503 214//214 178//178
f 178//178 31//31 503//503
f 347//347 278//278 345//345
f 260//260 118//118 266//266
f 268//268 195//195 383//383
f 229//229 242//242 266//266
f 345//345 362//362 357//357
f 362//362 345//345 278//278
f 341//341 339//339 342//342
f 268//268 317//317 387//387
f 317//317 268//268 265//265
f 366//366 349//349 368//368
f 271//271 264//264 270//270
f 387//387 317//317 318//318
f 20//20 89//89 112//112
f 111//111 21//21 239//239
f 367//367 365//365 368//368
f 21//21 263//263 229//229
f 346//346 412//412 272//272
f 357//357 362//362 291//291
f 382//382 368//368 364//364
f 265//265 268//268 383//383
f 364//364 368//368 349//349
f 260//260 266//266 272//272
f 21//21 111//111 309//309
f 112//112 309//309 262//262
f 393//393 404//404 338//338
f 273//273 356//356 357//357
f 368//368 365//365 366//366
f 324//324 273//273 276//276
f 365//365 367//367 274//274
f 276//276 374//374 382//382
f 338//338 404//404 411//411
f 346//346 272//272 345//345
f 347//347 369//369 325//325
f 195//195 268//268 376//376
f 278//278 329//329 362//362
f 297//297 264//264 312//312
f 346//346 345//345 356//356
f 360//360 278//278 347//347
f 239//239 235//235 111//111
f 329//329 278//278 360//360
f 357//357 356//356 345//345
f 270//270 264//264 297//297
f 330//330 344//344 326//326
f 384//384 404//404 393//393
f 341//341 342//342 260//260
f 317//317 112//112 310//310
f 270//270 376//376 269//269
f 84//84 330//330 326//326
f 362//362 329//329 333//333
f 266//266 369//369 272//272
f 306//306 297//297 301//301
f 329//329 360//360 411//411
f 242//242 325//325 266//266
f 338//338 376//376 270//270
f 393//393 270//270 297//297
f 352//352 339//339 341//341
f 270//270 393//393 338//338
f 393//393 306//306 384//384
f 306//306 393//393 297//297
f 348//348 340//340 344//344
f 363//363 356//356 273//273
f 242//242 405//405 325//325
f 79//79 328//328 331//331
f 318//318 84//84 326//326
f 429//429 430//430 425//425
f 25//25 24//24 426//426
f 369//369 345//345 272//272
f 253//253 386//386 335//335
f 229//229 290//290 21//21
f 327//327 104//104 334//334
f 119//119 97//97 319//319
f 198//198 254//254 576//576
f 342//342 118//118 260//260
f 331//331 115//115 79//79
f 459//459 458//458 386//386
f 307//307 311//311 104//104
f 364//364 349//349 351//351
f 330//330 82//82 104//104
f 115//115 307//307 313//313
f 82//82 330//330 84//84
f 265//265 309//309 112//112
f 309//309 265//265 21//21
f 402//402 328//328 117//117
f 354//354 349//349 366//366
f 352//352 403//403 397//397
f 352//352 341//341 398//398
f 352//352 337//337 402//402
f 311//311 349//349 334//334
f 556//556 335//335 199//199
f 327//327 330//330 104//104
f 550//550 547//547 445//445
f 324//324 315//315 403//403
f 359//359 276//276 382//382
f 340//340 326//326 344//344
f 334//334 349//349 354//354
f 324//324 276//276 315//315
f 273//273 357//357 291//291
f 301//301 355//355 365//365
f 301//301 365//365 274//274
f 331//331 350//350 336//336
f 352//352 397//397 337//337
f 368//368 382//382 367//367
f 336//336 115//115 331//331
f 402//402 339//339 352//352
f 273//273 324//324 363//363
f 403//403 352//352 398//398
f 276//276 273//273 291//291
f 398//398 341//341 412//412
f 363//363 398//398 412//412
f 356//356 363//363 346//346
f 336//336 315//315 364//364
f 359//359 382//382 364//364
f 351//351 349//349 311//311
f 367//367 382//382 374//374
f 334//334 354//354 327//327
f 312//312 348//348 355//355
f 265//265 112//112 317//317
f 312//312 301//301 297//297
f 315//315 397//397 403//403
f 355//355 353//353 366//366
f 115//115 351//351 311//311
f 402//402 337//337 328//328
f 336//336 350//350 315//315
f 403//403 398//398 324//324
f 107//107 235//235 239//239
f 315//315 359//359 364//364
f 412//412 346//346 363//363
f 398//398 363//363 324//324
f 318//318 340//340 387//387
f 326//326 340//340 318//318
f 315//315 350//350 397//397
f 344//344 327//327 354//354
f 241//241 107//107 290//290
f 260//260 412//412 341//341
f 237//237 93//93 107//107
f 344//344 353//353 348//348
f 354//354 353//353 344//344
f 485//485 464//464 423//423
f 160//160 27//27 28//28
f 438//438 184//184 139//139
f 29//29 162//162 163//163
f 353//353 355//355 348//348
f 354//354 366//366 353//353
f 336//336 364//364 351//351
f 168//168 162//162 29//29
f 329//329 411//411 404//404
f 27//27 160//160 166//166
f 315//315 276//276 359//359
f 404//404 384//384 333//333
f 329//329 404//404 333//333
f 413//413 539//539 72//72
f 519//519 47//47 539//539
f 63//63 468//468 498//498
f 418//418 536//536 155//155
f 27//27 26//26 29//29
f 534//534 540//540 535//535
f 507//507 478//478 75//75
f 22//22 155//155 469//469
f 536//536 418//418 537//537
f 516//516 534//534 535//535
f 466//466 138//138 139//139
f 413//413 417//417 539//539
f 543//543 253//253 480//480
f 541//541 534//534 516//516
f 204//204 512//512 510//510
f 541//541 540//540 534//534
f 441//441 522//522 506//506
f 527//527 506//506 522//522
f 205//205 472//472 204//204
f 506//506 525//525 441//441
f 471//471 424//424 416//416
f 417//417 535//535 540//540
f 507//507 200//200 189//189
f 441//441 474//474 522//522
f 485//485 169//169 170//170
f 22//22 426//426 147//147
f 535//535 417//417 536//536
f 513//513 73//73 491//491
f 422//422 511//511 478//478
f 47//47 428//428 72//72
f 418//418 155//155 22//22
f 321//321 205//205 422//422
f 499//499 186//186 501//501
f 205//205 321//321 472//472
f 205//205 204//204 510//510
f 510//510 422//422 205//205
f 511//511 422//422 509//509
f 513//513 511//511 509//509
f 74//74 493//493 478//478
f 512//512 204//204 428//428
f 512//512 509//509 510//510
f 428//428 73//73 512//512
f 321//321 422//422 507//507
f 478//478 507//507 422//422
f 204//204 472//472 216//216
f 200//200 519//519 542//542
f 204//204 216//216 428//428
f 222//222 71//71 456//456
f 415//415 469//469 488//488
f 162//162 464//464 163//163
f 417//417 155//155 536//536
f 464//464 37//37 423//423
f 232//232 68//68 66//66
f 74//74 511//511 492//492
f 70//70 69//69 66//66
f 509//509 422//422 510//510
f 146//146 520//520 418//418
f 509//509 512//512 513//513
f 157//157 90//90 151//151
f 476//476 75//75 420//420
f 417//417 540//540 539//539
f 74//74 478//478 511//511
f 438//438 496//496 83//83
f 492//492 513//513 491//491
f 482//482 416//416 380//380
f 508//508 469//469 415//415
f 416//416 415//415 471//471
f 488//488 471//471 415//415
f 380//380 416//416 424//424
f 25//25 508//508 416//416
f 423//423 169//169 485//485
f 437//437 431//431 250//250
f 469//469 508//508 419//419
f 482//482 380//380 23//23
f 482//482 24//24 25//25
f 24//24 482//482 23//23
f 73//73 428//428 47//47
f 150//150 147//147 427//427
f 427//427 426//426 24//24
f 147//147 426//426 427//427
f 24//24 428//428 427//427
f 209//209 472//472 321//321
f 22//22 147//147 146//146
f 521//521 146//146 147//147
f 22//22 146//146 418//418
f 136//136 52//52 40//40
f 427//427 428//428 216//216
f 485//485 163//163 464//464
f 192//192 150//150 216//216
f 321//321 507//507 209//209
f 150//150 427//427 216//216
f 407//407 144//144 434//434
f 434//434 408//408 407//407
f 432//432 407//407 408//408
f 442//442 432//432 433//433
f 442//442 433//433 248//248
f 431//431 437//437 379//379
f 433//433 432//432 408//408
f 576//576 254//254 434//434
f 442//442 248//248 250//250
f 444//444 250//250 431//431
f 138//138 124//124 497//497
f 483//483 413//413 484//484
f 37//37 236//236 423//423
f 252//252 461//461 156//156
f 423//423 466//466 139//139
f 466//466 423//423 236//236
f 434//434 254//254 408//408
f 438//438 139//139 138//138
f 36//36 37//37 464//464
f 151//151 182//182 124//124
f 232//232 294//294 68//68
f 294//294 450//450 68//68
f 166//166 496//496 27//27
f 250//250 444//444 442//442
f 446//446 371//371 444//444
f 139//139 184//184 167//167
f 495//495 27//27 496//496
f 496//496 438//438 138//138
f 157//157 151//151 124//124
f 442//442 444//444 371//371
f 236//236 157//157 466//466
f 138//138 157//157 124//124
f 464//464 162//162 36//36
f 294//294 444//444 431//431
f 36//36 162//162 429//429
f 444//444 294//294 447//447
f 294//294 232//232 447//447
f 224//224 232//232 69//69
f 371//371 445//445 442//442
f 450//450 294//294 379//379
f 431//431 379//379 294//294
f 409//409 446//446 444//444
f 226//226 409//409 447//447
f 447//447 409//409 444//444
f 409//409 226//226 304//304
f 371//371 446//446 448//448
f 419//419 508//508 25//25
f 447//447 232//232 224//224
f 498//498 186//186 154//154
f 167//167 423//423 139//139
f 169//169 423//423 167//167
f 550//550 445//445 448//448
f 448//448 445//445 371//371
f 442//442 445//445 544//544
f 445//445 547//547 544//544
f 442//442 544//544 432//432
f 121//121 123//123 135//135
f 408//408 248//248 433//433
f 156//156 461//461 259//259
f 582//582 410//410 583//583
f 451//451 255//255 453//453
f 255//255 569//569 453//453
f 496//496 138//138 497//497
f 451//451 454//454 255//255
f 451//451 386//386 388//388
f 452//452 451//451 388//388
f 386//386 451//451 453//453
f 386//386 455//455 388//388
f 388//388 455//455 457//457
f 388//388 457//457 452//452
f 386//386 458//458 455//455
f 129//129 122//122 128//128
f 335//335 453//453 569//569
f 18//18 452//452 457//457
f 26//26 27//27 495//495
f 552//552 455//455 458//458
f 129//129 128//128 134//134
f 67//67 71//71 70//70
f 122//122 127//127 128//128
f 18//18 71//71 67//67
f 68//68 450//450 67//67
f 456//456 71//71 18//18
f 457//457 455//455 552//552
f 430//430 429//429 137//137
f 372//372 552//552 458//458
f 457//457 552//552 456//456
f 457//457 456//456 18//18
f 554//554 458//458 459//459
f 125//125 135//135 134//134
f 589//589 5//5 587//587
f 137//137 35//35 151//151
f 386//386 453//453 335//335
f 385//385 386//386 253//253
f 459//459 386//386 385//385
f 24//24 23//23 428//428
f 136//136 252//252 156//156
f 463//463 461//461 252//252
f 463//463 460//460 252//252
f 463//463 252//252 460//460
f 483//483 481//481 469//469
f 252//252 40//40 463//463
f 462//462 461//461 463//463
f 252//252 136//136 40//40
f 52//52 49//49 40//40
f 467//467 462//462 38//38
f 468//468 156//156 498//498
f 156//156 259//259 498//498
f 156//156 468//468 65//65
f 136//136 156//156 65//65
f 63//63 498//498 154//154
f 125//125 134//134 128//128
f 484//484 76//76 481//481
f 520//520 522//522 474//474
f 483//483 469//469 155//155
f 413//413 470//470 486//486
f 469//469 481//481 488//488
f 466//466 157//157 138//138
f 72//72 380//380 470//470
f 477//477 487//487 424//424
f 471//471 477//477 424//424
f 477//477 471//471 488//488
f 380//380 487//487 470//470
f 380//380 72//72 23//23
f 491//491 73//73 47//47
f 413//413 72//72 470//470
f 152//152 149//149 123//123
f 415//415 416//416 508//508
f 525//525 145//145 441//441
f 473//473 149//149 145//145
f 123//123 149//149 130//130
f 380//380 424//424 487//487
f 483//483 417//417 413//413
f 417//417 483//483 155//155
f 525//525 473//473 145//145
f 473//473 133//133 149//149
f 474//474 441//441 475//475
f 152//152 145//145 149//149
f 121//121 152//152 123//123
f 441//441 145//145 152//152
f 152//152 475//475 441//441
f 475//475 152//152 121//121
f 420//420 519//519 476//476
f 507//507 476//476 200//200
f 133//133 130//130 149//149
f 537//537 121//121 125//125
f 474//474 475//475 121//121
f 494//494 519//519 420//420
f 476//476 507//507 75//75
f 200//200 476//476 519//519
f 519//519 494//494 47//47
f 491//491 47//47 494//494
f 513//513 492//492 511//511
f 73//73 513//513 512//512
f 35//35 137//137 429//429
f 151//151 35//35 182//182
f 90//90 137//137 151//151
f 90//90 34//34 137//137
f 29//29 26//26 168//168
f 161//161 168//168 26//26
f 430//430 137//137 34//34
f 558//558 594//594 557//557
f 571//571 599//599 574//574
f 602//602 601//601 219//219
f 1//1 443//443 13//13
f 599//599 571//571 593//593
f 598//598 593//593 590//590
f 593//593 598//598 599//599
f 561//561 598//598 594//594
f 598//598 561//561 599//599
f 561//561 594//594 558//558
f 594//594 598//598 597//597
f 557//557 594//594 596//596
f 566//566 597//597 590//590
f 597//597 598//598 590//590
f 596//596 555//555 557//557
f 596//596 595//595 555//555
f 596//596 594//594 597//597
f 595//595 597//597 566//566
f 596//596 597//597 595//595
f 592//592 215//215 439//439
f 571//571 215//215 593//593
f 593//593 215//215 592//592
f 439//439 449//449 591//591
f 591//591 593//593 592//592
f 592//592 439//439 591//591
f 590//590 593//593 591//591
f 558//558 202//202 197//197
f 197//197 561//561 558//558
f 514//514 561//561 197//197
f 599//599 579//579 574//574
f 579//579 561//561 514//514
f 600//600 579//579 514//514
f 599//599 561//561 579//579
f 197//197 202//202 563//563
f 514//514 197//197 600//600
f 600//600 197//197 401//401
f 197//197 587//587 401//401
f 601//601 600//600 401//401
f 219//219 601//601 401//401
f 602//602 600//600 601//601
